<?xml version="1.0" standalone="no"?>
<!DOCTYPE svg PUBLIC "-//W3C//DTD SVG 20010904//EN"
 "http://www.w3.org/TR/2001/REC-SVG-20010904/DTD/svg10.dtd">
<svg version="1.0" xmlns="http://www.w3.org/2000/svg"
 width="735.000000pt" height="735.000000pt" viewBox="0 0 735.000000 735.000000"
 preserveAspectRatio="xMidYMid meet">
<metadata>
Created by potrace 1.14, written by Peter Selinger 2001-2017
</metadata>
<g transform="translate(0.000000,735.000000) scale(0.100000,-0.100000)"
fill="#000000" stroke="none">
<path d="M1225 7190 l0 -160 -306 0 -307 0 0 -102 c0 -57 -1 -128 -1 -160 l-1
-56 -146 0 c-80 0 -149 -3 -152 -7 -3 -3 -6 -74 -6 -158 l-1 -152 -110 -2
c-60 -1 -129 -2 -152 -2 l-43 -1 0 -638 0 -639 138 0 c75 -1 144 -1 152 -2 14
-1 16 -22 15 -143 0 -79 1 -150 3 -158 3 -13 25 -16 145 -15 78 1 147 0 152
-2 8 -3 11 -298 6 -604 l-1 -36 -146 1 c-87 1 -148 -3 -152 -9 -11 -17 -8
-1905 3 -1906 6 0 74 -1 153 -1 139 0 142 0 143 -21 1 -12 1 -228 1 -479 l0
-458 154 0 154 0 -1 -88 c0 -48 0 -120 0 -159 l1 -72 152 -3 153 -3 0 -155 0
-155 153 -3 152 -3 0 -159 0 -160 308 -2 307 -3 -1 -158 0 -157 1530 2 1531 3
0 155 1 155 307 3 307 2 0 160 0 160 153 0 153 0 -1 158 0 157 153 3 152 3 0
159 0 160 154 0 154 0 -1 468 c0 258 3 473 6 479 5 7 57 11 146 11 77 0 143 2
148 5 9 6 10 1887 1 1902 -4 6 -67 10 -152 10 l-146 -1 -1 36 c-5 250 0 593 9
599 5 3 74 6 151 5 78 0 142 2 142 5 1 3 2 73 3 154 1 99 5 150 13 155 6 4 75
6 152 6 l141 -1 0 478 0 479 -37 1 c-21 0 -90 1 -153 2 l-115 2 0 312 c-1 172
-4 315 -7 318 -4 4 -72 7 -152 6 l-146 0 -1 37 c0 20 -1 92 -1 160 l0 122
-614 0 -613 0 1 -157 1 -158 -148 -2 c-81 -1 -150 -5 -153 -8 -4 -3 -7 -74 -7
-158 l0 -152 -306 -1 -306 -2 1 150 c1 82 -2 154 -5 160 -4 7 -366 10 -1073
10 l-1066 -1 0 159 0 159 -152 3 -153 3 -1 140 c-1 77 -2 148 -3 158 -1 16
-30 17 -459 17 l-457 0 0 -160z"/>
</g>
</svg>
