<svg width="280" height="269" viewBox="0 0 280 269" fill="none" xmlns="http://www.w3.org/2000/svg">
<path d="M280 69.9983V81.6652H268.333V69.9983H280Z" fill="#494A4B"/>
<path d="M280 58.3347V69.9983H268.333V58.3347H280Z" fill="#747576"/>
<path d="M280 46.6677V58.3347H268.333V46.6677H280Z" fill="#747576"/>
<path d="M268.333 175.001V186.667H256.669V175.001H268.333Z" fill="#FFFDEF"/>
<path d="M268.333 163.334V175H256.669V163.334H268.333Z" fill="#FFFDEF"/>
<path d="M268.333 151.667V163.334H256.669V151.667H268.333Z" fill="#FFFDEF"/>
<path d="M268.333 140V151.667H256.669V140H268.333Z" fill="#FFFDEF"/>
<path d="M268.333 128.333V140H256.669V128.333H268.333Z" fill="#FFFDEF"/>
<path d="M268.333 116.666V128.333H256.669V116.666H268.333Z" fill="#FFFDEF"/>
<path d="M268.333 81.6652V93.3354H256.669V81.6652H268.333Z" fill="#494A4B"/>
<path d="M268.333 69.9983V81.6652H256.669V69.9983H268.333Z" fill="#494A4B"/>
<path d="M268.333 58.3347V69.9983H256.669V58.3347H268.333Z" fill="#494A4B"/>
<path d="M268.333 46.6677V58.3347H256.669V46.6677H268.333Z" fill="#494A4B"/>
<path d="M268.333 35.0009V46.6678H256.669V35.0009H268.333Z" fill="#494A4B"/>
<path d="M268.333 23.3339V35.0008H256.669V23.3339H268.333Z" fill="#747576"/>
<path d="M256.67 210.001V221.665H245.003V210.001H256.67Z" fill="#FFFDEF"/>
<path d="M256.67 198.331V210.001H245.003V198.331H256.67Z" fill="#FFFDEF"/>
<path d="M256.67 186.667V198.331H245.003V186.667H256.67Z" fill="#FFFDEF"/>
<path d="M256.67 175.001V186.667H245.003V175.001H256.67Z" fill="#FFFDEF"/>
<path d="M256.67 163.334V175H245.003V163.334H256.67Z" fill="#FFFDEF"/>
<path d="M256.67 151.667V163.334H245.003V151.667H256.67Z" fill="#FFFDEF"/>
<path d="M256.67 140V151.667H245.003V140H256.67Z" fill="#FFFDEF"/>
<path d="M256.67 128.333V140H245.003V128.333H256.67Z" fill="#FFFDEF"/>
<path d="M256.67 116.666V128.333H245.003V116.666H256.67Z" fill="#FFFDEF"/>
<path d="M256.67 104.999V116.666H245.003V104.999H256.67Z" fill="#FFFDEF"/>
<path d="M256.67 93.3354V104.999H245.003V93.3354H256.67Z" fill="#FFFDEF"/>
<path d="M256.67 81.6652V93.3354H245.003V81.6652H256.67Z" fill="#302F2F"/>
<path d="M256.67 69.9983V81.6652H245.003V69.9983H256.67Z" fill="#302F2F"/>
<path d="M256.67 58.3347V69.9983H245.003V58.3347H256.67Z" fill="#494A4B"/>
<path d="M256.67 46.6677V58.3347H245.003V46.6677H256.67Z" fill="#494A4B"/>
<path d="M256.67 35.0009V46.6678H245.003V35.0009H256.67Z" fill="#494A4B"/>
<path d="M256.67 23.3339V35.0008H245.003V23.3339H256.67Z" fill="#494A4B"/>
<path d="M256.67 11.6669V23.3339H245.003V11.6669H256.67Z" fill="#747576"/>
<path d="M245.003 221.665V233.332H233.336V221.665H245.003Z" fill="#FFFDEF"/>
<path d="M245.003 210.001V221.665H233.336V210.001H245.003Z" fill="#FFFDEF"/>
<path d="M245.003 198.331V210.001H233.336V198.331H245.003Z" fill="#FFFDEF"/>
<path d="M245.003 186.667V198.331H233.336V186.667H245.003Z" fill="#FFFDEF"/>
<path d="M245.003 175.001V186.667H233.336V175.001H245.003Z" fill="#FFFDEF"/>
<path d="M245.003 163.334V175H233.336V163.334H245.003Z" fill="#FFFDEF"/>
<path d="M245.003 151.667V163.334H233.336V151.667H245.003Z" fill="#2E2D2D"/>
<path d="M245.003 140V151.667H233.336V140H245.003Z" fill="#2E2D2D"/>
<path d="M245.003 128.333V140H233.336V128.333H245.003Z" fill="#2E2D2D"/>
<path d="M245.003 116.666V128.333H233.336V116.666H245.003Z" fill="#FFFDEF"/>
<path d="M245.003 104.999V116.666H233.336V104.999H245.003Z" fill="#FFFDEF"/>
<path d="M245.003 93.3354V104.999H233.336V93.3354H245.003Z" fill="#FFFDEF"/>
<path d="M245.003 81.6652V93.3354H233.336V81.6652H245.003Z" fill="#FFFDEF"/>
<path d="M245.003 69.9983V81.6652H233.336V69.9983H245.003Z" fill="#FFFDEF"/>
<path d="M245.003 58.3347V69.9983H233.336V58.3347H245.003Z" fill="#302F2F"/>
<path d="M245.003 46.6677V58.3347H233.336V46.6677H245.003Z" fill="#494A4B"/>
<path d="M245.003 35.0009V46.6678H233.336V35.0009H245.003Z" fill="#494A4B"/>
<path d="M245.003 23.3339V35.0008H233.336V23.3339H245.003Z" fill="#494A4B"/>
<path d="M245.003 11.6669V23.3339H233.336V11.6669H245.003Z" fill="#747576"/>
<path d="M233.335 233.332V245.002H221.668V233.332H233.335Z" fill="#FFFDEF"/>
<path d="M233.335 221.665V233.332H221.668V221.665H233.335Z" fill="#FFFDEF"/>
<path d="M233.335 210.001V221.665H221.668V210.001H233.335Z" fill="#FFFDEF"/>
<path d="M233.335 198.331V210.001H221.668V198.331H233.335Z" fill="#FFFDEF"/>
<path d="M233.335 186.667V198.331H221.668V186.667H233.335Z" fill="#FFFDEF"/>
<path d="M233.335 175.001V186.667H221.668V175.001H233.335Z" fill="#FFFDEF"/>
<path d="M233.335 163.334V175H221.668V163.334H233.335Z" fill="#2E2D2D"/>
<path d="M233.335 151.667V163.334H221.668V151.667H233.335Z" fill="#2E2D2D"/>
<path d="M233.335 140V151.667H221.668V140H233.335Z" fill="#2E2D2D"/>
<path d="M233.335 128.333V140H221.668V128.333H233.335Z" fill="#2E2D2D"/>
<path d="M233.335 116.666V128.333H221.668V116.666H233.335Z" fill="#FFFDEF"/>
<path d="M233.335 104.999V116.666H221.668V104.999H233.335Z" fill="#FFFDEF"/>
<path d="M233.335 93.3354V104.999H221.668V93.3354H233.335Z" fill="#FFFDEF"/>
<path d="M233.335 81.6652V93.3354H221.668V81.6652H233.335Z" fill="#FFFDEF"/>
<path d="M233.335 69.9983V81.6652H221.668V69.9983H233.335Z" fill="#FFFDEF"/>
<path d="M233.335 58.3347V69.9983H221.668V58.3347H233.335Z" fill="#FFFDEF"/>
<path d="M233.335 46.6677V58.3347H221.668V46.6677H233.335Z" fill="#302F2F"/>
<path d="M233.335 35.0009V46.6678H221.668V35.0009H233.335Z" fill="#494A4B"/>
<path d="M233.335 23.3339V35.0008H221.668V23.3339H233.335Z" fill="#494A4B"/>
<path d="M233.335 11.6669V23.3339H221.668V11.6669H233.335Z" fill="#747576"/>
<path d="M221.669 245.002V256.666H210.002V245.002H221.669Z" fill="#FFFDEF"/>
<path d="M221.669 233.332V245.002H210.002V233.332H221.669Z" fill="#FFFDEF"/>
<path d="M221.669 221.665V233.332H210.002V221.665H221.669Z" fill="#FFFDEF"/>
<path d="M221.669 210.001V221.665H210.002V210.001H221.669Z" fill="#FFFDEF"/>
<path d="M221.669 198.331V210.001H210.002V198.331H221.669Z" fill="#FFFDEF"/>
<path d="M221.669 186.667V198.331H210.002V186.667H221.669Z" fill="#FFFDEF"/>
<path d="M221.669 175.001V186.667H210.002V175.001H221.669Z" fill="#2E2D2D"/>
<path d="M221.669 163.334V175H210.002V163.334H221.669Z" fill="#2E2D2D"/>
<path d="M221.669 151.667V163.334H210.002V151.667H221.669Z" fill="#2E2D2D"/>
<path d="M221.669 140V151.667H210.002V140H221.669Z" fill="#2E2D2D"/>
<path d="M221.669 128.333V140H210.002V128.333H221.669Z" fill="#2E2D2D"/>
<path d="M221.669 116.666V128.333H210.002V116.666H221.669Z" fill="#2E2D2D"/>
<path d="M221.669 104.999V116.666H210.002V104.999H221.669Z" fill="#FFFDEF"/>
<path d="M221.669 93.3354V104.999H210.002V93.3354H221.669Z" fill="#FFFDEF"/>
<path d="M221.669 81.6652V93.3354H210.002V81.6652H221.669Z" fill="#FFFDEF"/>
<path d="M221.669 69.9983V81.6652H210.002V69.9983H221.669Z" fill="#FFFDEF"/>
<path d="M221.669 58.3347V69.9983H210.002V58.3347H221.669Z" fill="#FFFDEF"/>
<path d="M221.669 46.6677V58.3347H210.002V46.6677H221.669Z" fill="#FFFDEF"/>
<path d="M221.669 35.0009V46.6678H210.002V35.0009H221.669Z" fill="#302F2F"/>
<path d="M221.669 23.3339V35.0008H210.002V23.3339H221.669Z" fill="#494A4B"/>
<path d="M221.669 11.6669V23.3339H210.002V11.6669H221.669Z" fill="#494A4B"/>
<path d="M210.002 245.002V256.666H198.335V245.002H210.002Z" fill="#FFFDEF"/>
<path d="M210.002 233.332V245.002H198.335V233.332H210.002Z" fill="#FFFDEF"/>
<path d="M210.002 221.665V233.332H198.335V221.665H210.002Z" fill="#FFFDEF"/>
<path d="M210.002 210.001V221.665H198.335V210.001H210.002Z" fill="#FFFDEF"/>
<path d="M210.002 198.331V210.001H198.335V198.331H210.002Z" fill="#FFFDEF"/>
<path d="M210.002 186.667V198.331H198.335V186.667H210.002Z" fill="#FFFDEF"/>
<path d="M210.002 175.001V186.667H198.335V175.001H210.002Z" fill="#2E2D2D"/>
<path d="M210.002 163.334V175H198.335V163.334H210.002Z" fill="#2E2D2D"/>
<path d="M210.002 151.667V163.334H198.335V151.667H210.002Z" fill="#2E2D2D"/>
<path d="M210.002 140V151.667H198.335V140H210.002Z" fill="#2E2D2D"/>
<path d="M210.002 128.333V140H198.335V128.333H210.002Z" fill="#FFFDEF"/>
<path d="M210.002 116.666V128.333H198.335V116.666H210.002Z" fill="#2E2D2D"/>
<path d="M210.002 104.999V116.666H198.335V104.999H210.002Z" fill="#2E2D2D"/>
<path d="M210.002 93.3354V104.999H198.335V93.3354H210.002Z" fill="#FFFDEF"/>
<path d="M210.002 81.6652V93.3354H198.335V81.6652H210.002Z" fill="#FFFDEF"/>
<path d="M210.002 69.9983V81.6652H198.335V69.9983H210.002Z" fill="#FFFDEF"/>
<path d="M210.002 58.3347V69.9983H198.335V58.3347H210.002Z" fill="#FFFDEF"/>
<path d="M210.002 46.6677V58.3347H198.335V46.6677H210.002Z" fill="#FFFDEF"/>
<path d="M210.002 35.0009V46.6678H198.335V35.0009H210.002Z" fill="#302F2F"/>
<path d="M210.002 23.3339V35.0008H198.335V23.3339H210.002Z" fill="#494A4B"/>
<path d="M198.335 256.666V268.333H186.668V256.666H198.335Z" fill="#FFFDEF"/>
<path d="M198.335 245.002V256.666H186.668V245.002H198.335Z" fill="#FFFDEF"/>
<path d="M198.335 233.332V245.002H186.668V233.332H198.335Z" fill="#FFFDEF"/>
<path d="M198.335 221.665V233.332H186.668V221.665H198.335Z" fill="#FFFDEF"/>
<path d="M198.335 210.001V221.665H186.668V210.001H198.335Z" fill="#FFFDEF"/>
<path d="M198.335 198.331V210.001H186.668V198.331H198.335Z" fill="#FFFDEF"/>
<path d="M198.335 186.667V198.331H186.668V186.667H198.335Z" fill="#FFFDEF"/>
<path d="M198.335 175.001V186.667H186.668V175.001H198.335Z" fill="#FFFDEF"/>
<path d="M198.335 163.334V175H186.668V163.334H198.335Z" fill="#2E2D2D"/>
<path d="M198.335 151.667V163.334H186.668V151.667H198.335Z" fill="#2E2D2D"/>
<path d="M198.335 140V151.667H186.668V140H198.335Z" fill="#2E2D2D"/>
<path d="M198.335 128.333V140H186.668V128.333H198.335Z" fill="#2E2D2D"/>
<path d="M198.335 116.666V128.333H186.668V116.666H198.335Z" fill="#FFFDEF"/>
<path d="M198.335 104.999V116.666H186.668V104.999H198.335Z" fill="#2E2D2D"/>
<path d="M198.335 93.3354V104.999H186.668V93.3354H198.335Z" fill="#2E2D2D"/>
<path d="M198.335 81.6652V93.3354H186.668V81.6652H198.335Z" fill="#FFFDEF"/>
<path d="M198.335 69.9983V81.6652H186.668V69.9983H198.335Z" fill="#FFFDEF"/>
<path d="M198.335 58.3347V69.9983H186.668V58.3347H198.335Z" fill="#FFFDEF"/>
<path d="M198.335 46.6677V58.3347H186.668V46.6677H198.335Z" fill="#FFFDEF"/>
<path d="M198.335 35.0009V46.6678H186.668V35.0009H198.335Z" fill="#FFFDEF"/>
<path d="M186.668 256.666V268.333H175.001V256.666H186.668Z" fill="#FFFDEF"/>
<path d="M186.668 245.002V256.666H175.001V245.002H186.668Z" fill="#FFFDEF"/>
<path d="M186.668 233.332V245.002H175.001V233.332H186.668Z" fill="#FFFDEF"/>
<path d="M186.668 221.665V233.332H175.001V221.665H186.668Z" fill="#FFFDEF"/>
<path d="M186.668 210.001V221.665H175.001V210.001H186.668Z" fill="#2E2D2D"/>
<path d="M186.668 198.331V210.001H175.001V198.331H186.668Z" fill="#FFFDEF"/>
<path d="M186.668 186.667V198.331H175.001V186.667H186.668Z" fill="#FFFDEF"/>
<path d="M186.668 175.001V186.667H175.001V175.001H186.668Z" fill="#FFFDEF"/>
<path d="M186.668 163.334V175H175.001V163.334H186.668Z" fill="#FFFDEF"/>
<path d="M186.668 151.667V163.334H175.001V151.667H186.668Z" fill="#2E2D2D"/>
<path d="M186.668 140V151.667H175.001V140H186.668Z" fill="#2E2D2D"/>
<path d="M186.668 128.333V140H175.001V128.333H186.668Z" fill="#FFFDEF"/>
<path d="M186.668 116.666V128.333H175.001V116.666H186.668Z" fill="#2E2D2D"/>
<path d="M186.668 104.999V116.666H175.001V104.999H186.668Z" fill="#2E2D2D"/>
<path d="M186.668 93.3354V104.999H175.001V93.3354H186.668Z" fill="#2E2D2D"/>
<path d="M186.668 81.6652V93.3354H175.001V81.6652H186.668Z" fill="#FFFDEF"/>
<path d="M186.668 69.9983V81.6652H175.001V69.9983H186.668Z" fill="#FFFDEF"/>
<path d="M186.668 58.3347V69.9983H175.001V58.3347H186.668Z" fill="#FFFDEF"/>
<path d="M186.668 46.6677V58.3347H175.001V46.6677H186.668Z" fill="#FFFDEF"/>
<path d="M186.668 35.0009V46.6678H175.001V35.0009H186.668Z" fill="#FFFDEF"/>
<path d="M175.001 256.666V268.333H163.334V256.666H175.001Z" fill="#FFFDEF"/>
<path d="M175.001 245.002V256.666H163.334V245.002H175.001Z" fill="#FFFDEF"/>
<path d="M175.001 233.332V245.002H163.334V233.332H175.001Z" fill="#FFFDEF"/>
<path d="M175.001 221.665V233.332H163.334V221.665H175.001Z" fill="#2E2D2D"/>
<path d="M175.001 210.001V221.665H163.334V210.001H175.001Z" fill="#FFFDEF"/>
<path d="M175.001 198.331V210.001H163.334V198.331H175.001Z" fill="#FFFDEF"/>
<path d="M175.001 186.667V198.331H163.334V186.667H175.001Z" fill="#5A2E17"/>
<path d="M175.001 175.001V186.667H163.334V175.001H175.001Z" fill="#FFFDEF"/>
<path d="M175.001 163.334V175H163.334V163.334H175.001Z" fill="#FFFDEF"/>
<path d="M175.001 151.667V163.334H163.334V151.667H175.001Z" fill="#FFFDEF"/>
<path d="M175.001 140V151.667H163.334V140H175.001Z" fill="#2E2D2D"/>
<path d="M175.001 128.333V140H163.334V128.333H175.001Z" fill="#2E2D2D"/>
<path d="M175.001 116.666V128.333H163.334V116.666H175.001Z" fill="#2E2D2D"/>
<path d="M175.001 104.999V116.666H163.334V104.999H175.001Z" fill="#2E2D2D"/>
<path d="M175.001 93.3354V104.999H163.334V93.3354H175.001Z" fill="#2E2D2D"/>
<path d="M175.001 81.6652V93.3354H163.334V81.6652H175.001Z" fill="#FFFDEF"/>
<path d="M175.001 69.9983V81.6652H163.334V69.9983H175.001Z" fill="#FFFDEF"/>
<path d="M175.001 58.3347V69.9983H163.334V58.3347H175.001Z" fill="#FFFDEF"/>
<path d="M175.001 46.6677V58.3347H163.334V46.6677H175.001Z" fill="#FFFDEF"/>
<path d="M175.001 35.0009V46.6678H163.334V35.0009H175.001Z" fill="#FFFDEF"/>
<path d="M175.001 23.3339V35.0008H163.334V23.3339H175.001Z" fill="#FFFDEF"/>
<path d="M163.334 256.666V268.333H151.667V256.666H163.334Z" fill="#FFFDEF"/>
<path d="M163.334 245.002V256.666H151.667V245.002H163.334Z" fill="#FFFDEF"/>
<path d="M163.334 233.332V245.002H151.667V233.332H163.334Z" fill="#FFFDEF"/>
<path d="M163.334 221.665V233.332H151.667V221.665H163.334Z" fill="#2E2D2D"/>
<path d="M163.334 210.001V221.665H151.667V210.001H163.334Z" fill="#FFFDEF"/>
<path d="M163.334 198.331V210.001H151.667V198.331H163.334Z" fill="#5A2E17"/>
<path d="M163.334 186.667V198.331H151.667V186.667H163.334Z" fill="#5A2E17"/>
<path d="M163.334 175.001V186.667H151.667V175.001H163.334Z" fill="#5A2E17"/>
<path d="M163.334 163.334V175H151.667V163.334H163.334Z" fill="#FFFDEF"/>
<path d="M163.334 151.667V163.334H151.667V151.667H163.334Z" fill="#FFFDEF"/>
<path d="M163.334 140V151.667H151.667V140H163.334Z" fill="#FFFDEF"/>
<path d="M163.334 128.333V140H151.667V128.333H163.334Z" fill="#FFFDEF"/>
<path d="M163.334 116.666V128.333H151.667V116.666H163.334Z" fill="#FFFDEF"/>
<path d="M163.334 104.999V116.666H151.667V104.999H163.334Z" fill="#FFFDEF"/>
<path d="M163.334 93.3354V104.999H151.667V93.3354H163.334Z" fill="#FFFDEF"/>
<path d="M163.334 81.6652V93.3354H151.667V81.6652H163.334Z" fill="#FFFDEF"/>
<path d="M163.334 69.9983V81.6652H151.667V69.9983H163.334Z" fill="#FFFDEF"/>
<path d="M163.334 58.3347V69.9983H151.667V58.3347H163.334Z" fill="#FFFDEF"/>
<path d="M163.334 46.6677V58.3347H151.667V46.6677H163.334Z" fill="#FFFDEF"/>
<path d="M163.334 35.0009V46.6678H151.667V35.0009H163.334Z" fill="#FFFDEF"/>
<path d="M163.334 23.3339V35.0008H151.667V23.3339H163.334Z" fill="#FFFDEF"/>
<path d="M151.667 256.666V268.333H140V256.666H151.667Z" fill="#FFFDEF"/>
<path d="M151.667 245.002V256.666H140V245.002H151.667Z" fill="#FFFDEF"/>
<path d="M151.667 233.332V245.002H140V233.332H151.667Z" fill="#FFFDEF"/>
<path d="M151.667 221.665V233.332H140V221.665H151.667Z" fill="#2E2D2D"/>
<path d="M151.667 210.001V221.665H140V210.001H151.667Z" fill="#2E2D2D"/>
<path d="M151.667 198.331V210.001H140V198.331H151.667Z" fill="#5A2E17"/>
<path d="M151.667 186.667V198.331H140V186.667H151.667Z" fill="#5A2E17"/>
<path d="M151.667 175.001V186.667H140V175.001H151.667Z" fill="#5A2E17"/>
<path d="M151.667 163.334V175H140V163.334H151.667Z" fill="#FFFDEF"/>
<path d="M151.667 151.667V163.334H140V151.667H151.667Z" fill="#FFFDEF"/>
<path d="M151.667 140V151.667H140V140H151.667Z" fill="#FFFDEF"/>
<path d="M151.667 128.333V140H140V128.333H151.667Z" fill="#FFFDEF"/>
<path d="M151.667 116.666V128.333H140V116.666H151.667Z" fill="#FFFDEF"/>
<path d="M151.667 104.999V116.666H140V104.999H151.667Z" fill="#FFFDEF"/>
<path d="M151.667 93.3354V104.999H140V93.3354H151.667Z" fill="#FFFDEF"/>
<path d="M151.667 81.6652V93.3354H140V81.6652H151.667Z" fill="#FFFDEF"/>
<path d="M151.667 69.9983V81.6652H140V69.9983H151.667Z" fill="#FFFDEF"/>
<path d="M151.667 58.3347V69.9983H140V58.3347H151.667Z" fill="#FFFDEF"/>
<path d="M151.667 46.6677V58.3347H140V46.6677H151.667Z" fill="#FFFDEF"/>
<path d="M151.667 35.0009V46.6678H140V35.0009H151.667Z" fill="#FFFDEF"/>
<path d="M151.667 23.3339V35.0008H140V23.3339H151.667Z" fill="#FFFDEF"/>
<path d="M140 256.666V268.333H128.336V256.666H140Z" fill="#FFFDEF"/>
<path d="M140 245.002V256.666H128.336V245.002H140Z" fill="#FFFDEF"/>
<path d="M140 233.332V245.002H128.336V233.332H140Z" fill="#FFFDEF"/>
<path d="M140 221.665V233.332H128.336V221.665H140Z" fill="#2E2D2D"/>
<path d="M140 210.001V221.665H128.336V210.001H140Z" fill="#FFFDEF"/>
<path d="M140 198.331V210.001H128.336V198.331H140Z" fill="#5A2E17"/>
<path d="M140 186.667V198.331H128.336V186.667H140Z" fill="#824722"/>
<path d="M140 175.001V186.667H128.336V175.001H140Z" fill="#5A2E17"/>
<path d="M140 163.334V175H128.336V163.334H140Z" fill="#FFFDEF"/>
<path d="M140 151.667V163.334H128.336V151.667H140Z" fill="#FFFDEF"/>
<path d="M140 140V151.667H128.336V140H140Z" fill="#FFFDEF"/>
<path d="M140 128.333V140H128.336V128.333H140Z" fill="#FFFDEF"/>
<path d="M140 116.666V128.333H128.336V116.666H140Z" fill="#FFFDEF"/>
<path d="M140 104.999V116.666H128.336V104.999H140Z" fill="#FFFDEF"/>
<path d="M140 93.3354V104.999H128.336V93.3354H140Z" fill="#FFFDEF"/>
<path d="M140 81.6652V93.3354H128.336V81.6652H140Z" fill="#FFFDEF"/>
<path d="M140 69.9983V81.6652H128.336V69.9983H140Z" fill="#FFFDEF"/>
<path d="M140 58.3347V69.9983H128.336V58.3347H140Z" fill="#FFFDEF"/>
<path d="M140 46.6677V58.3347H128.336V46.6677H140Z" fill="#FFFDEF"/>
<path d="M140 35.0009V46.6678H128.336V35.0009H140Z" fill="#FFFDEF"/>
<path d="M140 23.3339V35.0008H128.336V23.3339H140Z" fill="#FFFDEF"/>
<path d="M128.336 256.666V268.333H116.666V256.666H128.336Z" fill="#FFFDEF"/>
<path d="M128.336 245.002V256.666H116.666V245.002H128.336Z" fill="#FFFDEF"/>
<path d="M128.336 233.332V245.002H116.666V233.332H128.336Z" fill="#FFFDEF"/>
<path d="M128.336 221.665V233.332H116.666V221.665H128.336Z" fill="#2E2D2D"/>
<path d="M128.336 210.001V221.665H116.666V210.001H128.336Z" fill="#FFFDEF"/>
<path d="M128.336 198.331V210.001H116.666V198.331H128.336Z" fill="#FFFDEF"/>
<path d="M128.336 186.667V198.331H116.666V186.667H128.336Z" fill="#5A2E17"/>
<path d="M128.336 175.001V186.667H116.666V175.001H128.336Z" fill="#FFFDEF"/>
<path d="M128.336 163.334V175H116.666V163.334H128.336Z" fill="#FFFDEF"/>
<path d="M128.336 151.667V163.334H116.666V151.667H128.336Z" fill="#FFFDEF"/>
<path d="M128.336 140V151.667H116.666V140H128.336Z" fill="#2E2D2D"/>
<path d="M128.336 128.333V140H116.666V128.333H128.336Z" fill="#2E2D2D"/>
<path d="M128.336 116.666V128.333H116.666V116.666H128.336Z" fill="#2E2D2D"/>
<path d="M128.336 104.999V116.666H116.666V104.999H128.336Z" fill="#2E2D2D"/>
<path d="M128.336 93.3354V104.999H116.666V93.3354H128.336Z" fill="#2E2D2D"/>
<path d="M128.336 81.6652V93.3354H116.666V81.6652H128.336Z" fill="#FFFDEF"/>
<path d="M128.336 69.9983V81.6652H116.666V69.9983H128.336Z" fill="#FFFDEF"/>
<path d="M128.336 58.3347V69.9983H116.666V58.3347H128.336Z" fill="#FFFDEF"/>
<path d="M128.336 46.6677V58.3347H116.666V46.6677H128.336Z" fill="#FFFDEF"/>
<path d="M128.336 35.0009V46.6678H116.666V35.0009H128.336Z" fill="#FFFDEF"/>
<path d="M128.336 23.3339V35.0008H116.666V23.3339H128.336Z" fill="#FFFDEF"/>
<path d="M116.666 256.666V268.333H105.002V256.666H116.666Z" fill="#D4D4D0"/>
<path d="M116.666 245.002V256.666H105.002V245.002H116.666Z" fill="#FFFDEF"/>
<path d="M116.666 233.332V245.002H105.002V233.332H116.666Z" fill="#FFFDEF"/>
<path d="M116.666 221.665V233.332H105.002V221.665H116.666Z" fill="#FFFDEF"/>
<path d="M116.666 210.001V221.665H105.002V210.001H116.666Z" fill="#2E2D2D"/>
<path d="M116.666 198.331V210.001H105.002V198.331H116.666Z" fill="#FFFDEF"/>
<path d="M116.666 186.667V198.331H105.002V186.667H116.666Z" fill="#FFFDEF"/>
<path d="M116.666 175.001V186.667H105.002V175.001H116.666Z" fill="#FFFDEF"/>
<path d="M116.666 163.334V175H105.002V163.334H116.666Z" fill="#FFFDEF"/>
<path d="M116.666 151.667V163.334H105.002V151.667H116.666Z" fill="#2E2D2D"/>
<path d="M116.666 140V151.667H105.002V140H116.666Z" fill="#2E2D2D"/>
<path d="M116.666 128.333V140H105.002V128.333H116.666Z" fill="#FFFDEF"/>
<path d="M116.666 116.666V128.333H105.002V116.666H116.666Z" fill="#2E2D2D"/>
<path d="M116.666 104.999V116.666H105.002V104.999H116.666Z" fill="#2E2D2D"/>
<path d="M116.666 93.3354V104.999H105.002V93.3354H116.666Z" fill="#2E2D2D"/>
<path d="M116.666 81.6652V93.3354H105.002V81.6652H116.666Z" fill="#FFFDEF"/>
<path d="M116.666 69.9983V81.6652H105.002V69.9983H116.666Z" fill="#FFFDEF"/>
<path d="M116.666 58.3347V69.9983H105.002V58.3347H116.666Z" fill="#FFFDEF"/>
<path d="M116.666 46.6677V58.3347H105.002V46.6677H116.666Z" fill="#FFFDEF"/>
<path d="M116.666 35.0009V46.6678H105.002V35.0009H116.666Z" fill="#FFFDEF"/>
<path d="M116.666 23.3339V35.0008H105.002V23.3339H116.666Z" fill="#FFFDEF"/>
<path d="M105.002 256.666V268.333H93.3352V256.666H105.002Z" fill="#FFFDEF"/>
<path d="M105.002 245.002V256.666H93.3352V245.002H105.002Z" fill="#D4D4D0"/>
<path d="M105.002 233.332V245.002H93.3352V233.332H105.002Z" fill="#FFFDEF"/>
<path d="M105.002 221.665V233.332H93.3352V221.665H105.002Z" fill="#FFFDEF"/>
<path d="M105.002 210.001V221.665H93.3352V210.001H105.002Z" fill="#FFFDEF"/>
<path d="M105.002 198.331V210.001H93.3352V198.331H105.002Z" fill="#FFFDEF"/>
<path d="M105.002 186.667V198.331H93.3352V186.667H105.002Z" fill="#FFFDEF"/>
<path d="M105.002 175.001V186.667H93.3352V175.001H105.002Z" fill="#FFFDEF"/>
<path d="M105.002 163.334V175H93.3352V163.334H105.002Z" fill="#2E2D2D"/>
<path d="M105.002 151.667V163.334H93.3352V151.667H105.002Z" fill="#2E2D2D"/>
<path d="M105.002 140V151.667H93.3352V140H105.002Z" fill="#2E2D2D"/>
<path d="M105.002 128.333V140H93.3352V128.333H105.002Z" fill="#2E2D2D"/>
<path d="M105.002 116.666V128.333H93.3352V116.666H105.002Z" fill="#FFFDEF"/>
<path d="M105.002 104.999V116.666H93.3352V104.999H105.002Z" fill="#2E2D2D"/>
<path d="M105.002 93.3354V104.999H93.3352V93.3354H105.002Z" fill="#2E2D2D"/>
<path d="M105.002 81.6652V93.3354H93.3352V81.6652H105.002Z" fill="#FFFDEF"/>
<path d="M105.002 69.9983V81.6652H93.3352V69.9983H105.002Z" fill="#FFFDEF"/>
<path d="M105.002 58.3347V69.9983H93.3352V58.3347H105.002Z" fill="#FFFDEF"/>
<path d="M105.002 46.6677V58.3347H93.3352V46.6677H105.002Z" fill="#FFFDEF"/>
<path d="M105.002 35.0009V46.6678H93.3352V35.0009H105.002Z" fill="#FFFDEF"/>
<path d="M105.002 23.3339V35.0008H93.3352V23.3339H105.002Z" fill="#302F2F"/>
<path d="M93.3353 256.666V268.333H81.665V256.666H93.3353Z" fill="#FFFDEF"/>
<path d="M93.3353 245.002V256.666H81.665V245.002H93.3353Z" fill="#D4D4D0"/>
<path d="M93.3353 233.332V245.002H81.665V233.332H93.3353Z" fill="#FFFDEF"/>
<path d="M93.3353 221.665V233.332H81.665V221.665H93.3353Z" fill="#FFFDEF"/>
<path d="M93.3353 210.001V221.665H81.665V210.001H93.3353Z" fill="#FFFDEF"/>
<path d="M93.3353 198.331V210.001H81.665V198.331H93.3353Z" fill="#FFFDEF"/>
<path d="M93.3353 186.667V198.331H81.665V186.667H93.3353Z" fill="#FFFDEF"/>
<path d="M93.3353 175.001V186.667H81.665V175.001H93.3353Z" fill="#2E2D2D"/>
<path d="M93.3353 163.334V175H81.665V163.334H93.3353Z" fill="#2E2D2D"/>
<path d="M93.3353 151.667V163.334H81.665V151.667H93.3353Z" fill="#2E2D2D"/>
<path d="M93.3353 140V151.667H81.665V140H93.3353Z" fill="#2E2D2D"/>
<path d="M93.3353 128.333V140H81.665V128.333H93.3353Z" fill="#FFFDEF"/>
<path d="M93.3353 116.666V128.333H81.665V116.666H93.3353Z" fill="#2E2D2D"/>
<path d="M93.3353 104.999V116.666H81.665V104.999H93.3353Z" fill="#2E2D2D"/>
<path d="M93.3353 93.3354V104.999H81.665V93.3321L93.3353 93.3354Z" fill="#FFFDEF"/>
<path d="M93.3353 81.6652V93.3354L81.665 93.3321V81.6652H93.3353Z" fill="#FFFDEF"/>
<path d="M93.3353 69.9983V81.6652H81.665V69.9983H93.3353Z" fill="#FFFDEF"/>
<path d="M93.3353 58.3347V69.9983H81.665L81.6683 58.3347H93.3353Z" fill="#FFFDEF"/>
<path d="M93.3354 46.6677V58.3347H81.6685V46.6677H93.3354Z" fill="#FFFDEF"/>
<path d="M93.3354 35.0009V46.6678H81.6685V35.0009H93.3354Z" fill="#FFFDEF"/>
<path d="M93.3354 23.3339V35.0008H81.6685V23.3339H93.3354Z" fill="#302F2F"/>
<path d="M93.3354 11.6669V23.3339H81.6685V11.6669H93.3354Z" fill="#494A4B"/>
<path d="M81.6686 46.6677V58.3347H70.0017V46.6677H81.6686Z" fill="#FFFDEF"/>
<path d="M81.6686 35.0009V46.6678H70.0017V35.0009H81.6686Z" fill="#302F2F"/>
<path d="M81.6686 23.3339V35.0008H70.0017V23.3339H81.6686Z" fill="#302F2F"/>
<path d="M81.6686 11.6669V23.3339H70.0017V11.6669H81.6686Z" fill="#494A4B"/>
<path d="M81.6686 7.72476e-05V11.667H70.0017V7.72476e-05H81.6686Z" fill="#494A4B"/>
<path d="M81.6686 58.3347L81.6653 69.9983H70.0017V58.3347H81.6686Z" fill="#FFFDEF"/>
<path d="M81.6653 245.002V256.666H70.0017V245.002H81.6653Z" fill="#FFFDEF"/>
<path d="M81.6653 233.332V245.002H70.0017V233.332H81.6653Z" fill="#D4D4D0"/>
<path d="M81.6653 221.665V233.332H70.0017V221.665H81.6653Z" fill="#FFFDEF"/>
<path d="M81.6653 210.001V221.665H70.0017V210.001H81.6653Z" fill="#FFFDEF"/>
<path d="M81.6653 198.331V210.001H70.0017V198.331H81.6653Z" fill="#FFFDEF"/>
<path d="M81.6653 186.667V198.331H70.0017V186.667H81.6653Z" fill="#FFFDEF"/>
<path d="M81.6653 175.001V186.667H70.0017V175.001H81.6653Z" fill="#2E2D2D"/>
<path d="M81.6653 163.334V175H70.0017V163.334H81.6653Z" fill="#2E2D2D"/>
<path d="M81.6653 151.667V163.334H70.0017V151.667H81.6653Z" fill="#2E2D2D"/>
<path d="M81.6653 140V151.667H70.0017V140H81.6653Z" fill="#2E2D2D"/>
<path d="M81.6653 128.333V140H70.0017V128.333H81.6653Z" fill="#2E2D2D"/>
<path d="M81.6653 116.666V128.333H70.0017V116.666H81.6653Z" fill="#2E2D2D"/>
<path d="M81.6653 104.999V116.666H70.0017V104.999H81.6653Z" fill="#FFFDEF"/>
<path d="M81.6653 93.3321V104.999H70.0017V93.3321H81.6653Z" fill="#FFFDEF"/>
<path d="M81.6653 81.6652V93.3321H70.0017V81.6652H81.6653Z" fill="#FFFDEF"/>
<path d="M81.6653 69.9983V81.6652H70.0017V69.9983H81.6653Z" fill="#FFFDEF"/>
<path d="M70.0016 245.002V256.666H58.3347V245.002H70.0016Z" fill="#D4D4D0"/>
<path d="M70.0016 233.332V245.002H58.3347V233.332H70.0016Z" fill="#FFFDEF"/>
<path d="M70.0016 221.665V233.332H58.3347V221.665H70.0016Z" fill="#D4D4D0"/>
<path d="M70.0016 210.001V221.665H58.3347V210.001H70.0016Z" fill="#FFFDEF"/>
<path d="M70.0016 198.331V210.001H58.3347V198.331H70.0016Z" fill="#FFFDEF"/>
<path d="M70.0016 186.667V198.331H58.3347V186.667H70.0016Z" fill="#FFFDEF"/>
<path d="M70.0016 175.001V186.667H58.3347V175.001H70.0016Z" fill="#FFFDEF"/>
<path d="M70.0016 163.334V175H58.3347V163.334H70.0016Z" fill="#2E2D2D"/>
<path d="M70.0016 151.667V163.334H58.3347V151.667H70.0016Z" fill="#2E2D2D"/>
<path d="M70.0016 140V151.667H58.3347V140H70.0016Z" fill="#2E2D2D"/>
<path d="M70.0016 128.333V140H58.3347V128.333H70.0016Z" fill="#2E2D2D"/>
<path d="M70.0016 116.666V128.333H58.3347V116.666H70.0016Z" fill="#FFFDEF"/>
<path d="M70.0016 104.999V116.666H58.3347V104.999H70.0016Z" fill="#FFFDEF"/>
<path d="M70.0016 93.3321V104.999H58.3347V93.3321H70.0016Z" fill="#FFFDEF"/>
<path d="M70.0016 81.6652V93.3321H58.3347V81.6652H70.0016Z" fill="#FFFDEF"/>
<path d="M70.0016 69.9983V81.6652H58.3347V69.9983H70.0016Z" fill="#FFFDEF"/>
<path d="M70.0016 58.3347V69.9983H58.3347V58.3347H70.0016Z" fill="#FFFDEF"/>
<path d="M70.0016 46.6677V58.3347H58.3347V46.6677H70.0016Z" fill="#FFFDEF"/>
<path d="M70.0016 35.0009V46.6678H58.3347V35.0009H70.0016Z" fill="#302F2F"/>
<path d="M70.0016 23.3339V35.0008H58.3347V23.3339H70.0016Z" fill="#302F2F"/>
<path d="M70.0016 11.6669V23.3339H58.3347V11.6669H70.0016Z" fill="#494A4B"/>
<path d="M70.0016 7.72476e-05V11.667H58.3347V7.72476e-05H70.0016Z" fill="#747576"/>
<path d="M58.3346 233.332V245.002H46.6677V233.332H58.3346Z" fill="#D4D4D0"/>
<path d="M58.3346 221.665V233.332H46.6677V221.665H58.3346Z" fill="#FFFDEF"/>
<path d="M58.3346 210.001V221.665H46.6677V210.001H58.3346Z" fill="#D4D4D0"/>
<path d="M58.3346 198.331V210.001H46.6677V198.331H58.3346Z" fill="#D4D4D0"/>
<path d="M58.3346 186.667V198.331H46.6677V186.667H58.3346Z" fill="#FFFDEF"/>
<path d="M58.3346 175.001V186.667H46.6677V175.001H58.3346Z" fill="#FFFDEF"/>
<path d="M58.3346 163.334V175H46.6677V163.334H58.3346Z" fill="#FFFDEF"/>
<path d="M58.3346 151.667V163.334H46.6677V151.667H58.3346Z" fill="#2E2D2D"/>
<path d="M58.3346 140V151.667H46.6677V140H58.3346Z" fill="#2E2D2D"/>
<path d="M58.3346 128.333V140H46.6677V128.333H58.3346Z" fill="#2E2D2D"/>
<path d="M58.3346 116.666V128.333H46.6677V116.666H58.3346Z" fill="#FFFDEF"/>
<path d="M58.3346 104.999V116.666H46.6677V104.999H58.3346Z" fill="#FFFDEF"/>
<path d="M58.3346 93.3321V104.999H46.6677V93.3321H58.3346Z" fill="#FFFDEF"/>
<path d="M58.3346 81.6652V93.3321H46.6677V81.6652H58.3346Z" fill="#FFFDEF"/>
<path d="M58.3346 69.9983V81.6652H46.6677V69.9983H58.3346Z" fill="#FFFDEF"/>
<path d="M58.3346 58.3347V69.9983H46.6677V58.3347H58.3346Z" fill="#FFFDEF"/>
<path d="M58.3346 46.6677V58.3347H46.6677V46.6677H58.3346Z" fill="#302F2F"/>
<path d="M58.3346 35.0009V46.6678H46.6677V35.0009H58.3346Z" fill="#302F2F"/>
<path d="M58.3346 23.3339V35.0008H46.6677V23.3339H58.3346Z" fill="#494A4B"/>
<path d="M58.3346 11.6669V23.3339H46.6677V11.6669H58.3346Z" fill="#494A4B"/>
<path d="M58.3346 7.72476e-05V11.667H46.6677V7.72476e-05H58.3346Z" fill="#747576"/>
<path d="M46.6676 221.665V233.332H35.0007V221.665H46.6676Z" fill="#D4D4D0"/>
<path d="M46.6676 210.001V221.665H35.0007V210.001H46.6676Z" fill="#D4D4D0"/>
<path d="M46.6676 198.331V210.001H35.0007V198.331H46.6676Z" fill="#FFFDEF"/>
<path d="M46.6676 186.667V198.331H35.0007V186.667H46.6676Z" fill="#D4D4D0"/>
<path d="M46.6676 175.001V186.667H35.0007V175.001H46.6676Z" fill="#FFFDEF"/>
<path d="M46.6676 163.334V175H35.0007V163.334H46.6676Z" fill="#FFFDEF"/>
<path d="M46.6676 151.667V163.334H35.0007V151.667H46.6676Z" fill="#D4D4D0"/>
<path d="M46.6676 140V151.667H35.0007V140H46.6676Z" fill="#FFFDEF"/>
<path d="M46.6676 128.333V140H35.0007V128.333H46.6676Z" fill="#FFFDEF"/>
<path d="M46.6676 116.666V128.333H35.0007V116.666H46.6676Z" fill="#FFFDEF"/>
<path d="M46.6676 104.999V116.666H35.0007V104.999H46.6676Z" fill="#FFFDEF"/>
<path d="M46.6676 93.3321V104.999H35.0007V93.3321H46.6676Z" fill="#FFFDEF"/>
<path d="M46.6676 81.6652V93.3321H35.0007V81.6652H46.6676Z" fill="#FFFDEF"/>
<path d="M46.6676 69.9983V81.6652H35.0007V69.9983H46.6676Z" fill="#FFFDEF"/>
<path d="M46.6676 58.3347V69.9983H35.0007V58.3347H46.6676Z" fill="#302F2F"/>
<path d="M46.6676 46.6677V58.3347H35.0007V46.6677H46.6676Z" fill="#302F2F"/>
<path d="M46.6676 35.0009V46.6678H35.0007V35.0009H46.6676Z" fill="#494A4B"/>
<path d="M46.6676 23.3339V35.0008H35.0007V23.3339H46.6676Z" fill="#494A4B"/>
<path d="M46.6676 11.6669V23.3339H35.0007V11.6669H46.6676Z" fill="#747576"/>
<path d="M35.0007 210.001V221.665H23.3337V210.001H35.0007Z" fill="#D4D4D0"/>
<path d="M35.0007 198.331V210.001H23.3337V198.331H35.0007Z" fill="#D4D4D0"/>
<path d="M35.0007 186.667V198.331H23.3337V186.667H35.0007Z" fill="#FFFDEF"/>
<path d="M35.0007 175.001V186.667H23.3337V175.001H35.0007Z" fill="#D4D4D0"/>
<path d="M35.0007 163.334V175H23.3337V163.334H35.0007Z" fill="#D4D4D0"/>
<path d="M35.0007 151.667V163.334H23.3337V151.667H35.0007Z" fill="#FFFDEF"/>
<path d="M35.0007 140V151.667H23.3337V140H35.0007Z" fill="#D4D4D0"/>
<path d="M35.0007 128.333V140H23.3337V128.333H35.0007Z" fill="#FFFDEF"/>
<path d="M35.0007 116.666V128.333H23.3337V116.666H35.0007Z" fill="#D4D4D0"/>
<path d="M35.0007 104.999V116.666H23.3337V104.999H35.0007Z" fill="#FFFDEF"/>
<path d="M35.0007 93.3321V104.999H23.3337V93.3321H35.0007Z" fill="#FFFDEF"/>
<path d="M35.0007 81.6652V93.3321H23.3337V81.6652H35.0007Z" fill="#302F2F"/>
<path d="M35.0007 69.9983V81.6652H23.3337V69.9983H35.0007Z" fill="#302F2F"/>
<path d="M35.0007 58.3347V69.9983H23.3337V58.3347H35.0007Z" fill="#302F2F"/>
<path d="M35.0007 46.6677V58.3347H23.3337V46.6677H35.0007Z" fill="#302F2F"/>
<path d="M35.0007 35.0009V46.6678H23.3337V35.0009H35.0007Z" fill="#494A4B"/>
<path d="M35.0007 23.3339V35.0008H23.3337V23.3339H35.0007Z" fill="#494A4B"/>
<path d="M35.0007 11.6669V23.3339H23.3337V11.6669H35.0007Z" fill="#494A4B"/>
<path d="M23.3338 175.001V186.667H11.6702V175.001H23.3338Z" fill="#D4D4D0"/>
<path d="M23.3338 163.334V175H11.6702V163.334H23.3338Z" fill="#D4D4D0"/>
<path d="M23.3338 151.667V163.334H11.6702V151.667H23.3338Z" fill="#D4D4D0"/>
<path d="M23.3338 140V151.667H11.6702V140H23.3338Z" fill="#FFFDEF"/>
<path d="M23.3338 128.333V140H11.6702V128.333H23.3338Z" fill="#D4D4D0"/>
<path d="M23.3338 116.666V128.333H11.6702V116.666H23.3338Z" fill="#FFFDEF"/>
<path d="M23.3338 81.6652V93.3321H11.6702V81.6652H23.3338Z" fill="#302F2F"/>
<path d="M23.3338 69.9983V81.6652H11.6702V69.9983H23.3338Z" fill="#302F2F"/>
<path d="M23.3338 58.3347V69.9983H11.6702V58.3347H23.3338Z" fill="#302F2F"/>
<path d="M23.3338 46.6677V58.3347H11.6702V46.6677H23.3338Z" fill="#302F2F"/>
<path d="M23.3338 35.0009V46.6678H11.6702V35.0009H23.3338Z" fill="#302F2F"/>
<path d="M23.3338 23.3339V35.0008H11.6702V23.3339H23.3338Z" fill="#302F2F"/>
<path d="M11.6702 69.9983V81.6652H0V69.9983H11.6702Z" fill="#302F2F"/>
<path d="M11.6702 58.3347V69.9983H0V58.3347H11.6702Z" fill="#302F2F"/>
<path d="M11.6702 46.6677V58.3347H0V46.6677H11.6702Z" fill="#302F2F"/>
<path d="M11.6702 35.0009V46.6678H0V35.0009H11.6702Z" fill="#302F2F"/>
</svg>
