<svg width="160" height="154" viewBox="0 0 160 154" fill="none" xmlns="http://www.w3.org/2000/svg">
<path d="M160 39.999V46.6658H153.333V39.999H160Z" fill="#494A4B"/>
<path d="M160 33.334V39.999H153.333V33.334H160Z" fill="#747576"/>
<path d="M160 26.6672V33.334H153.333V26.6672H160Z" fill="#747576"/>
<path d="M153.333 100V106.667H146.668V100H153.333Z" fill="#FFFDEF"/>
<path d="M153.333 93.3334V100H146.668V93.3334H153.333Z" fill="#FFFDEF"/>
<path d="M153.333 86.6667V93.3335H146.668V86.6667H153.333Z" fill="#FFFDEF"/>
<path d="M153.333 79.9998V86.6666H146.668V79.9998H153.333Z" fill="#FFFDEF"/>
<path d="M153.333 73.333V79.9998H146.668V73.333H153.333Z" fill="#FFFDEF"/>
<path d="M153.333 66.6662V73.333H146.668V66.6662H153.333Z" fill="#FFFDEF"/>
<path d="M153.333 46.6658V53.3345H146.668V46.6658H153.333Z" fill="#494A4B"/>
<path d="M153.333 39.999V46.6658H146.668V39.999H153.333Z" fill="#494A4B"/>
<path d="M153.333 33.334V39.999H146.668V33.334H153.333Z" fill="#494A4B"/>
<path d="M153.333 26.6672V33.334H146.668V26.6672H153.333Z" fill="#494A4B"/>
<path d="M153.333 20.0004V26.6672H146.668V20.0004H153.333Z" fill="#494A4B"/>
<path d="M153.333 13.3336V20.0004H146.668V13.3336H153.333Z" fill="#747576"/>
<path d="M146.668 120.001V126.666H140.001V120.001H146.668Z" fill="#FFFDEF"/>
<path d="M146.668 113.332V120.001H140.001V113.332H146.668Z" fill="#FFFDEF"/>
<path d="M146.668 106.667V113.332H140.001V106.667H146.668Z" fill="#FFFDEF"/>
<path d="M146.668 100V106.667H140.001V100H146.668Z" fill="#FFFDEF"/>
<path d="M146.668 93.3334V100H140.001V93.3334H146.668Z" fill="#FFFDEF"/>
<path d="M146.668 86.6667V93.3335H140.001V86.6667H146.668Z" fill="#FFFDEF"/>
<path d="M146.668 79.9998V86.6666H140.001V79.9998H146.668Z" fill="#FFFDEF"/>
<path d="M146.668 73.333V79.9998H140.001V73.333H146.668Z" fill="#FFFDEF"/>
<path d="M146.668 66.6662V73.333H140.001V66.6662H146.668Z" fill="#FFFDEF"/>
<path d="M146.668 59.9994V66.6662H140.001V59.9994H146.668Z" fill="#FFFDEF"/>
<path d="M146.668 53.3345V59.9994H140.001V53.3345H146.668Z" fill="#FFFDEF"/>
<path d="M146.668 46.6658V53.3345H140.001V46.6658H146.668Z" fill="#302F2F"/>
<path d="M146.668 39.999V46.6658H140.001V39.999H146.668Z" fill="#302F2F"/>
<path d="M146.668 33.334V39.999H140.001V33.334H146.668Z" fill="#494A4B"/>
<path d="M146.668 26.6672V33.334H140.001V26.6672H146.668Z" fill="#494A4B"/>
<path d="M146.668 20.0004V26.6672H140.001V20.0004H146.668Z" fill="#494A4B"/>
<path d="M146.668 13.3336V20.0004H140.001V13.3336H146.668Z" fill="#494A4B"/>
<path d="M146.668 6.66681V13.3336H140.001V6.66681H146.668Z" fill="#747576"/>
<path d="M140.002 126.666V133.332H133.335V126.666H140.002Z" fill="#FFFDEF"/>
<path d="M140.002 120.001V126.666H133.335V120.001H140.002Z" fill="#FFFDEF"/>
<path d="M140.002 113.332V120.001H133.335V113.332H140.002Z" fill="#FFFDEF"/>
<path d="M140.002 106.667V113.332H133.335V106.667H140.002Z" fill="#FFFDEF"/>
<path d="M140.002 100V106.667H133.335V100H140.002Z" fill="#FFFDEF"/>
<path d="M140.002 93.3334V100H133.335V93.3334H140.002Z" fill="#FFFDEF"/>
<path d="M140.002 86.6667V93.3335H133.335V86.6667H140.002Z" fill="#2E2D2D"/>
<path d="M140.002 79.9998V86.6666H133.335V79.9998H140.002Z" fill="#2E2D2D"/>
<path d="M140.002 73.333V79.9998H133.335V73.333H140.002Z" fill="#2E2D2D"/>
<path d="M140.002 66.6662V73.333H133.335V66.6662H140.002Z" fill="#FFFDEF"/>
<path d="M140.002 59.9994V66.6662H133.335V59.9994H140.002Z" fill="#FFFDEF"/>
<path d="M140.002 53.3345V59.9994H133.335V53.3345H140.002Z" fill="#FFFDEF"/>
<path d="M140.002 46.6658V53.3345H133.335V46.6658H140.002Z" fill="#FFFDEF"/>
<path d="M140.002 39.999V46.6658H133.335V39.999H140.002Z" fill="#FFFDEF"/>
<path d="M140.002 33.334V39.999H133.335V33.334H140.002Z" fill="#302F2F"/>
<path d="M140.002 26.6672V33.334H133.335V26.6672H140.002Z" fill="#494A4B"/>
<path d="M140.002 20.0004V26.6672H133.335V20.0004H140.002Z" fill="#494A4B"/>
<path d="M140.002 13.3336V20.0004H133.335V13.3336H140.002Z" fill="#494A4B"/>
<path d="M140.002 6.66681V13.3336H133.335V6.66681H140.002Z" fill="#747576"/>
<path d="M133.335 133.332V140.001H126.668V133.332H133.335Z" fill="#FFFDEF"/>
<path d="M133.335 126.666V133.332H126.668V126.666H133.335Z" fill="#FFFDEF"/>
<path d="M133.335 120.001V126.666H126.668V120.001H133.335Z" fill="#FFFDEF"/>
<path d="M133.335 113.332V120.001H126.668V113.332H133.335Z" fill="#FFFDEF"/>
<path d="M133.335 106.667V113.332H126.668V106.667H133.335Z" fill="#FFFDEF"/>
<path d="M133.335 100V106.667H126.668V100H133.335Z" fill="#FFFDEF"/>
<path d="M133.335 93.3334V100H126.668V93.3334H133.335Z" fill="#2E2D2D"/>
<path d="M133.335 86.6667V93.3335H126.668V86.6667H133.335Z" fill="#2E2D2D"/>
<path d="M133.335 79.9998V86.6666H126.668V79.9998H133.335Z" fill="#2E2D2D"/>
<path d="M133.335 73.333V79.9998H126.668V73.333H133.335Z" fill="#2E2D2D"/>
<path d="M133.335 66.6662V73.333H126.668V66.6662H133.335Z" fill="#FFFDEF"/>
<path d="M133.335 59.9994V66.6662H126.668V59.9994H133.335Z" fill="#FFFDEF"/>
<path d="M133.335 53.3345V59.9994H126.668V53.3345H133.335Z" fill="#FFFDEF"/>
<path d="M133.335 46.6658V53.3345H126.668V46.6658H133.335Z" fill="#FFFDEF"/>
<path d="M133.335 39.999V46.6658H126.668V39.999H133.335Z" fill="#FFFDEF"/>
<path d="M133.335 33.334V39.999H126.668V33.334H133.335Z" fill="#FFFDEF"/>
<path d="M133.335 26.6672V33.334H126.668V26.6672H133.335Z" fill="#302F2F"/>
<path d="M133.335 20.0004V26.6672H126.668V20.0004H133.335Z" fill="#494A4B"/>
<path d="M133.335 13.3336V20.0004H126.668V13.3336H133.335Z" fill="#494A4B"/>
<path d="M133.335 6.66681V13.3336H126.668V6.66681H133.335Z" fill="#747576"/>
<path d="M126.668 140.001V146.666H120.001V140.001H126.668Z" fill="#FFFDEF"/>
<path d="M126.668 133.332V140.001H120.001V133.332H126.668Z" fill="#FFFDEF"/>
<path d="M126.668 126.666V133.332H120.001V126.666H126.668Z" fill="#FFFDEF"/>
<path d="M126.668 120.001V126.666H120.001V120.001H126.668Z" fill="#FFFDEF"/>
<path d="M126.668 113.332V120.001H120.001V113.332H126.668Z" fill="#FFFDEF"/>
<path d="M126.668 106.667V113.332H120.001V106.667H126.668Z" fill="#FFFDEF"/>
<path d="M126.668 100V106.667H120.001V100H126.668Z" fill="#2E2D2D"/>
<path d="M126.668 93.3334V100H120.001V93.3334H126.668Z" fill="#2E2D2D"/>
<path d="M126.668 86.6667V93.3335H120.001V86.6667H126.668Z" fill="#2E2D2D"/>
<path d="M126.668 79.9998V86.6666H120.001V79.9998H126.668Z" fill="#2E2D2D"/>
<path d="M126.668 73.333V79.9998H120.001V73.333H126.668Z" fill="#2E2D2D"/>
<path d="M126.668 66.6662V73.333H120.001V66.6662H126.668Z" fill="#2E2D2D"/>
<path d="M126.668 59.9994V66.6662H120.001V59.9994H126.668Z" fill="#FFFDEF"/>
<path d="M126.668 53.3345V59.9994H120.001V53.3345H126.668Z" fill="#FFFDEF"/>
<path d="M126.668 46.6658V53.3345H120.001V46.6658H126.668Z" fill="#FFFDEF"/>
<path d="M126.668 39.999V46.6658H120.001V39.999H126.668Z" fill="#FFFDEF"/>
<path d="M126.668 33.334V39.999H120.001V33.334H126.668Z" fill="#FFFDEF"/>
<path d="M126.668 26.6672V33.334H120.001V26.6672H126.668Z" fill="#FFFDEF"/>
<path d="M126.668 20.0004V26.6672H120.001V20.0004H126.668Z" fill="#302F2F"/>
<path d="M126.668 13.3336V20.0004H120.001V13.3336H126.668Z" fill="#494A4B"/>
<path d="M126.668 6.66681V13.3336H120.001V6.66681H126.668Z" fill="#494A4B"/>
<path d="M120.001 140.001V146.666H113.334V140.001H120.001Z" fill="#FFFDEF"/>
<path d="M120.001 133.332V140.001H113.334V133.332H120.001Z" fill="#FFFDEF"/>
<path d="M120.001 126.666V133.332H113.334V126.666H120.001Z" fill="#FFFDEF"/>
<path d="M120.001 120.001V126.666H113.334V120.001H120.001Z" fill="#FFFDEF"/>
<path d="M120.001 113.332V120.001H113.334V113.332H120.001Z" fill="#FFFDEF"/>
<path d="M120.001 106.667V113.332H113.334V106.667H120.001Z" fill="#FFFDEF"/>
<path d="M120.001 100V106.667H113.334V100H120.001Z" fill="#2E2D2D"/>
<path d="M120.001 93.3334V100H113.334V93.3334H120.001Z" fill="#2E2D2D"/>
<path d="M120.001 86.6667V93.3335H113.334V86.6667H120.001Z" fill="#2E2D2D"/>
<path d="M120.001 79.9998V86.6666H113.334V79.9998H120.001Z" fill="#2E2D2D"/>
<path d="M120.001 73.333V79.9998H113.334V73.333H120.001Z" fill="#FFFDEF"/>
<path d="M120.001 66.6662V73.333H113.334V66.6662H120.001Z" fill="#2E2D2D"/>
<path d="M120.001 59.9994V66.6662H113.334V59.9994H120.001Z" fill="#2E2D2D"/>
<path d="M120.001 53.3345V59.9994H113.334V53.3345H120.001Z" fill="#FFFDEF"/>
<path d="M120.001 46.6658V53.3345H113.334V46.6658H120.001Z" fill="#FFFDEF"/>
<path d="M120.001 39.999V46.6658H113.334V39.999H120.001Z" fill="#FFFDEF"/>
<path d="M120.001 33.334V39.999H113.334V33.334H120.001Z" fill="#FFFDEF"/>
<path d="M120.001 26.6672V33.334H113.334V26.6672H120.001Z" fill="#FFFDEF"/>
<path d="M120.001 20.0004V26.6672H113.334V20.0004H120.001Z" fill="#302F2F"/>
<path d="M120.001 13.3336V20.0004H113.334V13.3336H120.001Z" fill="#494A4B"/>
<path d="M113.334 146.666V153.333H106.667V146.666H113.334Z" fill="#FFFDEF"/>
<path d="M113.334 140.001V146.666H106.667V140.001H113.334Z" fill="#FFFDEF"/>
<path d="M113.334 133.332V140.001H106.667V133.332H113.334Z" fill="#FFFDEF"/>
<path d="M113.334 126.666V133.332H106.667V126.666H113.334Z" fill="#FFFDEF"/>
<path d="M113.334 120.001V126.666H106.667V120.001H113.334Z" fill="#FFFDEF"/>
<path d="M113.334 113.332V120.001H106.667V113.332H113.334Z" fill="#FFFDEF"/>
<path d="M113.334 106.667V113.332H106.667V106.667H113.334Z" fill="#FFFDEF"/>
<path d="M113.334 100V106.667H106.667V100H113.334Z" fill="#FFFDEF"/>
<path d="M113.334 93.3334V100H106.667V93.3334H113.334Z" fill="#2E2D2D"/>
<path d="M113.334 86.6667V93.3335H106.667V86.6667H113.334Z" fill="#2E2D2D"/>
<path d="M113.334 79.9998V86.6666H106.667V79.9998H113.334Z" fill="#2E2D2D"/>
<path d="M113.334 73.333V79.9998H106.667V73.333H113.334Z" fill="#2E2D2D"/>
<path d="M113.334 66.6662V73.333H106.667V66.6662H113.334Z" fill="#FFFDEF"/>
<path d="M113.334 59.9994V66.6662H106.667V59.9994H113.334Z" fill="#2E2D2D"/>
<path d="M113.334 53.3345V59.9994H106.667V53.3345H113.334Z" fill="#2E2D2D"/>
<path d="M113.334 46.6658V53.3345H106.667V46.6658H113.334Z" fill="#FFFDEF"/>
<path d="M113.334 39.999V46.6658H106.667V39.999H113.334Z" fill="#FFFDEF"/>
<path d="M113.334 33.334V39.999H106.667V33.334H113.334Z" fill="#FFFDEF"/>
<path d="M113.334 26.6672V33.334H106.667V26.6672H113.334Z" fill="#FFFDEF"/>
<path d="M113.334 20.0004V26.6672H106.667V20.0004H113.334Z" fill="#FFFDEF"/>
<path d="M106.667 146.666V153.333H100.001V146.666H106.667Z" fill="#FFFDEF"/>
<path d="M106.667 140.001V146.666H100.001V140.001H106.667Z" fill="#FFFDEF"/>
<path d="M106.667 133.332V140.001H100.001V133.332H106.667Z" fill="#FFFDEF"/>
<path d="M106.667 126.666V133.332H100.001V126.666H106.667Z" fill="#FFFDEF"/>
<path d="M106.667 120.001V126.666H100.001V120.001H106.667Z" fill="#2E2D2D"/>
<path d="M106.667 113.332V120.001H100.001V113.332H106.667Z" fill="#FFFDEF"/>
<path d="M106.667 106.667V113.332H100.001V106.667H106.667Z" fill="#FFFDEF"/>
<path d="M106.667 100V106.667H100.001V100H106.667Z" fill="#FFFDEF"/>
<path d="M106.667 93.3334V100H100.001V93.3334H106.667Z" fill="#FFFDEF"/>
<path d="M106.667 86.6667V93.3335H100.001V86.6667H106.667Z" fill="#2E2D2D"/>
<path d="M106.667 79.9998V86.6666H100.001V79.9998H106.667Z" fill="#2E2D2D"/>
<path d="M106.667 73.333V79.9998H100.001V73.333H106.667Z" fill="#FFFDEF"/>
<path d="M106.667 66.6662V73.333H100.001V66.6662H106.667Z" fill="#2E2D2D"/>
<path d="M106.667 59.9994V66.6662H100.001V59.9994H106.667Z" fill="#2E2D2D"/>
<path d="M106.667 53.3345V59.9994H100.001V53.3345H106.667Z" fill="#2E2D2D"/>
<path d="M106.667 46.6658V53.3345H100.001V46.6658H106.667Z" fill="#FFFDEF"/>
<path d="M106.667 39.999V46.6658H100.001V39.999H106.667Z" fill="#FFFDEF"/>
<path d="M106.667 33.334V39.999H100.001V33.334H106.667Z" fill="#FFFDEF"/>
<path d="M106.667 26.6672V33.334H100.001V26.6672H106.667Z" fill="#FFFDEF"/>
<path d="M106.667 20.0004V26.6672H100.001V20.0004H106.667Z" fill="#FFFDEF"/>
<path d="M100.001 146.666V153.333H93.3339V146.666H100.001Z" fill="#FFFDEF"/>
<path d="M100.001 140.001V146.666H93.3339V140.001H100.001Z" fill="#FFFDEF"/>
<path d="M100.001 133.332V140.001H93.3339V133.332H100.001Z" fill="#FFFDEF"/>
<path d="M100.001 126.666V133.332H93.3339V126.666H100.001Z" fill="#2E2D2D"/>
<path d="M100.001 120.001V126.666H93.3339V120.001H100.001Z" fill="#FFFDEF"/>
<path d="M100.001 113.332V120.001H93.3339V113.332H100.001Z" fill="#FFFDEF"/>
<path d="M100.001 106.667V113.332H93.3339V106.667H100.001Z" fill="#5A2E17"/>
<path d="M100.001 100V106.667H93.3339V100H100.001Z" fill="#FFFDEF"/>
<path d="M100.001 93.3334V100H93.3339V93.3334H100.001Z" fill="#FFFDEF"/>
<path d="M100.001 86.6667V93.3335H93.3339V86.6667H100.001Z" fill="#FFFDEF"/>
<path d="M100.001 79.9998V86.6666H93.3339V79.9998H100.001Z" fill="#2E2D2D"/>
<path d="M100.001 73.333V79.9998H93.3339V73.333H100.001Z" fill="#2E2D2D"/>
<path d="M100.001 66.6662V73.333H93.3339V66.6662H100.001Z" fill="#2E2D2D"/>
<path d="M100.001 59.9994V66.6662H93.3339V59.9994H100.001Z" fill="#2E2D2D"/>
<path d="M100.001 53.3345V59.9994H93.3339V53.3345H100.001Z" fill="#2E2D2D"/>
<path d="M100.001 46.6658V53.3345H93.3339V46.6658H100.001Z" fill="#FFFDEF"/>
<path d="M100.001 39.999V46.6658H93.3339V39.999H100.001Z" fill="#FFFDEF"/>
<path d="M100.001 33.334V39.999H93.3339V33.334H100.001Z" fill="#FFFDEF"/>
<path d="M100.001 26.6672V33.334H93.3339V26.6672H100.001Z" fill="#FFFDEF"/>
<path d="M100.001 20.0004V26.6672H93.3339V20.0004H100.001Z" fill="#FFFDEF"/>
<path d="M100.001 13.3336V20.0004H93.3339V13.3336H100.001Z" fill="#FFFDEF"/>
<path d="M93.3338 146.666V153.333H86.667V146.666H93.3338Z" fill="#FFFDEF"/>
<path d="M93.3338 140.001V146.666H86.667V140.001H93.3338Z" fill="#FFFDEF"/>
<path d="M93.3338 133.332V140.001H86.667V133.332H93.3338Z" fill="#FFFDEF"/>
<path d="M93.3338 126.666V133.332H86.667V126.666H93.3338Z" fill="#2E2D2D"/>
<path d="M93.3338 120.001V126.666H86.667V120.001H93.3338Z" fill="#FFFDEF"/>
<path d="M93.3338 113.332V120.001H86.667V113.332H93.3338Z" fill="#5A2E17"/>
<path d="M93.3338 106.667V113.332H86.667V106.667H93.3338Z" fill="#5A2E17"/>
<path d="M93.3338 100V106.667H86.667V100H93.3338Z" fill="#5A2E17"/>
<path d="M93.3338 93.3334V100H86.667V93.3334H93.3338Z" fill="#FFFDEF"/>
<path d="M93.3338 86.6667V93.3335H86.667V86.6667H93.3338Z" fill="#FFFDEF"/>
<path d="M93.3338 79.9998V86.6666H86.667V79.9998H93.3338Z" fill="#FFFDEF"/>
<path d="M93.3338 73.333V79.9998H86.667V73.333H93.3338Z" fill="#FFFDEF"/>
<path d="M93.3338 66.6662V73.333H86.667V66.6662H93.3338Z" fill="#FFFDEF"/>
<path d="M93.3338 59.9994V66.6662H86.667V59.9994H93.3338Z" fill="#FFFDEF"/>
<path d="M93.3338 53.3345V59.9994H86.667V53.3345H93.3338Z" fill="#FFFDEF"/>
<path d="M93.3338 46.6658V53.3345H86.667V46.6658H93.3338Z" fill="#FFFDEF"/>
<path d="M93.3338 39.999V46.6658H86.667V39.999H93.3338Z" fill="#FFFDEF"/>
<path d="M93.3338 33.334V39.999H86.667V33.334H93.3338Z" fill="#FFFDEF"/>
<path d="M93.3338 26.6672V33.334H86.667V26.6672H93.3338Z" fill="#FFFDEF"/>
<path d="M93.3338 20.0004V26.6672H86.667V20.0004H93.3338Z" fill="#FFFDEF"/>
<path d="M93.3338 13.3336V20.0004H86.667V13.3336H93.3338Z" fill="#FFFDEF"/>
<path d="M86.6671 146.666V153.333H80.0002V146.666H86.6671Z" fill="#FFFDEF"/>
<path d="M86.6671 140.001V146.666H80.0002V140.001H86.6671Z" fill="#FFFDEF"/>
<path d="M86.6671 133.332V140.001H80.0002V133.332H86.6671Z" fill="#FFFDEF"/>
<path d="M86.6671 126.666V133.332H80.0002V126.666H86.6671Z" fill="#2E2D2D"/>
<path d="M86.6671 120.001V126.666H80.0002V120.001H86.6671Z" fill="#2E2D2D"/>
<path d="M86.6671 113.332V120.001H80.0002V113.332H86.6671Z" fill="#5A2E17"/>
<path d="M86.6671 106.667V113.332H80.0002V106.667H86.6671Z" fill="#5A2E17"/>
<path d="M86.6671 100V106.667H80.0002V100H86.6671Z" fill="#5A2E17"/>
<path d="M86.6671 93.3334V100H80.0002V93.3334H86.6671Z" fill="#FFFDEF"/>
<path d="M86.6671 86.6667V93.3335H80.0002V86.6667H86.6671Z" fill="#FFFDEF"/>
<path d="M86.6671 79.9998V86.6666H80.0002V79.9998H86.6671Z" fill="#FFFDEF"/>
<path d="M86.6671 73.333V79.9998H80.0002V73.333H86.6671Z" fill="#FFFDEF"/>
<path d="M86.6671 66.6662V73.333H80.0002V66.6662H86.6671Z" fill="#FFFDEF"/>
<path d="M86.6671 59.9994V66.6662H80.0002V59.9994H86.6671Z" fill="#FFFDEF"/>
<path d="M86.6671 53.3345V59.9994H80.0002V53.3345H86.6671Z" fill="#FFFDEF"/>
<path d="M86.6671 46.6658V53.3345H80.0002V46.6658H86.6671Z" fill="#FFFDEF"/>
<path d="M86.6671 39.999V46.6658H80.0002V39.999H86.6671Z" fill="#FFFDEF"/>
<path d="M86.6671 33.334V39.999H80.0002V33.334H86.6671Z" fill="#FFFDEF"/>
<path d="M86.6671 26.6672V33.334H80.0002V26.6672H86.6671Z" fill="#FFFDEF"/>
<path d="M86.6671 20.0004V26.6672H80.0002V20.0004H86.6671Z" fill="#FFFDEF"/>
<path d="M86.6671 13.3336V20.0004H80.0002V13.3336H86.6671Z" fill="#FFFDEF"/>
<path d="M80.0002 146.666V153.333H73.335V146.666H80.0002Z" fill="#FFFDEF"/>
<path d="M80.0002 140.001V146.666H73.335V140.001H80.0002Z" fill="#FFFDEF"/>
<path d="M80.0002 133.332V140.001H73.335V133.332H80.0002Z" fill="#FFFDEF"/>
<path d="M80.0002 126.666V133.332H73.335V126.666H80.0002Z" fill="#2E2D2D"/>
<path d="M80.0002 120.001V126.666H73.335V120.001H80.0002Z" fill="#FFFDEF"/>
<path d="M80.0002 113.332V120.001H73.335V113.332H80.0002Z" fill="#5A2E17"/>
<path d="M80.0002 106.667V113.332H73.335V106.667H80.0002Z" fill="#824722"/>
<path d="M80.0002 100V106.667H73.335V100H80.0002Z" fill="#5A2E17"/>
<path d="M80.0002 93.3334V100H73.335V93.3334H80.0002Z" fill="#FFFDEF"/>
<path d="M80.0002 86.6667V93.3335H73.335V86.6667H80.0002Z" fill="#FFFDEF"/>
<path d="M80.0002 79.9998V86.6666H73.335V79.9998H80.0002Z" fill="#FFFDEF"/>
<path d="M80.0002 73.333V79.9998H73.335V73.333H80.0002Z" fill="#FFFDEF"/>
<path d="M80.0002 66.6662V73.333H73.335V66.6662H80.0002Z" fill="#FFFDEF"/>
<path d="M80.0002 59.9994V66.6662H73.335V59.9994H80.0002Z" fill="#FFFDEF"/>
<path d="M80.0002 53.3345V59.9994H73.335V53.3345H80.0002Z" fill="#FFFDEF"/>
<path d="M80.0002 46.6658V53.3345H73.335V46.6658H80.0002Z" fill="#FFFDEF"/>
<path d="M80.0002 39.999V46.6658H73.335V39.999H80.0002Z" fill="#FFFDEF"/>
<path d="M80.0002 33.334V39.999H73.335V33.334H80.0002Z" fill="#FFFDEF"/>
<path d="M80.0002 26.6672V33.334H73.335V26.6672H80.0002Z" fill="#FFFDEF"/>
<path d="M80.0002 20.0004V26.6672H73.335V20.0004H80.0002Z" fill="#FFFDEF"/>
<path d="M80.0002 13.3336V20.0004H73.335V13.3336H80.0002Z" fill="#FFFDEF"/>
<path d="M73.3348 146.666V153.333H66.6661V146.666H73.3348Z" fill="#FFFDEF"/>
<path d="M73.3348 140.001V146.666H66.6661V140.001H73.3348Z" fill="#FFFDEF"/>
<path d="M73.3348 133.332V140.001H66.6661V133.332H73.3348Z" fill="#FFFDEF"/>
<path d="M73.3348 126.666V133.332H66.6661V126.666H73.3348Z" fill="#2E2D2D"/>
<path d="M73.3348 120.001V126.666H66.6661V120.001H73.3348Z" fill="#FFFDEF"/>
<path d="M73.3348 113.332V120.001H66.6661V113.332H73.3348Z" fill="#FFFDEF"/>
<path d="M73.3348 106.667V113.332H66.6661V106.667H73.3348Z" fill="#5A2E17"/>
<path d="M73.3348 100V106.667H66.6661V100H73.3348Z" fill="#FFFDEF"/>
<path d="M73.3348 93.3334V100H66.6661V93.3334H73.3348Z" fill="#FFFDEF"/>
<path d="M73.3348 86.6667V93.3335H66.6661V86.6667H73.3348Z" fill="#FFFDEF"/>
<path d="M73.3348 79.9998V86.6666H66.6661V79.9998H73.3348Z" fill="#2E2D2D"/>
<path d="M73.3348 73.333V79.9998H66.6661V73.333H73.3348Z" fill="#2E2D2D"/>
<path d="M73.3348 66.6662V73.333H66.6661V66.6662H73.3348Z" fill="#2E2D2D"/>
<path d="M73.3348 59.9994V66.6662H66.6661V59.9994H73.3348Z" fill="#2E2D2D"/>
<path d="M73.3348 53.3345V59.9994H66.6661V53.3345H73.3348Z" fill="#2E2D2D"/>
<path d="M73.3348 46.6658V53.3345H66.6661V46.6658H73.3348Z" fill="#FFFDEF"/>
<path d="M73.3348 39.999V46.6658H66.6661V39.999H73.3348Z" fill="#FFFDEF"/>
<path d="M73.3348 33.334V39.999H66.6661V33.334H73.3348Z" fill="#FFFDEF"/>
<path d="M73.3348 26.6672V33.334H66.6661V26.6672H73.3348Z" fill="#FFFDEF"/>
<path d="M73.3348 20.0004V26.6672H66.6661V20.0004H73.3348Z" fill="#FFFDEF"/>
<path d="M73.3348 13.3336V20.0004H66.6661V13.3336H73.3348Z" fill="#FFFDEF"/>
<path d="M66.6663 146.666V153.333H60.0013V146.666H66.6663Z" fill="#D4D4D0"/>
<path d="M66.6663 140.001V146.666H60.0013V140.001H66.6663Z" fill="#FFFDEF"/>
<path d="M66.6663 133.332V140.001H60.0013V133.332H66.6663Z" fill="#FFFDEF"/>
<path d="M66.6663 126.666V133.332H60.0013V126.666H66.6663Z" fill="#FFFDEF"/>
<path d="M66.6663 120.001V126.666H60.0013V120.001H66.6663Z" fill="#2E2D2D"/>
<path d="M66.6663 113.332V120.001H60.0013V113.332H66.6663Z" fill="#FFFDEF"/>
<path d="M66.6663 106.667V113.332H60.0013V106.667H66.6663Z" fill="#FFFDEF"/>
<path d="M66.6663 100V106.667H60.0013V100H66.6663Z" fill="#FFFDEF"/>
<path d="M66.6663 93.3334V100H60.0013V93.3334H66.6663Z" fill="#FFFDEF"/>
<path d="M66.6663 86.6667V93.3335H60.0013V86.6667H66.6663Z" fill="#2E2D2D"/>
<path d="M66.6663 79.9998V86.6666H60.0013V79.9998H66.6663Z" fill="#2E2D2D"/>
<path d="M66.6663 73.333V79.9998H60.0013V73.333H66.6663Z" fill="#FFFDEF"/>
<path d="M66.6663 66.6662V73.333H60.0013V66.6662H66.6663Z" fill="#2E2D2D"/>
<path d="M66.6663 59.9994V66.6662H60.0013V59.9994H66.6663Z" fill="#2E2D2D"/>
<path d="M66.6663 53.3345V59.9994H60.0013V53.3345H66.6663Z" fill="#2E2D2D"/>
<path d="M66.6663 46.6658V53.3345H60.0013V46.6658H66.6663Z" fill="#FFFDEF"/>
<path d="M66.6663 39.999V46.6658H60.0013V39.999H66.6663Z" fill="#FFFDEF"/>
<path d="M66.6663 33.334V39.999H60.0013V33.334H66.6663Z" fill="#FFFDEF"/>
<path d="M66.6663 26.6672V33.334H60.0013V26.6672H66.6663Z" fill="#FFFDEF"/>
<path d="M66.6663 20.0004V26.6672H60.0013V20.0004H66.6663Z" fill="#FFFDEF"/>
<path d="M66.6663 13.3336V20.0004H60.0013V13.3336H66.6663Z" fill="#FFFDEF"/>
<path d="M60.0013 146.666V153.333H53.3345V146.666H60.0013Z" fill="#FFFDEF"/>
<path d="M60.0013 140.001V146.666H53.3345V140.001H60.0013Z" fill="#D4D4D0"/>
<path d="M60.0013 133.332V140.001H53.3345V133.332H60.0013Z" fill="#FFFDEF"/>
<path d="M60.0013 126.666V133.332H53.3345V126.666H60.0013Z" fill="#FFFDEF"/>
<path d="M60.0013 120.001V126.666H53.3345V120.001H60.0013Z" fill="#FFFDEF"/>
<path d="M60.0013 113.332V120.001H53.3345V113.332H60.0013Z" fill="#FFFDEF"/>
<path d="M60.0013 106.667V113.332H53.3345V106.667H60.0013Z" fill="#FFFDEF"/>
<path d="M60.0013 100V106.667H53.3345V100H60.0013Z" fill="#FFFDEF"/>
<path d="M60.0013 93.3334V100H53.3345V93.3334H60.0013Z" fill="#2E2D2D"/>
<path d="M60.0013 86.6667V93.3335H53.3345V86.6667H60.0013Z" fill="#2E2D2D"/>
<path d="M60.0013 79.9998V86.6666H53.3345V79.9998H60.0013Z" fill="#2E2D2D"/>
<path d="M60.0013 73.333V79.9998H53.3345V73.333H60.0013Z" fill="#2E2D2D"/>
<path d="M60.0013 66.6662V73.333H53.3345V66.6662H60.0013Z" fill="#FFFDEF"/>
<path d="M60.0013 59.9994V66.6662H53.3345V59.9994H60.0013Z" fill="#2E2D2D"/>
<path d="M60.0013 53.3345V59.9994H53.3345V53.3345H60.0013Z" fill="#2E2D2D"/>
<path d="M60.0013 46.6658V53.3345H53.3345V46.6658H60.0013Z" fill="#FFFDEF"/>
<path d="M60.0013 39.999V46.6658H53.3345V39.999H60.0013Z" fill="#FFFDEF"/>
<path d="M60.0013 33.334V39.999H53.3345V33.334H60.0013Z" fill="#FFFDEF"/>
<path d="M60.0013 26.6672V33.334H53.3345V26.6672H60.0013Z" fill="#FFFDEF"/>
<path d="M60.0013 20.0004V26.6672H53.3345V20.0004H60.0013Z" fill="#FFFDEF"/>
<path d="M60.0013 13.3336V20.0004H53.3345V13.3336H60.0013Z" fill="#302F2F"/>
<path d="M53.3345 146.666V153.333H46.6658V146.666H53.3345Z" fill="#FFFDEF"/>
<path d="M53.3345 140.001V146.666H46.6658V140.001H53.3345Z" fill="#D4D4D0"/>
<path d="M53.3345 133.332V140.001H46.6658V133.332H53.3345Z" fill="#FFFDEF"/>
<path d="M53.3345 126.666V133.332H46.6658V126.666H53.3345Z" fill="#FFFDEF"/>
<path d="M53.3345 120.001V126.666H46.6658V120.001H53.3345Z" fill="#FFFDEF"/>
<path d="M53.3345 113.332V120.001H46.6658V113.332H53.3345Z" fill="#FFFDEF"/>
<path d="M53.3345 106.667V113.332H46.6658V106.667H53.3345Z" fill="#FFFDEF"/>
<path d="M53.3345 100V106.667H46.6658V100H53.3345Z" fill="#2E2D2D"/>
<path d="M53.3345 93.3334V100H46.6658V93.3334H53.3345Z" fill="#2E2D2D"/>
<path d="M53.3345 86.6667V93.3335H46.6658V86.6667H53.3345Z" fill="#2E2D2D"/>
<path d="M53.3345 79.9998V86.6666H46.6658V79.9998H53.3345Z" fill="#2E2D2D"/>
<path d="M53.3345 73.333V79.9998H46.6658V73.333H53.3345Z" fill="#FFFDEF"/>
<path d="M53.3345 66.6662V73.333H46.6658V66.6662H53.3345Z" fill="#2E2D2D"/>
<path d="M53.3345 59.9994V66.6662H46.6658V59.9994H53.3345Z" fill="#2E2D2D"/>
<path d="M53.3345 53.3345V59.9994H46.6658V53.3326L53.3345 53.3345Z" fill="#FFFDEF"/>
<path d="M53.3345 46.6658V53.3345L46.6658 53.3326V46.6658H53.3345Z" fill="#FFFDEF"/>
<path d="M53.3345 39.999V46.6658H46.6658V39.999H53.3345Z" fill="#FFFDEF"/>
<path d="M53.3345 33.334V39.999H46.6658L46.6677 33.334H53.3345Z" fill="#FFFDEF"/>
<path d="M53.3344 26.6672V33.334H46.6676V26.6672H53.3344Z" fill="#FFFDEF"/>
<path d="M53.3344 20.0004V26.6672H46.6676V20.0004H53.3344Z" fill="#FFFDEF"/>
<path d="M53.3344 13.3336V20.0004H46.6676V13.3336H53.3344Z" fill="#302F2F"/>
<path d="M53.3344 6.66681V13.3336H46.6676V6.66681H53.3344Z" fill="#494A4B"/>
<path d="M46.6677 26.6672V33.334H40.0009V26.6672H46.6677Z" fill="#FFFDEF"/>
<path d="M46.6677 20.0004V26.6672H40.0009V20.0004H46.6677Z" fill="#302F2F"/>
<path d="M46.6677 13.3336V20.0004H40.0009V13.3336H46.6677Z" fill="#302F2F"/>
<path d="M46.6677 6.66681V13.3336H40.0009V6.66681H46.6677Z" fill="#494A4B"/>
<path d="M46.6677 -4.76837e-07V6.66681H40.0009V-4.76837e-07H46.6677Z" fill="#494A4B"/>
<path d="M46.6677 33.334L46.6658 39.999H40.0009V33.334H46.6677Z" fill="#FFFDEF"/>
<path d="M46.6658 140.001V146.666H40.0009V140.001H46.6658Z" fill="#FFFDEF"/>
<path d="M46.6658 133.332V140.001H40.0009V133.332H46.6658Z" fill="#D4D4D0"/>
<path d="M46.6658 126.666V133.332H40.0009V126.666H46.6658Z" fill="#FFFDEF"/>
<path d="M46.6658 120.001V126.666H40.0009V120.001H46.6658Z" fill="#FFFDEF"/>
<path d="M46.6658 113.332V120.001H40.0009V113.332H46.6658Z" fill="#FFFDEF"/>
<path d="M46.6658 106.667V113.332H40.0009V106.667H46.6658Z" fill="#FFFDEF"/>
<path d="M46.6658 100V106.667H40.0009V100H46.6658Z" fill="#2E2D2D"/>
<path d="M46.6658 93.3334V100H40.0009V93.3334H46.6658Z" fill="#2E2D2D"/>
<path d="M46.6658 86.6667V93.3335H40.0009V86.6667H46.6658Z" fill="#2E2D2D"/>
<path d="M46.6658 79.9998V86.6666H40.0009V79.9998H46.6658Z" fill="#2E2D2D"/>
<path d="M46.6658 73.333V79.9998H40.0009V73.333H46.6658Z" fill="#2E2D2D"/>
<path d="M46.6658 66.6662V73.333H40.0009V66.6662H46.6658Z" fill="#2E2D2D"/>
<path d="M46.6658 59.9994V66.6662H40.0009V59.9994H46.6658Z" fill="#FFFDEF"/>
<path d="M46.6658 53.3326V59.9994H40.0009V53.3326H46.6658Z" fill="#FFFDEF"/>
<path d="M46.6658 46.6658V53.3326H40.0009V46.6658H46.6658Z" fill="#FFFDEF"/>
<path d="M46.6658 39.999V46.6658H40.0009V39.999H46.6658Z" fill="#FFFDEF"/>
<path d="M40.0009 140.001V146.666H33.3341V140.001H40.0009Z" fill="#D4D4D0"/>
<path d="M40.0009 133.332V140.001H33.3341V133.332H40.0009Z" fill="#FFFDEF"/>
<path d="M40.0009 126.666V133.332H33.3341V126.666H40.0009Z" fill="#D4D4D0"/>
<path d="M40.0009 120.001V126.666H33.3341V120.001H40.0009Z" fill="#FFFDEF"/>
<path d="M40.0009 113.332V120.001H33.3341V113.332H40.0009Z" fill="#FFFDEF"/>
<path d="M40.0009 106.667V113.332H33.3341V106.667H40.0009Z" fill="#FFFDEF"/>
<path d="M40.0009 100V106.667H33.3341V100H40.0009Z" fill="#FFFDEF"/>
<path d="M40.0009 93.3334V100H33.3341V93.3334H40.0009Z" fill="#2E2D2D"/>
<path d="M40.0009 86.6667V93.3335H33.3341V86.6667H40.0009Z" fill="#2E2D2D"/>
<path d="M40.0009 79.9998V86.6666H33.3341V79.9998H40.0009Z" fill="#2E2D2D"/>
<path d="M40.0009 73.333V79.9998H33.3341V73.333H40.0009Z" fill="#2E2D2D"/>
<path d="M40.0009 66.6662V73.333H33.3341V66.6662H40.0009Z" fill="#FFFDEF"/>
<path d="M40.0009 59.9994V66.6662H33.3341V59.9994H40.0009Z" fill="#FFFDEF"/>
<path d="M40.0009 53.3326V59.9994H33.3341V53.3326H40.0009Z" fill="#FFFDEF"/>
<path d="M40.0009 46.6658V53.3326H33.3341V46.6658H40.0009Z" fill="#FFFDEF"/>
<path d="M40.0009 39.999V46.6658H33.3341V39.999H40.0009Z" fill="#FFFDEF"/>
<path d="M40.0009 33.334V39.999H33.3341V33.334H40.0009Z" fill="#FFFDEF"/>
<path d="M40.0009 26.6672V33.334H33.3341V26.6672H40.0009Z" fill="#FFFDEF"/>
<path d="M40.0009 20.0004V26.6672H33.3341V20.0004H40.0009Z" fill="#302F2F"/>
<path d="M40.0009 13.3336V20.0004H33.3341V13.3336H40.0009Z" fill="#302F2F"/>
<path d="M40.0009 6.66681V13.3336H33.3341V6.66681H40.0009Z" fill="#494A4B"/>
<path d="M40.0009 -4.76837e-07V6.66681H33.3341V-4.76837e-07H40.0009Z" fill="#747576"/>
<path d="M33.334 133.332V140.001H26.6672V133.332H33.334Z" fill="#D4D4D0"/>
<path d="M33.334 126.666V133.332H26.6672V126.666H33.334Z" fill="#FFFDEF"/>
<path d="M33.334 120.001V126.666H26.6672V120.001H33.334Z" fill="#D4D4D0"/>
<path d="M33.334 113.332V120.001H26.6672V113.332H33.334Z" fill="#D4D4D0"/>
<path d="M33.334 106.667V113.332H26.6672V106.667H33.334Z" fill="#FFFDEF"/>
<path d="M33.334 100V106.667H26.6672V100H33.334Z" fill="#FFFDEF"/>
<path d="M33.334 93.3334V100H26.6672V93.3334H33.334Z" fill="#FFFDEF"/>
<path d="M33.334 86.6667V93.3335H26.6672V86.6667H33.334Z" fill="#2E2D2D"/>
<path d="M33.334 79.9998V86.6666H26.6672V79.9998H33.334Z" fill="#2E2D2D"/>
<path d="M33.334 73.333V79.9998H26.6672V73.333H33.334Z" fill="#2E2D2D"/>
<path d="M33.334 66.6662V73.333H26.6672V66.6662H33.334Z" fill="#FFFDEF"/>
<path d="M33.334 59.9994V66.6662H26.6672V59.9994H33.334Z" fill="#FFFDEF"/>
<path d="M33.334 53.3326V59.9994H26.6672V53.3326H33.334Z" fill="#FFFDEF"/>
<path d="M33.334 46.6658V53.3326H26.6672V46.6658H33.334Z" fill="#FFFDEF"/>
<path d="M33.334 39.999V46.6658H26.6672V39.999H33.334Z" fill="#FFFDEF"/>
<path d="M33.334 33.334V39.999H26.6672V33.334H33.334Z" fill="#FFFDEF"/>
<path d="M33.334 26.6672V33.334H26.6672V26.6672H33.334Z" fill="#302F2F"/>
<path d="M33.334 20.0004V26.6672H26.6672V20.0004H33.334Z" fill="#302F2F"/>
<path d="M33.334 13.3336V20.0004H26.6672V13.3336H33.334Z" fill="#494A4B"/>
<path d="M33.334 6.66681V13.3336H26.6672V6.66681H33.334Z" fill="#494A4B"/>
<path d="M33.334 -4.76837e-07V6.66681H26.6672V-4.76837e-07H33.334Z" fill="#747576"/>
<path d="M26.6673 126.666V133.332H20.0005V126.666H26.6673Z" fill="#D4D4D0"/>
<path d="M26.6673 120.001V126.666H20.0005V120.001H26.6673Z" fill="#D4D4D0"/>
<path d="M26.6673 113.332V120.001H20.0005V113.332H26.6673Z" fill="#FFFDEF"/>
<path d="M26.6673 106.667V113.332H20.0005V106.667H26.6673Z" fill="#D4D4D0"/>
<path d="M26.6673 100V106.667H20.0005V100H26.6673Z" fill="#FFFDEF"/>
<path d="M26.6673 93.3334V100H20.0005V93.3334H26.6673Z" fill="#FFFDEF"/>
<path d="M26.6673 86.6667V93.3335H20.0005V86.6667H26.6673Z" fill="#D4D4D0"/>
<path d="M26.6673 79.9998V86.6666H20.0005V79.9998H26.6673Z" fill="#FFFDEF"/>
<path d="M26.6673 73.333V79.9998H20.0005V73.333H26.6673Z" fill="#FFFDEF"/>
<path d="M26.6673 66.6662V73.333H20.0005V66.6662H26.6673Z" fill="#FFFDEF"/>
<path d="M26.6673 59.9994V66.6662H20.0005V59.9994H26.6673Z" fill="#FFFDEF"/>
<path d="M26.6673 53.3326V59.9994H20.0005V53.3326H26.6673Z" fill="#FFFDEF"/>
<path d="M26.6673 46.6658V53.3326H20.0005V46.6658H26.6673Z" fill="#FFFDEF"/>
<path d="M26.6673 39.999V46.6658H20.0005V39.999H26.6673Z" fill="#FFFDEF"/>
<path d="M26.6673 33.334V39.999H20.0005V33.334H26.6673Z" fill="#302F2F"/>
<path d="M26.6673 26.6672V33.334H20.0005V26.6672H26.6673Z" fill="#302F2F"/>
<path d="M26.6673 20.0004V26.6672H20.0005V20.0004H26.6673Z" fill="#494A4B"/>
<path d="M26.6673 13.3336V20.0004H20.0005V13.3336H26.6673Z" fill="#494A4B"/>
<path d="M26.6673 6.66681V13.3336H20.0005V6.66681H26.6673Z" fill="#747576"/>
<path d="M20.0004 120.001V126.666H13.3336V120.001H20.0004Z" fill="#D4D4D0"/>
<path d="M20.0004 113.332V120.001H13.3336V113.332H20.0004Z" fill="#D4D4D0"/>
<path d="M20.0004 106.667V113.332H13.3336V106.667H20.0004Z" fill="#FFFDEF"/>
<path d="M20.0004 100V106.667H13.3336V100H20.0004Z" fill="#D4D4D0"/>
<path d="M20.0004 93.3334V100H13.3336V93.3334H20.0004Z" fill="#D4D4D0"/>
<path d="M20.0004 86.6667V93.3335H13.3336V86.6667H20.0004Z" fill="#FFFDEF"/>
<path d="M20.0004 79.9998V86.6666H13.3336V79.9998H20.0004Z" fill="#D4D4D0"/>
<path d="M20.0004 73.333V79.9998H13.3336V73.333H20.0004Z" fill="#FFFDEF"/>
<path d="M20.0004 66.6662V73.333H13.3336V66.6662H20.0004Z" fill="#D4D4D0"/>
<path d="M20.0004 59.9994V66.6662H13.3336V59.9994H20.0004Z" fill="#FFFDEF"/>
<path d="M20.0004 53.3326V59.9994H13.3336V53.3326H20.0004Z" fill="#FFFDEF"/>
<path d="M20.0004 46.6658V53.3326H13.3336V46.6658H20.0004Z" fill="#302F2F"/>
<path d="M20.0004 39.999V46.6658H13.3336V39.999H20.0004Z" fill="#302F2F"/>
<path d="M20.0004 33.334V39.999H13.3336V33.334H20.0004Z" fill="#302F2F"/>
<path d="M20.0004 26.6672V33.334H13.3336V26.6672H20.0004Z" fill="#302F2F"/>
<path d="M20.0004 20.0004V26.6672H13.3336V20.0004H20.0004Z" fill="#494A4B"/>
<path d="M20.0004 13.3336V20.0004H13.3336V13.3336H20.0004Z" fill="#494A4B"/>
<path d="M20.0004 6.66681V13.3336H13.3336V6.66681H20.0004Z" fill="#494A4B"/>
<path d="M13.3336 100V106.667H6.6687V100H13.3336Z" fill="#D4D4D0"/>
<path d="M13.3336 93.3334V100H6.6687V93.3334H13.3336Z" fill="#D4D4D0"/>
<path d="M13.3336 86.6667V93.3335H6.6687V86.6667H13.3336Z" fill="#D4D4D0"/>
<path d="M13.3336 79.9998V86.6666H6.6687V79.9998H13.3336Z" fill="#FFFDEF"/>
<path d="M13.3336 73.333V79.9998H6.6687V73.333H13.3336Z" fill="#D4D4D0"/>
<path d="M13.3336 66.6662V73.333H6.6687V66.6662H13.3336Z" fill="#FFFDEF"/>
<path d="M13.3336 46.6658V53.3326H6.6687V46.6658H13.3336Z" fill="#302F2F"/>
<path d="M13.3336 39.999V46.6658H6.6687V39.999H13.3336Z" fill="#302F2F"/>
<path d="M13.3336 33.334V39.999H6.6687V33.334H13.3336Z" fill="#302F2F"/>
<path d="M13.3336 26.6672V33.334H6.6687V26.6672H13.3336Z" fill="#302F2F"/>
<path d="M13.3336 20.0004V26.6672H6.6687V20.0004H13.3336Z" fill="#302F2F"/>
<path d="M13.3336 13.3336V20.0004H6.6687V13.3336H13.3336Z" fill="#302F2F"/>
<path d="M6.66871 39.999V46.6658H0V39.999H6.66871Z" fill="#302F2F"/>
<path d="M6.66871 33.334V39.999H0V33.334H6.66871Z" fill="#302F2F"/>
<path d="M6.66871 26.6672V33.334H0V26.6672H6.66871Z" fill="#302F2F"/>
<path d="M6.66871 20.0004V26.6672H0V20.0004H6.66871Z" fill="#302F2F"/>
</svg>
