<svg width="100" height="105" viewBox="0 0 100 105" fill="none" xmlns="http://www.w3.org/2000/svg">
<path d="M42.8572 5.00052H47.62V9.76251H42.8572V5.00052Z" fill="white"/>
<path d="M47.6199 5.00052H52.38V9.76251H47.6199V5.00052Z" fill="white"/>
<path d="M52.3799 5.00052H57.1427V9.76251H52.3799V5.00052Z" fill="white"/>
<path d="M57.1428 5.00052H61.9056V9.76251H57.1428V5.00052Z" fill="white"/>
<path d="M61.9055 5.00052H66.6683V9.76251H61.9055V5.00052Z" fill="white"/>
<path d="M66.6685 5.00052H71.4285V9.76251H66.6685V5.00052Z" fill="white"/>
<path d="M33.3342 9.76256H38.0943V14.5243H33.3342V9.76256Z" fill="white"/>
<path d="M38.0942 9.76256H42.857V14.5243H38.0942V9.76256Z" fill="white"/>
<path d="M42.8572 9.76256H47.62V14.5243H42.8572V9.76256Z" fill="white"/>
<path d="M47.6199 9.76256H52.38V14.5243H47.6199V9.76256Z" fill="white"/>
<path d="M52.3799 9.76256H57.1427V14.5243H52.3799V9.76256Z" fill="white"/>
<path d="M57.1428 9.76256H61.9056V14.5243H57.1428V9.76256Z" fill="white"/>
<path d="M61.9055 9.76256H66.6683V14.5243H61.9055V9.76256Z" fill="white"/>
<path d="M66.6685 9.76256H71.4285V14.5243H66.6685V9.76256Z" fill="white"/>
<path d="M71.4285 9.76256H76.1913V14.5243H71.4285V9.76256Z" fill="white"/>
<path d="M76.1914 9.76256H80.9515V14.5243H76.1914V9.76256Z" fill="white"/>
<path d="M28.5715 14.5243H33.3343V19.2866H28.5715V14.5243Z" fill="white"/>
<path d="M33.3342 14.5243H38.097V19.2866H33.3342V14.5243Z" fill="white"/>
<path d="M38.0969 14.5243H42.857V19.2866H38.0969V14.5243Z" fill="white"/>
<path d="M42.8572 14.5243H47.62V19.2866H42.8572V14.5243Z" fill="white"/>
<path d="M47.6199 14.5243H52.38V19.2866H47.6199V14.5243Z" fill="white"/>
<path d="M52.3799 14.5243H57.1427V19.2866H52.3799V14.5243Z" fill="white"/>
<path d="M57.1428 14.5243H61.9056V19.2866H57.1428V14.5243Z" fill="white"/>
<path d="M61.9055 14.5243H66.6683V19.2866H61.9055V14.5243Z" fill="white"/>
<path d="M66.6685 14.5243H71.4285V19.2866H66.6685V14.5243Z" fill="white"/>
<path d="M71.4285 14.5243H76.1913V19.2866H71.4285V14.5243Z" fill="white"/>
<path d="M76.1914 14.5243H80.9515V19.2866H76.1914V14.5243Z" fill="white"/>
<path d="M80.9514 14.5243H85.7142V19.2866H80.9514V14.5243Z" fill="white"/>
<path d="M23.8113 19.2866H28.5714V24.048H23.8113V19.2866Z" fill="white"/>
<path d="M28.5715 19.2866H33.3343V24.048H28.5715V19.2866Z" fill="white"/>
<path d="M33.3342 19.2866H38.0943V24.048H33.3342V19.2866Z" fill="white"/>
<path d="M38.0942 19.2866H42.857V24.048H38.0942V19.2866Z" fill="white"/>
<path d="M42.8572 19.2866H47.62V24.048H42.8572V19.2866Z" fill="white"/>
<path d="M47.6199 19.2866H52.38V24.048H47.6199V19.2866Z" fill="white"/>
<path d="M52.3799 19.2866H57.1427V24.048H52.3799V19.2866Z" fill="white"/>
<path d="M57.1428 19.2866H61.9056V24.048H57.1428V19.2866Z" fill="white"/>
<path d="M61.9055 19.2866H66.6683V24.048H61.9055V19.2866Z" fill="white"/>
<path d="M66.6685 19.2866H71.4285V24.048H66.6685V19.2866Z" fill="white"/>
<path d="M71.4285 19.2866H76.1913V24.048H71.4285V19.2866Z" fill="white"/>
<path d="M76.1914 19.2866H80.9515V24.048H76.1914V19.2866Z" fill="white"/>
<path d="M80.9514 19.2866H85.7142V24.048H80.9514V19.2866Z" fill="white"/>
<path d="M23.8113 24.048H28.5714V28.8103H23.8113V24.048Z" fill="white"/>
<path d="M28.5715 24.048H33.3343V28.8103H28.5715V24.048Z" fill="white"/>
<path d="M33.3342 24.048H38.0943V28.8103H33.3342V24.048Z" fill="white"/>
<path d="M38.0942 24.048H42.857V28.8103H38.0942V24.048Z" fill="white"/>
<path d="M42.8572 24.048H47.62V28.8103H42.8572V24.048Z" fill="white"/>
<path d="M47.6199 24.048H52.38V28.8103H47.6199V24.048Z" fill="white"/>
<path d="M52.3799 24.048H57.1427V28.8103H52.3799V24.048Z" fill="white"/>
<path d="M57.1428 24.048H61.9056V28.8103H57.1428V24.048Z" fill="white"/>
<path d="M61.9055 24.048H66.6683V28.8103H61.9055V24.048Z" fill="white"/>
<path d="M66.6685 24.048H71.4285V28.8103H66.6685V24.048Z" fill="white"/>
<path d="M71.4285 24.048H76.1913V28.8103H71.4285V24.048Z" fill="white"/>
<path d="M76.1914 24.048H80.9515V28.8103H76.1914V24.048Z" fill="white"/>
<path d="M80.9514 24.048H85.7142V28.8103H80.9514V24.048Z" fill="white"/>
<path d="M85.7144 24.048H90.4772V28.8103H85.7144V24.048Z" fill="white"/>
<path d="M19.0486 28.8103H23.8114V33.572H19.0486V28.8103Z" fill="white"/>
<path d="M23.8113 28.8103H28.5714V33.572H23.8113V28.8103Z" fill="white"/>
<path d="M28.5715 28.8103H33.3343V33.572H28.5715V28.8103Z" fill="white"/>
<path d="M33.3342 28.8103H38.0943V33.572H33.3342V28.8103Z" fill="white"/>
<path d="M38.0942 28.8103H42.857V33.572H38.0942V28.8103Z" fill="white"/>
<path d="M42.8572 28.8103H47.62V33.572H42.8572V28.8103Z" fill="white"/>
<path d="M47.6199 28.8103H52.38V33.572H47.6199V28.8103Z" fill="white"/>
<path d="M52.3799 28.8103H57.1427V33.572H52.3799V28.8103Z" fill="white"/>
<path d="M57.1428 28.8103H61.9056V33.572H57.1428V28.8103Z" fill="white"/>
<path d="M61.9055 28.8103H66.6683V33.572H61.9055V28.8103Z" fill="white"/>
<path d="M66.6685 28.8103H71.4285V33.572H66.6685V28.8103Z" fill="white"/>
<path d="M71.4285 28.8103H76.1913V33.572H71.4285V28.8103Z" fill="white"/>
<path d="M76.1914 28.8103H80.9515V33.572H76.1914V28.8103Z" fill="white"/>
<path d="M80.9514 28.8103H85.7142V33.572H80.9514V28.8103Z" fill="white"/>
<path d="M85.7144 28.8103H90.4772V33.572H85.7144V28.8103Z" fill="white"/>
<path d="M19.0486 33.572H23.8114V38.334H19.0486V33.572Z" fill="white"/>
<path d="M23.8113 33.572H28.5714V38.334H23.8113V33.572Z" fill="white"/>
<path d="M28.5715 33.572H33.3343V38.334H28.5715V33.572Z" fill="white"/>
<path d="M33.3342 33.572H38.097V38.334H33.3342V33.572Z" fill="white"/>
<path d="M38.0969 33.572H42.857V38.334H38.0969V33.572Z" fill="white"/>
<path d="M42.8572 33.572H47.62V38.334H42.8572V33.572Z" fill="white"/>
<path d="M47.6199 33.572H52.38V38.334H47.6199V33.572Z" fill="white"/>
<path d="M52.3799 33.572H57.1427V38.334H52.3799V33.572Z" fill="white"/>
<path d="M57.1428 33.572H61.9056V38.334H57.1428V33.572Z" fill="white"/>
<path d="M61.9055 33.572H66.6683V38.334H61.9055V33.572Z" fill="white"/>
<path d="M66.6685 33.572H71.4285V38.334H66.6685V33.572Z" fill="white"/>
<path d="M71.4285 33.572H76.1913V38.334H71.4285V33.572Z" fill="white"/>
<path d="M76.1914 33.572H80.9515V38.334H76.1914V33.572Z" fill="white"/>
<path d="M80.9514 33.572H85.7142V38.334H80.9514V33.572Z" fill="white"/>
<path d="M85.7144 33.572H90.4772V38.334H85.7144V33.572Z" fill="white"/>
<path d="M19.0486 38.334H23.8114V43.0959H19.0486V38.334Z" fill="white"/>
<path d="M23.8113 38.334H28.5714V43.0959H23.8113V38.334Z" fill="white"/>
<path d="M28.5715 38.334H33.3343V43.0959H28.5715V38.334Z" fill="white"/>
<path d="M33.3342 38.334H38.097V43.0959H33.3342V38.334Z" fill="white"/>
<path d="M38.0969 38.334H42.857V43.0959H38.0969V38.334Z" fill="white"/>
<path d="M42.8572 38.334H47.62V43.0959H42.8572V38.334Z" fill="white"/>
<path d="M47.6199 38.334H52.38V43.0959H47.6199V38.334Z" fill="white"/>
<path d="M52.3799 38.334H57.1427V43.0959H52.3799V38.334Z" fill="white"/>
<path d="M57.1428 38.334H61.9056V43.0959H57.1428V38.334Z" fill="white"/>
<path d="M61.9055 38.334H66.6683V43.0959H61.9055V38.334Z" fill="white"/>
<path d="M66.6685 38.334H71.4285V43.0959H66.6685V38.334Z" fill="white"/>
<path d="M71.4285 38.334H76.1913V43.0959H71.4285V38.334Z" fill="white"/>
<path d="M76.1914 38.334H80.9515V43.0959H76.1914V38.334Z" fill="white"/>
<path d="M80.9514 38.334H85.7142V43.0959H80.9514V38.334Z" fill="white"/>
<path d="M85.7144 38.334H90.4772V43.0959H85.7144V38.334Z" fill="white"/>
<path d="M23.8113 43.096H28.5714V47.8577H23.8113V43.096Z" fill="white"/>
<path d="M28.5715 43.096H33.3343V47.8577H28.5715V43.096Z" fill="white"/>
<path d="M33.3342 43.096H38.097V47.8577H33.3342V43.096Z" fill="white"/>
<path d="M38.0969 43.096H42.857V47.8577H38.0969V43.096Z" fill="white"/>
<path d="M42.8572 43.096H47.62V47.8577H42.8572V43.096Z" fill="white"/>
<path d="M47.6199 43.096H52.38V47.8577H47.6199V43.096Z" fill="white"/>
<path d="M52.3799 43.096H57.1427V47.8577H52.3799V43.096Z" fill="white"/>
<path d="M57.1428 43.096H61.9056V47.8577H57.1428V43.096Z" fill="white"/>
<path d="M61.9055 43.096H66.6683V47.8577H61.9055V43.096Z" fill="white"/>
<path d="M66.6685 43.096H71.4285V47.8577H66.6685V43.096Z" fill="white"/>
<path d="M71.4285 43.096H76.1913V47.8577H71.4285V43.096Z" fill="white"/>
<path d="M76.1914 43.096H80.9515V47.8577H76.1914V43.096Z" fill="white"/>
<path d="M80.9514 43.096H85.7142V47.8577H80.9514V43.096Z" fill="white"/>
<path d="M85.7144 43.096H90.4772V47.8577H85.7144V43.096Z" fill="white"/>
<path d="M33.3342 47.8577H38.097V52.6197H33.3342V47.8577Z" fill="white"/>
<path d="M38.0969 47.8577H42.857V52.6197H38.0969V47.8577Z" fill="white"/>
<path d="M42.8572 47.8577H47.62V52.6197H42.8572V47.8577Z" fill="white"/>
<path d="M47.6199 47.8577H52.38V52.6197H47.6199V47.8577Z" fill="white"/>
<path d="M52.3799 47.8577H57.1427V52.6197H52.3799V47.8577Z" fill="white"/>
<path d="M57.1428 47.8577H61.9056V52.6197H57.1428V47.8577Z" fill="white"/>
<path d="M61.9055 47.8577H66.6683V52.6197H61.9055V47.8577Z" fill="white"/>
<path d="M66.6685 47.8577H71.4285V52.6197H66.6685V47.8577Z" fill="white"/>
<path d="M71.4285 47.8577H76.1913V52.6197H71.4285V47.8577Z" fill="white"/>
<path d="M76.1914 47.8577H80.9515V52.6197H76.1914V47.8577Z" fill="white"/>
<path d="M80.9514 47.8577H85.7142V52.6197H80.9514V47.8577Z" fill="white"/>
<path d="M28.5715 62.1434H33.3343V66.9054H28.5715V62.1434Z" fill="white"/>
<path d="M33.3342 62.1434H38.097V66.9054H33.3342V62.1434Z" fill="white"/>
<path d="M38.0969 62.1434H42.857V66.9054H38.0969V62.1434Z" fill="white"/>
<path d="M42.8572 62.1434H47.62V66.9054H42.8572V62.1434Z" fill="white"/>
<path d="M47.6199 62.1434H52.38V66.9054H47.6199V62.1434Z" fill="white"/>
<path d="M52.3799 62.1434H57.1427V66.9054H52.3799V62.1434Z" fill="white"/>
<path d="M57.1428 62.1434H61.9056V66.9054H57.1428V62.1434Z" fill="white"/>
<path d="M61.9055 62.1434H66.6683V66.9054H61.9055V62.1434Z" fill="white"/>
<path d="M66.6685 62.1434H71.4285V66.9054H66.6685V62.1434Z" fill="white"/>
<path d="M71.4285 62.1434H76.1913V66.9054H71.4285V62.1434Z" fill="white"/>
<path d="M76.1914 62.1434H80.9515V66.9054H76.1914V62.1434Z" fill="white"/>
<path d="M80.9514 62.1434H85.7142V66.9054H80.9514V62.1434Z" fill="white"/>
<path d="M23.8113 66.9054H28.5714V71.6674H23.8113V66.9054Z" fill="white"/>
<path d="M28.5715 66.9054H33.3343V71.6674H28.5715V66.9054Z" fill="white"/>
<path d="M33.3342 66.9054H38.0943V71.6674H33.3342V66.9054Z" fill="white"/>
<path d="M38.0942 66.9054H42.857V71.6674H38.0942V66.9054Z" fill="white"/>
<path d="M42.8572 66.9054H47.62V71.6674H42.8572V66.9054Z" fill="white"/>
<path d="M47.6199 66.9054H52.38V71.6674H47.6199V66.9054Z" fill="white"/>
<path d="M52.3799 66.9054H57.1427V71.6674H52.3799V66.9054Z" fill="white"/>
<path d="M57.1428 66.9054H61.9056V71.6674H57.1428V66.9054Z" fill="white"/>
<path d="M61.9055 66.9054H66.6683V71.6674H61.9055V66.9054Z" fill="white"/>
<path d="M66.6685 66.9054H71.4285V71.6674H66.6685V66.9054Z" fill="white"/>
<path d="M71.4285 66.9054H76.1913V71.6674H71.4285V66.9054Z" fill="white"/>
<path d="M76.1914 66.9054H80.9515V71.6674H76.1914V66.9054Z" fill="white"/>
<path d="M80.9514 66.9054H85.7142V71.6674H80.9514V66.9054Z" fill="white"/>
<path d="M85.7144 66.9054H90.4772V71.6674H85.7144V66.9054Z" fill="white"/>
<path d="M19.0486 71.6674H23.8114V76.4288H19.0486V71.6674Z" fill="white"/>
<path d="M23.8113 71.6674H28.5714V76.4288H23.8113V71.6674Z" fill="white"/>
<path d="M28.5715 71.6674H33.3343V76.4288H28.5715V71.6674Z" fill="white"/>
<path d="M33.3342 71.6674H38.097V76.4288H33.3342V71.6674Z" fill="white"/>
<path d="M38.0969 71.6674H42.857V76.4288H38.0969V71.6674Z" fill="white"/>
<path d="M42.8572 71.6674H47.62V76.4288H42.8572V71.6674Z" fill="white"/>
<path d="M47.6199 71.6674H52.38V76.4288H47.6199V71.6674Z" fill="white"/>
<path d="M52.3799 71.6674H57.1427V76.4288H52.3799V71.6674Z" fill="white"/>
<path d="M57.1428 71.6674H61.9056V76.4288H57.1428V71.6674Z" fill="white"/>
<path d="M61.9055 71.6674H66.6683V76.4288H61.9055V71.6674Z" fill="white"/>
<path d="M66.6685 71.6674H71.4285V76.4288H66.6685V71.6674Z" fill="white"/>
<path d="M71.4285 71.6674H76.1913V76.4288H71.4285V71.6674Z" fill="white"/>
<path d="M76.1914 71.6674H80.9515V76.4288H76.1914V71.6674Z" fill="white"/>
<path d="M80.9514 71.6674H85.7142V76.4288H80.9514V71.6674Z" fill="white"/>
<path d="M85.7144 71.6674H90.4772V76.4288H85.7144V71.6674Z" fill="white"/>
<path d="M90.4771 71.6674H95.2399V76.4288H90.4771V71.6674Z" fill="white"/>
<path d="M14.2856 76.4289H19.0485V81.1909H14.2856V76.4289Z" fill="white"/>
<path d="M19.0486 76.4289H23.8114V81.1909H19.0486V76.4289Z" fill="white"/>
<path d="M23.8113 76.4289H28.5714V81.1909H23.8113V76.4289Z" fill="white"/>
<path d="M28.5715 76.4289H33.3343V81.1909H28.5715V76.4289Z" fill="white"/>
<path d="M33.3342 76.4289H38.0943V81.1909H33.3342V76.4289Z" fill="white"/>
<path d="M38.0942 76.4289H42.857V81.1909H38.0942V76.4289Z" fill="white"/>
<path d="M42.8572 76.4289H47.62V81.1909H42.8572V76.4289Z" fill="white"/>
<path d="M47.6199 76.4289H52.38V81.1909H47.6199V76.4289Z" fill="white"/>
<path d="M52.3799 76.4289H57.1427V81.1909H52.3799V76.4289Z" fill="white"/>
<path d="M57.1428 76.4289H61.9056V81.1909H57.1428V76.4289Z" fill="white"/>
<path d="M61.9055 76.4289H66.6683V81.1909H61.9055V76.4289Z" fill="white"/>
<path d="M66.6685 76.4289H71.4285V81.1909H66.6685V76.4289Z" fill="white"/>
<path d="M71.4285 76.4289H76.1913V81.1909H71.4285V76.4289Z" fill="white"/>
<path d="M76.1914 76.4289H80.9515V81.1909H76.1914V76.4289Z" fill="white"/>
<path d="M80.9514 76.4289H85.7142V81.1909H80.9514V76.4289Z" fill="white"/>
<path d="M85.7144 76.4289H90.4772V81.1909H85.7144V76.4289Z" fill="white"/>
<path d="M90.4771 76.4289H95.2399V81.1909H90.4771V76.4289Z" fill="white"/>
<path d="M14.2856 81.1909H19.0485V85.9531H14.2856V81.1909Z" fill="white"/>
<path d="M19.0486 81.1909H23.8114V85.9531H19.0486V81.1909Z" fill="white"/>
<path d="M23.8113 81.1909H28.5714V85.9531H23.8113V81.1909Z" fill="white"/>
<path d="M28.5715 81.1909H33.3343V85.9531H28.5715V81.1909Z" fill="white"/>
<path d="M33.3342 81.1909H38.0943V85.9531H33.3342V81.1909Z" fill="white"/>
<path d="M38.0942 81.1909H42.857V85.9531H38.0942V81.1909Z" fill="white"/>
<path d="M42.8572 81.1909H47.62V85.9531H42.8572V81.1909Z" fill="white"/>
<path d="M47.6199 81.1909H52.38V85.9531H47.6199V81.1909Z" fill="white"/>
<path d="M52.3799 81.1909H57.1427V85.9531H52.3799V81.1909Z" fill="white"/>
<path d="M57.1428 81.1909H61.9056V85.9531H57.1428V81.1909Z" fill="white"/>
<path d="M61.9055 81.1909H66.6683V85.9531H61.9055V81.1909Z" fill="white"/>
<path d="M66.6685 81.1909H71.4285V85.9531H66.6685V81.1909Z" fill="white"/>
<path d="M71.4285 81.1909H76.1913V85.9531H71.4285V81.1909Z" fill="white"/>
<path d="M76.1914 81.1909H80.9515V85.9531H76.1914V81.1909Z" fill="white"/>
<path d="M80.9514 81.1909H85.7142V85.9531H80.9514V81.1909Z" fill="white"/>
<path d="M85.7144 81.1909H90.4772V85.9531H85.7144V81.1909Z" fill="white"/>
<path d="M90.4771 81.1909H95.2399V85.9531H90.4771V81.1909Z" fill="white"/>
<path d="M14.2856 85.9531H19.0485V90.7151H14.2856V85.9531Z" fill="white"/>
<path d="M19.0486 85.9531H23.8114V90.7151H19.0486V85.9531Z" fill="white"/>
<path d="M23.8113 85.9531H28.5714V90.7151H23.8113V85.9531Z" fill="white"/>
<path d="M28.5715 85.9531H33.3343V90.7151H28.5715V85.9531Z" fill="white"/>
<path d="M33.3342 85.9531H38.0943V90.7151H33.3342V85.9531Z" fill="white"/>
<path d="M38.0942 85.9531H42.857V90.7151H38.0942V85.9531Z" fill="white"/>
<path d="M42.8572 85.9531H47.62V90.7151H42.8572V85.9531Z" fill="white"/>
<path d="M47.6199 85.9531H52.38V90.7151H47.6199V85.9531Z" fill="white"/>
<path d="M52.3799 85.9531H57.1427V90.7151H52.3799V85.9531Z" fill="white"/>
<path d="M57.1428 85.9531H61.9056V90.7151H57.1428V85.9531Z" fill="white"/>
<path d="M61.9055 85.9531H66.6683V90.7151H61.9055V85.9531Z" fill="white"/>
<path d="M66.6685 85.9531H71.4285V90.7151H66.6685V85.9531Z" fill="white"/>
<path d="M71.4285 85.9531H76.1913V90.7151H71.4285V85.9531Z" fill="white"/>
<path d="M76.1914 85.9531H80.9515V90.7151H76.1914V85.9531Z" fill="white"/>
<path d="M80.9514 85.9531H85.7142V90.7151H80.9514V85.9531Z" fill="white"/>
<path d="M85.7144 85.9531H90.4772V90.7151H85.7144V85.9531Z" fill="white"/>
<path d="M90.4771 85.9531H95.2399V90.7151H90.4771V85.9531Z" fill="white"/>
<path d="M19.0486 90.7148H23.8114V95.4766H19.0486V90.7148Z" fill="white"/>
<path d="M23.8113 90.7148H28.5714V95.4766H23.8113V90.7148Z" fill="white"/>
<path d="M28.5715 90.7148H33.3343V95.4766H28.5715V90.7148Z" fill="white"/>
<path d="M33.3342 90.7148H38.097V95.4766H33.3342V90.7148Z" fill="white"/>
<path d="M38.0969 90.7148H42.857V95.4766H38.0969V90.7148Z" fill="white"/>
<path d="M42.8572 90.7148H47.62V95.4766H42.8572V90.7148Z" fill="white"/>
<path d="M47.6199 90.7148H52.38V95.4766H47.6199V90.7148Z" fill="white"/>
<path d="M52.3799 90.7148H57.1427V95.4766H52.3799V90.7148Z" fill="white"/>
<path d="M57.1428 90.7148H61.9056V95.4766H57.1428V90.7148Z" fill="white"/>
<path d="M61.9055 90.7148H66.6683V95.4766H61.9055V90.7148Z" fill="white"/>
<path d="M66.6685 90.7148H71.4285V95.4766H66.6685V90.7148Z" fill="white"/>
<path d="M71.4285 90.7148H76.1913V95.4766H71.4285V90.7148Z" fill="white"/>
<path d="M76.1914 90.7148H80.9515V95.4766H76.1914V90.7148Z" fill="white"/>
<path d="M80.9514 90.7148H85.7142V95.4766H80.9514V90.7148Z" fill="white"/>
<path d="M85.7144 90.7148H90.4772V95.4766H85.7144V90.7148Z" fill="white"/>
<path d="M90.4771 90.7148H95.2399V95.4766H90.4771V90.7148Z" fill="white"/>
<path d="M19.0486 95.4766H23.8114V100.238H19.0486V95.4766Z" fill="white"/>
<path d="M23.8113 95.4766H28.5714V100.238H23.8113V95.4766Z" fill="white"/>
<path d="M28.5715 95.4766H33.3343V100.238H28.5715V95.4766Z" fill="white"/>
<path d="M33.3342 95.4766H38.097V100.238H33.3342V95.4766Z" fill="white"/>
<path d="M38.0969 95.4766H42.857V100.238H38.0969V95.4766Z" fill="white"/>
<path d="M42.8572 95.4766H47.62V100.238H42.8572V95.4766Z" fill="white"/>
<path d="M47.6199 95.4766H52.38V100.238H47.6199V95.4766Z" fill="white"/>
<path d="M52.3799 95.4766H57.1427V100.238H52.3799V95.4766Z" fill="white"/>
<path d="M57.1428 95.4766H61.9056V100.238H57.1428V95.4766Z" fill="white"/>
<path d="M61.9055 95.4766H66.6683V100.238H61.9055V95.4766Z" fill="white"/>
<path d="M66.6685 95.4766H71.4285V100.238H66.6685V95.4766Z" fill="white"/>
<path d="M71.4285 95.4766H76.1913V100.238H71.4285V95.4766Z" fill="white"/>
<path d="M76.1914 95.4766H80.9515V100.238H76.1914V95.4766Z" fill="white"/>
<path d="M80.9514 95.4766H85.7142V100.238H80.9514V95.4766Z" fill="white"/>
<path d="M85.7144 95.4766H90.4772V100.238H85.7144V95.4766Z" fill="white"/>
<path d="M23.8113 0.238833H28.5714V5.00055H23.8113V0.238833Z" fill="#231F20"/>
<path d="M28.5715 0.238833H33.3343V5.00055H28.5715V0.238833Z" fill="#231F20"/>
<path d="M42.8572 0.238833H47.62V5.00055H42.8572V0.238833Z" fill="#231F20"/>
<path d="M47.6199 0.238833H52.38V5.00055H47.6199V0.238833Z" fill="#231F20"/>
<path d="M52.3799 0.238833H57.1427V5.00055H52.3799V0.238833Z" fill="#231F20"/>
<path d="M57.1428 0.238833H61.9056V5.00055H57.1428V0.238833Z" fill="#231F20"/>
<path d="M61.9055 0.238833H66.6683V5.00055H61.9055V0.238833Z" fill="#231F20"/>
<path d="M66.6685 0.238833H71.4285V5.00055H66.6685V0.238833Z" fill="#231F20"/>
<path d="M80.9514 0.238833H85.7142V5.00055H80.9514V0.238833Z" fill="#231F20"/>
<path d="M85.7144 0.238833H90.4772V5.00055H85.7144V0.238833Z" fill="#231F20"/>
<path d="M19.0486 5.00052H23.8114V9.76251H19.0486V5.00052Z" fill="#231F20"/>
<path d="M23.8113 5.00052H28.5714V9.76251H23.8113V5.00052Z" fill="#231F20"/>
<path d="M28.5715 5.00052H33.3343V9.76251H28.5715V5.00052Z" fill="#231F20"/>
<path d="M33.3342 5.00052H38.097V9.76251H33.3342V5.00052Z" fill="#231F20"/>
<path d="M38.0969 5.00052H42.857V9.76251H38.0969V5.00052Z" fill="#231F20"/>
<path d="M71.4285 5.00052H76.1913V9.76251H71.4285V5.00052Z" fill="#231F20"/>
<path d="M76.1914 5.00052H80.9515V9.76251H76.1914V5.00052Z" fill="#231F20"/>
<path d="M80.9514 5.00052H85.7142V9.76251H80.9514V5.00052Z" fill="#231F20"/>
<path d="M85.7144 5.00052H90.4772V9.76251H85.7144V5.00052Z" fill="#231F20"/>
<path d="M90.4771 5.00052H95.2399V9.76251H90.4771V5.00052Z" fill="#231F20"/>
<path d="M19.0486 9.76256H23.8114V14.5243H19.0486V9.76256Z" fill="#231F20"/>
<path d="M23.8113 9.76256H28.5714V14.5243H23.8113V9.76256Z" fill="#231F20"/>
<path d="M28.5715 9.76256H33.3343V14.5243H28.5715V9.76256Z" fill="#231F20"/>
<path d="M80.9514 9.76256H85.7142V14.5243H80.9514V9.76256Z" fill="#231F20"/>
<path d="M85.7144 9.76256H90.4772V14.5243H85.7144V9.76256Z" fill="#231F20"/>
<path d="M90.4771 9.76256H95.2399V14.5243H90.4771V9.76256Z" fill="#231F20"/>
<path d="M23.8113 14.5243H28.5714V19.2866H23.8113V14.5243Z" fill="#231F20"/>
<path d="M85.7144 14.5243H90.4772V19.2866H85.7144V14.5243Z" fill="#231F20"/>
<path d="M19.0486 19.2866H23.8114V24.048H19.0486V19.2866Z" fill="#231F20"/>
<path d="M85.7144 19.2866H90.4772V24.048H85.7144V19.2866Z" fill="#231F20"/>
<path d="M19.0486 24.048H23.8114V28.8103H19.0486V24.048Z" fill="#231F20"/>
<path d="M90.4771 24.048H95.2399V28.8103H90.4771V24.048Z" fill="#231F20"/>
<path d="M14.2856 28.8103H19.0485V33.572H14.2856V28.8103Z" fill="#231F20"/>
<path d="M90.4771 28.8103H95.2399V33.572H90.4771V28.8103Z" fill="#231F20"/>
<path d="M14.2856 33.572H19.0485V38.334H14.2856V33.572Z" fill="#231F20"/>
<path d="M90.4771 33.572H95.2399V38.334H90.4771V33.572Z" fill="#231F20"/>
<path d="M14.2856 38.334H19.0485V43.0959H14.2856V38.334Z" fill="#231F20"/>
<path d="M90.4771 38.334H95.2399V43.0959H90.4771V38.334Z" fill="#231F20"/>
<path d="M19.0486 43.096H23.8114V47.8577H19.0486V43.096Z" fill="#231F20"/>
<path d="M90.4771 43.096H95.2399V47.8577H90.4771V43.096Z" fill="#231F20"/>
<path d="M19.0486 47.8577H23.8114V52.6197H19.0486V47.8577Z" fill="#231F20"/>
<path d="M23.8113 47.8577H28.5714V52.6197H23.8113V47.8577Z" fill="#231F20"/>
<path d="M28.5715 47.8577H33.3343V52.6197H28.5715V47.8577Z" fill="#231F20"/>
<path d="M85.7144 47.8577H90.4772V52.6197H85.7144V47.8577Z" fill="#231F20"/>
<path d="M90.4771 47.8577H95.2399V52.6197H90.4771V47.8577Z" fill="#231F20"/>
<path d="M14.2856 52.6191H19.0485V57.3813H14.2856V52.6191Z" fill="#231F20"/>
<path d="M19.0486 52.6191H23.8114V57.3813H19.0486V52.6191Z" fill="#231F20"/>
<path d="M23.8113 52.6191H28.5714V57.3813H23.8113V52.6191Z" fill="#231F20"/>
<path d="M28.5715 52.6191H33.3343V57.3813H28.5715V52.6191Z" fill="#231F20"/>
<path d="M33.3342 52.6191H38.097V57.3813H33.3342V52.6191Z" fill="#231F20"/>
<path d="M38.0969 52.6191H42.857V57.3813H38.0969V52.6191Z" fill="#231F20"/>
<path d="M42.8572 52.6191H47.62V57.3813H42.8572V52.6191Z" fill="#231F20"/>
<path d="M47.6199 52.6191H52.38V57.3813H47.6199V52.6191Z" fill="#231F20"/>
<path d="M52.3799 52.6191H57.1427V57.3813H52.3799V52.6191Z" fill="#231F20"/>
<path d="M57.1428 52.6191H61.9056V57.3813H57.1428V52.6191Z" fill="#231F20"/>
<path d="M61.9055 52.6191H66.6683V57.3813H61.9055V52.6191Z" fill="#231F20"/>
<path d="M66.6685 52.6191H71.4285V57.3813H66.6685V52.6191Z" fill="#231F20"/>
<path d="M71.4285 52.6191H76.1913V57.3813H71.4285V52.6191Z" fill="#231F20"/>
<path d="M76.1914 52.6191H80.9515V57.3813H76.1914V52.6191Z" fill="#231F20"/>
<path d="M80.9514 52.6191H85.7142V57.3813H80.9514V52.6191Z" fill="#231F20"/>
<path d="M85.7144 52.6191H90.4772V57.3813H85.7144V52.6191Z" fill="#231F20"/>
<path d="M90.4771 52.6191H95.2399V57.3813H90.4771V52.6191Z" fill="#231F20"/>
<path d="M9.52563 57.3814H14.2857V62.1434H9.52563V57.3814Z" fill="#231F20"/>
<path d="M14.2856 57.3814H19.0485V62.1434H14.2856V57.3814Z" fill="#231F20"/>
<path d="M19.0486 57.3814H23.8114V62.1434H19.0486V57.3814Z" fill="#231F20"/>
<path d="M23.8113 57.3814H28.5714V62.1434H23.8113V57.3814Z" fill="#231F20"/>
<path d="M28.5715 57.3814H33.3343V62.1434H28.5715V57.3814Z" fill="#231F20"/>
<path d="M33.3342 57.3814H38.097V62.1434H33.3342V57.3814Z" fill="#231F20"/>
<path d="M38.0969 57.3814H42.857V62.1434H38.0969V57.3814Z" fill="#231F20"/>
<path d="M42.8572 57.3814H47.62V62.1434H42.8572V57.3814Z" fill="#231F20"/>
<path d="M47.6199 57.3814H52.38V62.1434H47.6199V57.3814Z" fill="#231F20"/>
<path d="M52.3799 57.3814H57.1427V62.1434H52.3799V57.3814Z" fill="#231F20"/>
<path d="M57.1428 57.3814H61.9056V62.1434H57.1428V57.3814Z" fill="#231F20"/>
<path d="M61.9055 57.3814H66.6683V62.1434H61.9055V57.3814Z" fill="#231F20"/>
<path d="M66.6685 57.3814H71.4285V62.1434H66.6685V57.3814Z" fill="#231F20"/>
<path d="M71.4285 57.3814H76.1913V62.1434H71.4285V57.3814Z" fill="#231F20"/>
<path d="M76.1914 57.3814H80.9515V62.1434H76.1914V57.3814Z" fill="#231F20"/>
<path d="M80.9514 57.3814H85.7142V62.1434H80.9514V57.3814Z" fill="#231F20"/>
<path d="M85.7144 57.3814H90.4772V62.1434H85.7144V57.3814Z" fill="#231F20"/>
<path d="M90.4771 57.3814H95.2399V62.1434H90.4771V57.3814Z" fill="#231F20"/>
<path d="M4.7627 62.1434H9.52553V66.9054H4.7627V62.1434Z" fill="#231F20"/>
<path d="M9.52563 62.1434H14.2857V66.9054H9.52563V62.1434Z" fill="#231F20"/>
<path d="M14.2856 62.1434H19.0485V66.9054H14.2856V62.1434Z" fill="#231F20"/>
<path d="M19.0486 62.1434H23.8114V66.9054H19.0486V62.1434Z" fill="#231F20"/>
<path d="M23.8113 62.1434H28.5714V66.9054H23.8113V62.1434Z" fill="#231F20"/>
<path d="M85.7144 62.1434H90.4772V66.9054H85.7144V62.1434Z" fill="#231F20"/>
<path d="M90.4771 62.1434H95.2399V66.9054H90.4771V62.1434Z" fill="#231F20"/>
<path d="M4.7627 66.9054H9.52553V71.6674H4.7627V66.9054Z" fill="#231F20"/>
<path d="M9.52563 66.9054H14.2857V71.6674H9.52563V66.9054Z" fill="#231F20"/>
<path d="M14.2856 66.9054H19.0485V71.6674H14.2856V66.9054Z" fill="#231F20"/>
<path d="M19.0486 66.9054H23.8114V71.6674H19.0486V66.9054Z" fill="#231F20"/>
<path d="M90.4771 66.9054H95.2399V71.6674H90.4771V66.9054Z" fill="#231F20"/>
<path d="M95.2397 66.9054H99.9998V71.6674H95.2397V66.9054Z" fill="#231F20"/>
<path d="M4.7627 71.6674H9.52553V76.4288H4.7627V71.6674Z" fill="#231F20"/>
<path d="M9.52563 71.6674H14.2857V76.4288H9.52563V71.6674Z" fill="#231F20"/>
<path d="M14.2856 71.6674H19.0485V76.4288H14.2856V71.6674Z" fill="#231F20"/>
<path d="M95.2397 71.6674H99.9998V76.4288H95.2397V71.6674Z" fill="#231F20"/>
<path d="M9.52563 76.4289H14.2857V81.1909H9.52563V76.4289Z" fill="#231F20"/>
<path d="M95.2397 76.4289H99.9998V81.1909H95.2397V76.4289Z" fill="#231F20"/>
<path d="M0 81.1909H4.76281V85.9531H0V81.1909Z" fill="#231F20"/>
<path d="M4.7627 81.1909H9.52553V85.9531H4.7627V81.1909Z" fill="#231F20"/>
<path d="M9.52563 81.1909H14.2857V85.9531H9.52563V81.1909Z" fill="#231F20"/>
<path d="M95.2397 81.1909H99.9998V85.9531H95.2397V81.1909Z" fill="#231F20"/>
<path d="M0 85.9531H4.76281V90.7151H0V85.9531Z" fill="#231F20"/>
<path d="M4.7627 85.9531H9.52553V90.7151H4.7627V85.9531Z" fill="#231F20"/>
<path d="M9.52563 85.9531H14.2857V90.7151H9.52563V85.9531Z" fill="#231F20"/>
<path d="M95.2397 85.9531H99.9998V90.7151H95.2397V85.9531Z" fill="#231F20"/>
<path d="M0 90.7148H4.76281V95.4766H0V90.7148Z" fill="#231F20"/>
<path d="M4.7627 90.7148H9.52553V95.4766H4.7627V90.7148Z" fill="#231F20"/>
<path d="M9.52563 90.7148H14.2857V95.4766H9.52563V90.7148Z" fill="#231F20"/>
<path d="M14.2856 90.7148H19.0485V95.4766H14.2856V90.7148Z" fill="#231F20"/>
<path d="M95.2397 90.7148H99.9998V95.4766H95.2397V90.7148Z" fill="#231F20"/>
<path d="M4.7627 95.4766H9.52553V100.238H4.7627V95.4766Z" fill="#231F20"/>
<path d="M9.52563 95.4766H14.2857V100.238H9.52563V95.4766Z" fill="#231F20"/>
<path d="M14.2856 95.4766H19.0485V100.238H14.2856V95.4766Z" fill="#231F20"/>
<path d="M90.4771 95.4766H95.2399V100.238H90.4771V95.4766Z" fill="#231F20"/>
<path d="M14.2856 100.238H19.0485V105H14.2856V100.238Z" fill="#231F20"/>
<path d="M19.0486 100.238H23.8114V105H19.0486V100.238Z" fill="#231F20"/>
<path d="M23.8113 100.238H28.5714V105H23.8113V100.238Z" fill="#231F20"/>
<path d="M28.5715 100.238H33.3343V105H28.5715V100.238Z" fill="#231F20"/>
<path d="M33.3342 100.238H38.097V105H33.3342V100.238Z" fill="#231F20"/>
<path d="M38.0969 100.238H42.857V105H38.0969V100.238Z" fill="#231F20"/>
<path d="M42.8572 100.238H47.62V105H42.8572V100.238Z" fill="#231F20"/>
<path d="M47.6199 100.238H52.38V105H47.6199V100.238Z" fill="#231F20"/>
<path d="M52.3799 100.238H57.1427V105H52.3799V100.238Z" fill="#231F20"/>
<path d="M57.1428 100.238H61.9056V105H57.1428V100.238Z" fill="#231F20"/>
<path d="M61.9055 100.238H66.6683V105H61.9055V100.238Z" fill="#231F20"/>
<path d="M66.6685 100.238H71.4285V105H66.6685V100.238Z" fill="#231F20"/>
<path d="M71.4285 100.238H76.1913V105H71.4285V100.238Z" fill="#231F20"/>
<path d="M76.1914 100.238H80.9515V105H76.1914V100.238Z" fill="#231F20"/>
<path d="M80.9514 100.238H85.7142V105H80.9514V100.238Z" fill="#231F20"/>
<path d="M85.7144 100.238H90.4772V105H85.7144V100.238Z" fill="#231F20"/>
</svg>
