<svg width="100" height="100" viewBox="0 0 100 100" fill="none" xmlns="http://www.w3.org/2000/svg">
<path d="M34.9998 5.0002H39.9999V9.99976H34.9998V5.0002Z" fill="white"/>
<path d="M39.9999 5.0002H44.9997V9.99976H39.9999V5.0002Z" fill="white"/>
<path d="M44.9998 5.0002H50.0002V9.99976H44.9998V5.0002Z" fill="white"/>
<path d="M50.0002 5.0002H54.9998V9.99976H50.0002V5.0002Z" fill="white"/>
<path d="M54.9997 5.0002H59.9998V9.99976H54.9997V5.0002Z" fill="white"/>
<path d="M59.9999 5.0002H65V9.99976H59.9999V5.0002Z" fill="white"/>
<path d="M25.0004 9.99954H29.9996V15.0002H25.0004V9.99954Z" fill="white"/>
<path d="M29.9996 9.99954H34.9997V15.0002H29.9996V9.99954Z" fill="white"/>
<path d="M34.9998 9.99954H39.9999V15.0002H34.9998V9.99954Z" fill="white"/>
<path d="M39.9999 9.99954H44.9997V15.0002H39.9999V9.99954Z" fill="white"/>
<path d="M44.9998 9.99954H50.0002V15.0002H44.9998V9.99954Z" fill="white"/>
<path d="M50.0002 9.99954H54.9998V15.0002H50.0002V9.99954Z" fill="white"/>
<path d="M54.9997 9.99954H59.9998V15.0002H54.9997V9.99954Z" fill="white"/>
<path d="M59.9999 9.99954H65V15.0002H59.9999V9.99954Z" fill="white"/>
<path d="M64.9999 9.99954H69.9998V15.0002H64.9999V9.99954Z" fill="white"/>
<path d="M69.9998 9.99954H75.0002V15.0002H69.9998V9.99954Z" fill="white"/>
<path d="M20 15.0004H25.0004V20.0005H20V15.0004Z" fill="white"/>
<path d="M25.0004 15.0004H29.9996V20.0005H25.0004V15.0004Z" fill="white"/>
<path d="M29.9996 15.0004H34.9997V20.0005H29.9996V15.0004Z" fill="white"/>
<path d="M34.9998 15.0004H39.9999V20.0005H34.9998V15.0004Z" fill="white"/>
<path d="M39.9999 15.0004H44.9997V20.0005H39.9999V15.0004Z" fill="white"/>
<path d="M44.9998 15.0004H50.0002V20.0005H44.9998V15.0004Z" fill="white"/>
<path d="M50.0002 15.0004H54.9998V20.0005H50.0002V15.0004Z" fill="white"/>
<path d="M54.9997 15.0004H59.9998V20.0005H54.9997V15.0004Z" fill="white"/>
<path d="M59.9999 15.0004H65V20.0005H59.9999V15.0004Z" fill="white"/>
<path d="M64.9999 15.0004H69.9998V20.0005H64.9999V15.0004Z" fill="white"/>
<path d="M69.9998 15.0004H75.0002V20.0005H69.9998V15.0004Z" fill="white"/>
<path d="M75.0002 15.0004H79.9998V20.0005H75.0002V15.0004Z" fill="white"/>
<path d="M15.0002 20.0004H19.9997V25.0002H15.0002V20.0004Z" fill="white"/>
<path d="M19.9996 20.0004H25.0003V25.0002H19.9996V20.0004Z" fill="white"/>
<path d="M25.0004 20.0004H29.9996V25.0002H25.0004V20.0004Z" fill="white"/>
<path d="M29.9996 20.0004H34.9997V25.0002H29.9996V20.0004Z" fill="white"/>
<path d="M34.9998 20.0004H39.9999V25.0002H34.9998V20.0004Z" fill="white"/>
<path d="M39.9999 20.0004H44.9997V25.0002H39.9999V20.0004Z" fill="white"/>
<path d="M44.9998 20.0004H50.0002V25.0002H44.9998V20.0004Z" fill="white"/>
<path d="M50.0002 20.0004H54.9998V25.0002H50.0002V20.0004Z" fill="white"/>
<path d="M54.9997 20.0004H59.9998V25.0002H54.9997V20.0004Z" fill="white"/>
<path d="M59.9999 20.0004H65V25.0002H59.9999V20.0004Z" fill="white"/>
<path d="M64.9999 20.0004H69.9998V25.0002H64.9999V20.0004Z" fill="white"/>
<path d="M69.9998 20.0004H75.0002V25.0002H69.9998V20.0004Z" fill="white"/>
<path d="M75.0002 20.0004H79.9998V25.0002H75.0002V20.0004Z" fill="white"/>
<path d="M79.9998 20.0004H84.9997V25.0002H79.9998V20.0004Z" fill="white"/>
<path d="M15.0002 25.0004H20V30.0002H15.0002V25.0004Z" fill="white"/>
<path d="M20 25.0004H25.0004V30.0002H20V25.0004Z" fill="white"/>
<path d="M25.0004 25.0004H29.9996V30.0002H25.0004V25.0004Z" fill="white"/>
<path d="M29.9996 25.0004H34.9997V30.0002H29.9996V25.0004Z" fill="white"/>
<path d="M34.9998 25.0004H39.9999V30.0002H34.9998V25.0004Z" fill="white"/>
<path d="M39.9999 25.0004H44.9997V30.0002H39.9999V25.0004Z" fill="white"/>
<path d="M44.9998 25.0004H50.0002V30.0002H44.9998V25.0004Z" fill="white"/>
<path d="M50.0002 25.0004H55V30.0002H50.0002V25.0004Z" fill="white"/>
<path d="M55 25.0004H60.0001V30.0002H55V25.0004Z" fill="white"/>
<path d="M60.0002 25.0004H65V30.0002H60.0002V25.0004Z" fill="white"/>
<path d="M64.9999 25.0004H69.9998V30.0002H64.9999V25.0004Z" fill="white"/>
<path d="M69.9998 25.0004H75.0002V30.0002H69.9998V25.0004Z" fill="white"/>
<path d="M75.0002 25.0004H79.9998V30.0002H75.0002V25.0004Z" fill="white"/>
<path d="M79.9998 25.0004H84.9997V30.0002H79.9998V25.0004Z" fill="white"/>
<path d="M9.99998 30.0001H15.0001V35.0002H9.99998V30.0001Z" fill="white"/>
<path d="M15.0002 30.0001H20V35.0002H15.0002V30.0001Z" fill="white"/>
<path d="M20 30.0001H25.0004V35.0002H20V30.0001Z" fill="white"/>
<path d="M39.9999 30.0001H44.9997V35.0002H39.9999V30.0001Z" fill="white"/>
<path d="M44.9998 30.0001H50.0002V35.0002H44.9998V30.0001Z" fill="white"/>
<path d="M50.0002 30.0001H55V35.0002H50.0002V30.0001Z" fill="white"/>
<path d="M55 30.0001H60.0001V35.0002H55V30.0001Z" fill="white"/>
<path d="M75.0002 30.0001H79.9998V35.0002H75.0002V30.0001Z" fill="white"/>
<path d="M79.9998 30.0001H84.9997V35.0002H79.9998V30.0001Z" fill="white"/>
<path d="M84.9996 30.0001H89.9997V35.0002H84.9996V30.0001Z" fill="white"/>
<path d="M9.99998 35.0004H15.0001V40.0005H9.99998V35.0004Z" fill="white"/>
<path d="M15.0002 35.0004H20V40.0005H15.0002V35.0004Z" fill="white"/>
<path d="M34.9998 35.0004H39.9999V40.0005H34.9998V35.0004Z" fill="white"/>
<path d="M39.9999 35.0004H44.9997V40.0005H39.9999V35.0004Z" fill="white"/>
<path d="M44.9998 35.0004H50.0002V40.0005H44.9998V35.0004Z" fill="white"/>
<path d="M50.0002 35.0004H55V40.0005H50.0002V35.0004Z" fill="white"/>
<path d="M55 35.0004H60.0001V40.0005H55V35.0004Z" fill="white"/>
<path d="M60.0002 35.0004H65V40.0005H60.0002V35.0004Z" fill="white"/>
<path d="M79.9998 35.0004H84.9997V40.0005H79.9998V35.0004Z" fill="white"/>
<path d="M84.9996 35.0004H89.9997V40.0005H84.9996V35.0004Z" fill="white"/>
<path d="M9.99998 40.0004H15.0001V45.0005H9.99998V40.0004Z" fill="white"/>
<path d="M15.0002 40.0004H20V45.0005H15.0002V40.0004Z" fill="white"/>
<path d="M34.9998 40.0004H39.9999V45.0005H34.9998V40.0004Z" fill="white"/>
<path d="M39.9999 40.0004H44.9997V45.0005H39.9999V40.0004Z" fill="white"/>
<path d="M44.9998 40.0004H50.0002V45.0005H44.9998V40.0004Z" fill="white"/>
<path d="M50.0002 40.0004H54.9998V45.0005H50.0002V40.0004Z" fill="white"/>
<path d="M54.9997 40.0004H60.0001V45.0005H54.9997V40.0004Z" fill="white"/>
<path d="M60.0002 40.0004H65V45.0005H60.0002V40.0004Z" fill="white"/>
<path d="M79.9998 40.0004H84.9997V45.0005H79.9998V40.0004Z" fill="white"/>
<path d="M84.9996 40.0004H89.9997V45.0005H84.9996V40.0004Z" fill="white"/>
<path d="M9.99998 45.0002H15.0001V49.9998H9.99998V45.0002Z" fill="white"/>
<path d="M15.0002 45.0002H20V49.9998H15.0002V45.0002Z" fill="white"/>
<path d="M29.9996 45.0002H34.9997V49.9998H29.9996V45.0002Z" fill="white"/>
<path d="M34.9998 45.0002H39.9999V49.9998H34.9998V45.0002Z" fill="white"/>
<path d="M39.9999 45.0002H44.9997V49.9998H39.9999V45.0002Z" fill="white"/>
<path d="M55 45.0002H60.0001V49.9998H55V45.0002Z" fill="white"/>
<path d="M60.0002 45.0002H65V49.9998H60.0002V45.0002Z" fill="white"/>
<path d="M64.9999 45.0002H69.9998V49.9998H64.9999V45.0002Z" fill="white"/>
<path d="M79.9998 45.0002H84.9997V49.9998H79.9998V45.0002Z" fill="white"/>
<path d="M84.9996 45.0002H89.9997V49.9998H84.9996V45.0002Z" fill="white"/>
<path d="M15.0002 49.9998H20V55.0002H15.0002V49.9998Z" fill="white"/>
<path d="M20 49.9998H25.0004V55.0002H20V49.9998Z" fill="white"/>
<path d="M25.0004 49.9998H29.9996V55.0002H25.0004V49.9998Z" fill="white"/>
<path d="M29.9996 49.9998H34.9997V55.0002H29.9996V49.9998Z" fill="white"/>
<path d="M34.9998 49.9998H39.9999V55.0002H34.9998V49.9998Z" fill="white"/>
<path d="M39.9999 49.9998H44.9997V55.0002H39.9999V49.9998Z" fill="white"/>
<path d="M44.9998 49.9998H50.0002V55.0002H44.9998V49.9998Z" fill="white"/>
<path d="M50.0002 49.9998H54.9998V55.0002H50.0002V49.9998Z" fill="white"/>
<path d="M54.9997 49.9998H60.0001V55.0002H54.9997V49.9998Z" fill="white"/>
<path d="M60.0002 49.9998H65V55.0002H60.0002V49.9998Z" fill="white"/>
<path d="M64.9999 49.9998H69.9998V55.0002H64.9999V49.9998Z" fill="white"/>
<path d="M69.9998 49.9998H75.0002V55.0002H69.9998V49.9998Z" fill="white"/>
<path d="M75.0002 49.9998H79.9998V55.0002H75.0002V49.9998Z" fill="white"/>
<path d="M79.9998 49.9998H84.9997V55.0002H79.9998V49.9998Z" fill="white"/>
<path d="M34.9998 55.0003H39.9999V60.0007H34.9998V55.0003Z" fill="white"/>
<path d="M39.9999 55.0003H44.9997V60.0007H39.9999V55.0003Z" fill="white"/>
<path d="M44.9998 55.0003H50.0002V60.0007H44.9998V55.0003Z" fill="white"/>
<path d="M50.0002 55.0003H54.9998V60.0007H50.0002V55.0003Z" fill="white"/>
<path d="M54.9997 55.0003H60.0001V60.0007H54.9997V55.0003Z" fill="white"/>
<path d="M60.0002 55.0003H65V60.0007H60.0002V55.0003Z" fill="white"/>
<path d="M15.0002 65.0004H20V70H15.0002V65.0004Z" fill="white"/>
<path d="M39.9999 65.0004H44.9997V70H39.9999V65.0004Z" fill="white"/>
<path d="M44.9998 65.0004H50.0002V70H44.9998V65.0004Z" fill="white"/>
<path d="M50.0002 65.0004H54.9998V70H50.0002V65.0004Z" fill="white"/>
<path d="M54.9997 65.0004H60.0001V70H54.9997V65.0004Z" fill="white"/>
<path d="M79.9998 65.0004H84.9997V70H79.9998V65.0004Z" fill="white"/>
<path d="M15.0002 70.0001H20V75.0005H15.0002V70.0001Z" fill="white"/>
<path d="M44.9998 70.0001H50.0002V75.0005H44.9998V70.0001Z" fill="white"/>
<path d="M50.0002 70.0001H54.9998V75.0005H50.0002V70.0001Z" fill="white"/>
<path d="M79.9998 70.0001H84.9997V75.0005H79.9998V70.0001Z" fill="white"/>
<path d="M15.0002 75.0006H20V80.001H15.0002V75.0006Z" fill="white"/>
<path d="M20 75.0006H25.0004V80.001H20V75.0006Z" fill="white"/>
<path d="M44.9998 75.0006H50.0002V80.001H44.9998V75.0006Z" fill="white"/>
<path d="M50.0002 75.0006H54.9998V80.001H50.0002V75.0006Z" fill="white"/>
<path d="M75.0002 75.0006H79.9998V80.001H75.0002V75.0006Z" fill="white"/>
<path d="M79.9998 75.0006H84.9997V80.001H79.9998V75.0006Z" fill="white"/>
<path d="M20 80.0009H25.0004V85.001H20V80.0009Z" fill="white"/>
<path d="M25.0004 80.0009H29.9996V85.001H25.0004V80.0009Z" fill="white"/>
<path d="M29.9996 80.0009H34.9997V85.001H29.9996V80.0009Z" fill="white"/>
<path d="M34.9998 80.0009H39.9999V85.001H34.9998V80.0009Z" fill="white"/>
<path d="M39.9999 80.0009H44.9997V85.001H39.9999V80.0009Z" fill="white"/>
<path d="M44.9998 80.0009H50.0002V85.001H44.9998V80.0009Z" fill="white"/>
<path d="M50.0002 80.0009H54.9998V85.001H50.0002V80.0009Z" fill="white"/>
<path d="M54.9997 80.0009H59.9998V85.001H54.9997V80.0009Z" fill="white"/>
<path d="M59.9999 80.0009H65V85.001H59.9999V80.0009Z" fill="white"/>
<path d="M64.9999 80.0009H69.9998V85.001H64.9999V80.0009Z" fill="white"/>
<path d="M69.9998 80.0009H75.0002V85.001H69.9998V80.0009Z" fill="white"/>
<path d="M75.0002 80.0009H79.9998V85.001H75.0002V80.0009Z" fill="white"/>
<path d="M20 85.0007H25.0004V90H20V85.0007Z" fill="white"/>
<path d="M25.0004 85.0007H29.9996V90H25.0004V85.0007Z" fill="white"/>
<path d="M29.9996 85.0007H34.9997V90H29.9996V85.0007Z" fill="white"/>
<path d="M34.9998 85.0007H39.9999V90H34.9998V85.0007Z" fill="white"/>
<path d="M39.9999 85.0007H44.9997V90H39.9999V85.0007Z" fill="white"/>
<path d="M44.9998 85.0007H50.0002V90H44.9998V85.0007Z" fill="white"/>
<path d="M50.0002 85.0007H55V90H50.0002V85.0007Z" fill="white"/>
<path d="M55 85.0007H60.0001V90H55V85.0007Z" fill="white"/>
<path d="M60.0002 85.0007H65V90H60.0002V85.0007Z" fill="white"/>
<path d="M64.9999 85.0007H69.9998V90H64.9999V85.0007Z" fill="white"/>
<path d="M69.9998 85.0007H75.0002V90H69.9998V85.0007Z" fill="white"/>
<path d="M75.0002 85.0007H79.9998V90H75.0002V85.0007Z" fill="white"/>
<path d="M29.9996 90.0001H34.9997V95.0002H29.9996V90.0001Z" fill="white"/>
<path d="M34.9998 90.0001H39.9999V95.0002H34.9998V90.0001Z" fill="white"/>
<path d="M39.9999 90.0001H44.9997V95.0002H39.9999V90.0001Z" fill="white"/>
<path d="M44.9998 90.0001H50.0002V95.0002H44.9998V90.0001Z" fill="white"/>
<path d="M50.0002 90.0001H54.9998V95.0002H50.0002V90.0001Z" fill="white"/>
<path d="M54.9997 90.0001H60.0001V95.0002H54.9997V90.0001Z" fill="white"/>
<path d="M60.0002 90.0001H65V95.0002H60.0002V90.0001Z" fill="white"/>
<path d="M64.9999 90.0001H69.9998V95.0002H64.9999V90.0001Z" fill="white"/>
<path d="M15.0002 0.000116348H20V5.00024H15.0002V0.000116348Z" fill="#231F20"/>
<path d="M20 0.000116348H25.0004V5.00024H20V0.000116348Z" fill="#231F20"/>
<path d="M34.9998 0.000116348H39.9999V5.00024H34.9998V0.000116348Z" fill="#231F20"/>
<path d="M39.9999 0.000116348H44.9997V5.00024H39.9999V0.000116348Z" fill="#231F20"/>
<path d="M44.9998 0.000116348H50.0002V5.00024H44.9998V0.000116348Z" fill="#231F20"/>
<path d="M50.0002 0.000116348H54.9998V5.00024H50.0002V0.000116348Z" fill="#231F20"/>
<path d="M54.9997 0.000116348H59.9998V5.00024H54.9997V0.000116348Z" fill="#231F20"/>
<path d="M59.9999 0.000116348H65V5.00024H59.9999V0.000116348Z" fill="#231F20"/>
<path d="M75.0002 0.000116348H79.9998V5.00024H75.0002V0.000116348Z" fill="#231F20"/>
<path d="M79.9998 0.000116348H84.9997V5.00024H79.9998V0.000116348Z" fill="#231F20"/>
<path d="M9.99998 5.0002H15.0001V9.99976H9.99998V5.0002Z" fill="#231F20"/>
<path d="M15.0002 5.0002H20V9.99976H15.0002V5.0002Z" fill="#231F20"/>
<path d="M20 5.0002H25.0004V9.99976H20V5.0002Z" fill="#231F20"/>
<path d="M25.0004 5.0002H29.9996V9.99976H25.0004V5.0002Z" fill="#231F20"/>
<path d="M29.9996 5.0002H34.9997V9.99976H29.9996V5.0002Z" fill="#231F20"/>
<path d="M64.9999 5.0002H69.9998V9.99976H64.9999V5.0002Z" fill="#231F20"/>
<path d="M69.9998 5.0002H75.0002V9.99976H69.9998V5.0002Z" fill="#231F20"/>
<path d="M75.0002 5.0002H79.9998V9.99976H75.0002V5.0002Z" fill="#231F20"/>
<path d="M79.9998 5.0002H84.9997V9.99976H79.9998V5.0002Z" fill="#231F20"/>
<path d="M84.9996 5.0002H89.9997V9.99976H84.9996V5.0002Z" fill="#231F20"/>
<path d="M9.99998 9.99954H15.0001V15.0002H9.99998V9.99954Z" fill="#231F20"/>
<path d="M15.0002 9.99954H20V15.0002H15.0002V9.99954Z" fill="#231F20"/>
<path d="M20 9.99954H25.0004V15.0002H20V9.99954Z" fill="#231F20"/>
<path d="M75.0002 9.99954H79.9998V15.0002H75.0002V9.99954Z" fill="#231F20"/>
<path d="M79.9998 9.99954H84.9997V15.0002H79.9998V9.99954Z" fill="#231F20"/>
<path d="M84.9996 9.99954H89.9997V15.0002H84.9996V9.99954Z" fill="#231F20"/>
<path d="M15.0002 15.0004H20V20.0005H15.0002V15.0004Z" fill="#231F20"/>
<path d="M79.9998 15.0004H84.9997V20.0005H79.9998V15.0004Z" fill="#231F20"/>
<path d="M9.99998 20.0004H15.0001V25.0002H9.99998V20.0004Z" fill="#231F20"/>
<path d="M84.9996 20.0004H89.9997V25.0002H84.9996V20.0004Z" fill="#231F20"/>
<path d="M9.99998 25.0004H15.0001V30.0002H9.99998V25.0004Z" fill="#231F20"/>
<path d="M84.9996 25.0004H90V30.0002H84.9996V25.0004Z" fill="#231F20"/>
<path d="M4.99999 30.0001H10V35.0002H4.99999V30.0001Z" fill="#231F20"/>
<path d="M25.0004 30.0001H29.9996V35.0002H25.0004V30.0001Z" fill="#231F20"/>
<path d="M29.9996 30.0001H34.9997V35.0002H29.9996V30.0001Z" fill="#231F20"/>
<path d="M34.9998 30.0001H39.9999V35.0002H34.9998V30.0001Z" fill="#231F20"/>
<path d="M60.0002 30.0001H65V35.0002H60.0002V30.0001Z" fill="#231F20"/>
<path d="M64.9999 30.0001H69.9998V35.0002H64.9999V30.0001Z" fill="#231F20"/>
<path d="M69.9998 30.0001H75.0002V35.0002H69.9998V30.0001Z" fill="#231F20"/>
<path d="M89.9998 30.0001H94.9999V35.0002H89.9998V30.0001Z" fill="#231F20"/>
<path d="M4.99999 35.0004H10V40.0005H4.99999V35.0004Z" fill="#231F20"/>
<path d="M20 35.0004H25.0004V40.0005H20V35.0004Z" fill="#231F20"/>
<path d="M25.0004 35.0004H29.9996V40.0005H25.0004V35.0004Z" fill="#231F20"/>
<path d="M29.9996 35.0004H34.9997V40.0005H29.9996V35.0004Z" fill="#231F20"/>
<path d="M64.9999 35.0004H69.9998V40.0005H64.9999V35.0004Z" fill="#231F20"/>
<path d="M69.9998 35.0004H75.0002V40.0005H69.9998V35.0004Z" fill="#231F20"/>
<path d="M75.0002 35.0004H79.9998V40.0005H75.0002V35.0004Z" fill="#231F20"/>
<path d="M89.9998 35.0004H94.9999V40.0005H89.9998V35.0004Z" fill="#231F20"/>
<path d="M4.99978 40.0004H10V45.0005H4.99978V40.0004Z" fill="#231F20"/>
<path d="M20 40.0004H25.0004V45.0005H20V40.0004Z" fill="#231F20"/>
<path d="M25.0004 40.0004H29.9996V45.0005H25.0004V40.0004Z" fill="#231F20"/>
<path d="M29.9996 40.0004H34.9997V45.0005H29.9996V40.0004Z" fill="#231F20"/>
<path d="M64.9999 40.0004H69.9998V45.0005H64.9999V40.0004Z" fill="#231F20"/>
<path d="M69.9998 40.0004H75.0002V45.0005H69.9998V40.0004Z" fill="#231F20"/>
<path d="M75.0002 40.0004H79.9998V45.0005H75.0002V40.0004Z" fill="#231F20"/>
<path d="M89.9998 40.0004H94.9999V45.0005H89.9998V40.0004Z" fill="#231F20"/>
<path d="M4.99999 45.0002H10V49.9998H4.99999V45.0002Z" fill="#231F20"/>
<path d="M20 45.0002H25.0004V49.9998H20V45.0002Z" fill="#231F20"/>
<path d="M25.0004 45.0002H29.9996V49.9998H25.0004V45.0002Z" fill="#231F20"/>
<path d="M44.9998 45.0002H50.0002V49.9998H44.9998V45.0002Z" fill="#231F20"/>
<path d="M50.0002 45.0002H55V49.9998H50.0002V45.0002Z" fill="#231F20"/>
<path d="M69.9998 45.0002H75.0002V49.9998H69.9998V45.0002Z" fill="#231F20"/>
<path d="M75.0002 45.0002H79.9998V49.9998H75.0002V45.0002Z" fill="#231F20"/>
<path d="M89.9998 45.0002H94.9999V49.9998H89.9998V45.0002Z" fill="#231F20"/>
<path d="M9.99998 49.9998H15.0001V55.0002H9.99998V49.9998Z" fill="#231F20"/>
<path d="M84.9996 49.9998H89.9997V55.0002H84.9996V49.9998Z" fill="#231F20"/>
<path d="M15.0002 55.0003H20V60.0007H15.0002V55.0003Z" fill="#231F20"/>
<path d="M20 55.0003H25.0004V60.0007H20V55.0003Z" fill="#231F20"/>
<path d="M25.0004 55.0003H29.9996V60.0007H25.0004V55.0003Z" fill="#231F20"/>
<path d="M29.9996 55.0003H34.9997V60.0007H29.9996V55.0003Z" fill="#231F20"/>
<path d="M64.9999 55.0003H69.9998V60.0007H64.9999V55.0003Z" fill="#231F20"/>
<path d="M69.9998 55.0003H75.0002V60.0007H69.9998V55.0003Z" fill="#231F20"/>
<path d="M75.0002 55.0003H79.9998V60.0007H75.0002V55.0003Z" fill="#231F20"/>
<path d="M79.9998 55.0003H84.9997V60.0007H79.9998V55.0003Z" fill="#231F20"/>
<path d="M15.0002 60.0007H20V65.0005H15.0002V60.0007Z" fill="#231F20"/>
<path d="M20 60.0007H25.0004V65.0005H20V60.0007Z" fill="#231F20"/>
<path d="M25.0004 60.0007H29.9996V65.0005H25.0004V60.0007Z" fill="#231F20"/>
<path d="M29.9996 60.0007H34.9997V65.0005H29.9996V60.0007Z" fill="#231F20"/>
<path d="M34.9998 60.0007H39.9999V65.0005H34.9998V60.0007Z" fill="#231F20"/>
<path d="M39.9999 60.0007H44.9997V65.0005H39.9999V60.0007Z" fill="#231F20"/>
<path d="M44.9998 60.0007H50.0002V65.0005H44.9998V60.0007Z" fill="#231F20"/>
<path d="M50.0002 60.0007H54.9998V65.0005H50.0002V60.0007Z" fill="#231F20"/>
<path d="M54.9997 60.0007H59.9998V65.0005H54.9997V60.0007Z" fill="#231F20"/>
<path d="M59.9999 60.0007H65V65.0005H59.9999V60.0007Z" fill="#231F20"/>
<path d="M64.9999 60.0007H69.9998V65.0005H64.9999V60.0007Z" fill="#231F20"/>
<path d="M69.9998 60.0007H75.0002V65.0005H69.9998V60.0007Z" fill="#231F20"/>
<path d="M75.0002 60.0007H79.9998V65.0005H75.0002V60.0007Z" fill="#231F20"/>
<path d="M79.9998 60.0007H84.9997V65.0005H79.9998V60.0007Z" fill="#231F20"/>
<path d="M9.99998 65.0004H15.0001V70H9.99998V65.0004Z" fill="#231F20"/>
<path d="M20 65.0004H25.0004V70H20V65.0004Z" fill="#231F20"/>
<path d="M25.0004 65.0004H29.9996V70H25.0004V65.0004Z" fill="#231F20"/>
<path d="M29.9996 65.0004H34.9997V70H29.9996V65.0004Z" fill="#231F20"/>
<path d="M34.9998 65.0004H39.9999V70H34.9998V65.0004Z" fill="#231F20"/>
<path d="M60.0002 65.0004H65V70H60.0002V65.0004Z" fill="#231F20"/>
<path d="M64.9999 65.0004H69.9998V70H64.9999V65.0004Z" fill="#231F20"/>
<path d="M69.9998 65.0004H75.0002V70H69.9998V65.0004Z" fill="#231F20"/>
<path d="M75.0002 65.0004H79.9998V70H75.0002V65.0004Z" fill="#231F20"/>
<path d="M84.9996 65.0004H89.9997V70H84.9996V65.0004Z" fill="#231F20"/>
<path d="M9.99998 70.0001H15.0001V75.0005H9.99998V70.0001Z" fill="#231F20"/>
<path d="M20 70.0001H25.0004V75.0005H20V70.0001Z" fill="#231F20"/>
<path d="M25.0004 70.0001H29.9996V75.0005H25.0004V70.0001Z" fill="#231F20"/>
<path d="M29.9996 70.0001H34.9997V75.0005H29.9996V70.0001Z" fill="#231F20"/>
<path d="M34.9998 70.0001H39.9999V75.0005H34.9998V70.0001Z" fill="#231F20"/>
<path d="M39.9999 70.0001H44.9997V75.0005H39.9999V70.0001Z" fill="#231F20"/>
<path d="M54.9997 70.0001H59.9998V75.0005H54.9997V70.0001Z" fill="#231F20"/>
<path d="M59.9999 70.0001H65V75.0005H59.9999V70.0001Z" fill="#231F20"/>
<path d="M64.9999 70.0001H69.9998V75.0005H64.9999V70.0001Z" fill="#231F20"/>
<path d="M69.9998 70.0001H75.0002V75.0005H69.9998V70.0001Z" fill="#231F20"/>
<path d="M75.0002 70.0001H79.9998V75.0005H75.0002V70.0001Z" fill="#231F20"/>
<path d="M84.9996 70.0001H89.9997V75.0005H84.9996V70.0001Z" fill="#231F20"/>
<path d="M9.99998 75.0006H15.0001V80.001H9.99998V75.0006Z" fill="#231F20"/>
<path d="M25.0004 75.0006H29.9996V80.001H25.0004V75.0006Z" fill="#231F20"/>
<path d="M29.9996 75.0006H34.9997V80.001H29.9996V75.0006Z" fill="#231F20"/>
<path d="M34.9998 75.0006H39.9999V80.001H34.9998V75.0006Z" fill="#231F20"/>
<path d="M39.9999 75.0006H44.9997V80.001H39.9999V75.0006Z" fill="#231F20"/>
<path d="M54.9997 75.0006H59.9998V80.001H54.9997V75.0006Z" fill="#231F20"/>
<path d="M59.9999 75.0006H65V80.001H59.9999V75.0006Z" fill="#231F20"/>
<path d="M64.9999 75.0006H69.9998V80.001H64.9999V75.0006Z" fill="#231F20"/>
<path d="M69.9998 75.0006H75.0002V80.001H69.9998V75.0006Z" fill="#231F20"/>
<path d="M84.9996 75.0006H89.9997V80.001H84.9996V75.0006Z" fill="#231F20"/>
<path d="M0 80.0009H4.99975V85.001H0V80.0009Z" fill="#231F20"/>
<path d="M4.99978 80.0009H10V85.001H4.99978V80.0009Z" fill="#231F20"/>
<path d="M9.99998 80.0009H15.0001V85.001H9.99998V80.0009Z" fill="#231F20"/>
<path d="M15.0002 80.0009H20V85.001H15.0002V80.0009Z" fill="#231F20"/>
<path d="M79.9998 80.0009H84.9997V85.001H79.9998V80.0009Z" fill="#231F20"/>
<path d="M84.9996 80.0009H89.9997V85.001H84.9996V80.0009Z" fill="#231F20"/>
<path d="M89.9998 80.0009H94.9999V85.001H89.9998V80.0009Z" fill="#231F20"/>
<path d="M94.9999 80.0009H100V85.001H94.9999V80.0009Z" fill="#231F20"/>
<path d="M0 85.0007H4.99998V90H0V85.0007Z" fill="#231F20"/>
<path d="M4.99999 85.0007H10V90H4.99999V85.0007Z" fill="#231F20"/>
<path d="M9.99998 85.0007H15.0001V90H9.99998V85.0007Z" fill="#231F20"/>
<path d="M15.0002 85.0007H20V90H15.0002V85.0007Z" fill="#231F20"/>
<path d="M79.9998 85.0007H84.9997V90H79.9998V85.0007Z" fill="#231F20"/>
<path d="M84.9996 85.0007H89.9997V90H84.9996V85.0007Z" fill="#231F20"/>
<path d="M89.9998 85.0007H94.9999V90H89.9998V85.0007Z" fill="#231F20"/>
<path d="M94.9999 85.0007H100V90H94.9999V85.0007Z" fill="#231F20"/>
<path d="M0 90.0001H4.99975V95.0002H0V90.0001Z" fill="#231F20"/>
<path d="M4.99978 90.0001H10V95.0002H4.99978V90.0001Z" fill="#231F20"/>
<path d="M9.99998 90.0001H15.0001V95.0002H9.99998V90.0001Z" fill="#231F20"/>
<path d="M15.0002 90.0001H20V95.0002H15.0002V90.0001Z" fill="#231F20"/>
<path d="M20 90.0001H25.0004V95.0002H20V90.0001Z" fill="#231F20"/>
<path d="M25.0004 90.0001H29.9996V95.0002H25.0004V90.0001Z" fill="#231F20"/>
<path d="M69.9998 90.0001H75.0002V95.0002H69.9998V90.0001Z" fill="#231F20"/>
<path d="M75.0002 90.0001H79.9998V95.0002H75.0002V90.0001Z" fill="#231F20"/>
<path d="M79.9998 90.0001H84.9997V95.0002H79.9998V90.0001Z" fill="#231F20"/>
<path d="M84.9996 90.0001H89.9997V95.0002H84.9996V90.0001Z" fill="#231F20"/>
<path d="M89.9998 90.0001H94.9999V95.0002H89.9998V90.0001Z" fill="#231F20"/>
<path d="M94.9999 90.0001H100V95.0002H94.9999V90.0001Z" fill="#231F20"/>
<path d="M4.99978 95.0001H10V100H4.99978V95.0001Z" fill="#231F20"/>
<path d="M9.99998 95.0001H15.0001V100H9.99998V95.0001Z" fill="#231F20"/>
<path d="M15.0002 95.0001H20V100H15.0002V95.0001Z" fill="#231F20"/>
<path d="M20 95.0001H25.0004V100H20V95.0001Z" fill="#231F20"/>
<path d="M25.0004 95.0001H29.9996V100H25.0004V95.0001Z" fill="#231F20"/>
<path d="M29.9996 95.0001H34.9997V100H29.9996V95.0001Z" fill="#231F20"/>
<path d="M34.9998 95.0001H39.9999V100H34.9998V95.0001Z" fill="#231F20"/>
<path d="M39.9999 95.0001H44.9997V100H39.9999V95.0001Z" fill="#231F20"/>
<path d="M44.9998 95.0001H50.0002V100H44.9998V95.0001Z" fill="#231F20"/>
<path d="M50.0002 95.0001H54.9998V100H50.0002V95.0001Z" fill="#231F20"/>
<path d="M54.9997 95.0001H60.0001V100H54.9997V95.0001Z" fill="#231F20"/>
<path d="M60.0002 95.0001H65V100H60.0002V95.0001Z" fill="#231F20"/>
<path d="M64.9999 95.0001H69.9998V100H64.9999V95.0001Z" fill="#231F20"/>
<path d="M69.9998 95.0001H75.0002V100H69.9998V95.0001Z" fill="#231F20"/>
<path d="M75.0002 95.0001H79.9998V100H75.0002V95.0001Z" fill="#231F20"/>
<path d="M79.9998 95.0001H84.9997V100H79.9998V95.0001Z" fill="#231F20"/>
<path d="M84.9996 95.0001H89.9997V100H84.9996V95.0001Z" fill="#231F20"/>
<path d="M89.9998 95.0001H94.9999V100H89.9998V95.0001Z" fill="#231F20"/>
</svg>
