<svg width="160" height="109" viewBox="0 0 160 109" fill="none" xmlns="http://www.w3.org/2000/svg">
<path d="M108.8 6.40072H115.2V12.8005H108.8V6.40072Z" fill="white"/>
<path d="M83.2002 12.8007H89.6V19.2009H83.2002V12.8007Z" fill="white"/>
<path d="M89.6 12.8007H95.9998V19.2009H89.6V12.8007Z" fill="white"/>
<path d="M96 12.8007H102.4V19.2009H96V12.8007Z" fill="white"/>
<path d="M102.4 12.8007H108.8V19.2009H102.4V12.8007Z" fill="white"/>
<path d="M108.8 12.8007H115.2V19.2009H108.8V12.8007Z" fill="white"/>
<path d="M115.2 12.8007H121.6V19.2009H115.2V12.8007Z" fill="white"/>
<path d="M64 19.2008H70.3998V25.6006H64V19.2008Z" fill="white"/>
<path d="M70.3998 19.2008H76.7996V25.6006H70.3998V19.2008Z" fill="white"/>
<path d="M76.8 19.2008H83.2002V25.6006H76.8V19.2008Z" fill="white"/>
<path d="M83.2002 19.2008H89.6V25.6006H83.2002V19.2008Z" fill="white"/>
<path d="M89.6 19.2008H95.9998V25.6006H89.6V19.2008Z" fill="white"/>
<path d="M108.8 19.2008H115.2V25.6006H108.8V19.2008Z" fill="white"/>
<path d="M115.2 19.2008H121.599V25.6006H115.2V19.2008Z" fill="white"/>
<path d="M121.6 19.2008H128V25.6006H121.6V19.2008Z" fill="white"/>
<path d="M51.1996 25.6009H57.5998V32.0015H51.1996V25.6009Z" fill="white"/>
<path d="M57.5999 25.6009H64V32.0015H57.5999V25.6009Z" fill="white"/>
<path d="M64 25.6009H70.3998V32.0015H64V25.6009Z" fill="white"/>
<path d="M70.3998 25.6009H76.7996V32.0015H70.3998V25.6009Z" fill="white"/>
<path d="M76.8 25.6009H83.2002V32.0015H76.8V25.6009Z" fill="white"/>
<path d="M115.2 25.6009H121.599V32.0015H115.2V25.6009Z" fill="white"/>
<path d="M121.6 25.6009H128V32.0015H121.6V25.6009Z" fill="white"/>
<path d="M38.3997 32.0011H44.7998V38.4001H38.3997V32.0011Z" fill="white"/>
<path d="M44.7998 32.0011H51.1996V38.4001H44.7998V32.0011Z" fill="white"/>
<path d="M51.1996 32.0011H57.5998V38.4001H51.1996V32.0011Z" fill="white"/>
<path d="M57.5999 32.0011H64V38.4001H57.5999V32.0011Z" fill="white"/>
<path d="M64 32.0011H70.3998V38.4001H64V32.0011Z" fill="white"/>
<path d="M70.3998 32.0011H76.7996V38.4001H70.3998V32.0011Z" fill="white"/>
<path d="M76.8 32.0011H83.2002V38.4001H76.8V32.0011Z" fill="white"/>
<path d="M83.2002 32.0011H89.6V38.4001H83.2002V32.0011Z" fill="white"/>
<path d="M89.6 32.0011H95.9998V38.4001H89.6V32.0011Z" fill="white"/>
<path d="M115.2 32.0011H121.599V38.4001H115.2V32.0011Z" fill="white"/>
<path d="M121.6 32.0011H128V38.4001H121.6V32.0011Z" fill="white"/>
<path d="M128 32.0011H134.4V38.4001H128V32.0011Z" fill="white"/>
<path d="M32.0002 38.4H38.3997V44.8005H32.0002V38.4Z" fill="white"/>
<path d="M38.3997 38.4H44.7998V44.8005H38.3997V38.4Z" fill="white"/>
<path d="M44.7998 38.4H51.1996V44.8005H44.7998V38.4Z" fill="white"/>
<path d="M51.1996 38.4H57.5998V44.8005H51.1996V38.4Z" fill="white"/>
<path d="M57.5999 38.4H64V44.8005H57.5999V38.4Z" fill="white"/>
<path d="M64 38.4H70.3998V44.8005H64V38.4Z" fill="white"/>
<path d="M70.3998 38.4H76.7996V44.8005H70.3998V38.4Z" fill="white"/>
<path d="M76.8 38.4H83.2002V44.8005H76.8V38.4Z" fill="white"/>
<path d="M83.2002 38.4H89.6V44.8005H83.2002V38.4Z" fill="white"/>
<path d="M89.6 38.4H95.9998V44.8005H89.6V38.4Z" fill="white"/>
<path d="M96 38.4H102.4V44.8005H96V38.4Z" fill="white"/>
<path d="M108.8 38.4H115.2V44.8005H108.8V38.4Z" fill="white"/>
<path d="M115.2 38.4H121.599V44.8005H115.2V38.4Z" fill="white"/>
<path d="M121.6 38.4H128V44.8005H121.6V38.4Z" fill="white"/>
<path d="M128 38.4H134.4V44.8005H128V38.4Z" fill="white"/>
<path d="M25.5996 44.8004H32.0002V51.2009H25.5996V44.8004Z" fill="white"/>
<path d="M32.0002 44.8004H38.3997V51.2009H32.0002V44.8004Z" fill="white"/>
<path d="M38.3997 44.8004H44.7998V51.2009H38.3997V44.8004Z" fill="white"/>
<path d="M44.7998 44.8004H51.1996V51.2009H44.7998V44.8004Z" fill="white"/>
<path d="M51.1996 44.8004H57.5998V51.2009H51.1996V44.8004Z" fill="white"/>
<path d="M57.5999 44.8004H64V51.2009H57.5999V44.8004Z" fill="white"/>
<path d="M64 44.8004H70.3998V51.2009H64V44.8004Z" fill="white"/>
<path d="M70.3998 44.8004H76.7996V51.2009H70.3998V44.8004Z" fill="white"/>
<path d="M76.8 44.8004H83.2002V51.2009H76.8V44.8004Z" fill="white"/>
<path d="M83.2002 44.8004H89.6V51.2009H83.2002V44.8004Z" fill="white"/>
<path d="M89.6 44.8004H95.9998V51.2009H89.6V44.8004Z" fill="white"/>
<path d="M96 44.8004H102.4V51.2009H96V44.8004Z" fill="white"/>
<path d="M102.4 44.8004H108.8V51.2009H102.4V44.8004Z" fill="white"/>
<path d="M115.2 44.8004H121.599V51.2009H115.2V44.8004Z" fill="white"/>
<path d="M121.6 44.8004H128V51.2009H121.6V44.8004Z" fill="white"/>
<path d="M128 44.8004H134.4V51.2009H128V44.8004Z" fill="white"/>
<path d="M25.5996 51.2013H32.0002V57.6011H25.5996V51.2013Z" fill="white"/>
<path d="M32.0002 51.2013H38.3997V57.6011H32.0002V51.2013Z" fill="white"/>
<path d="M38.3997 51.2013H44.7998V57.6011H38.3997V51.2013Z" fill="white"/>
<path d="M44.7998 51.2013H51.1996V57.6011H44.7998V51.2013Z" fill="white"/>
<path d="M51.1996 51.2013H57.5998V57.6011H51.1996V51.2013Z" fill="white"/>
<path d="M57.5999 51.2013H64V57.6011H57.5999V51.2013Z" fill="white"/>
<path d="M64 51.2013H70.3998V57.6011H64V51.2013Z" fill="white"/>
<path d="M70.3998 51.2013H76.7996V57.6011H70.3998V51.2013Z" fill="white"/>
<path d="M76.8 51.2013H83.2002V57.6011H76.8V51.2013Z" fill="white"/>
<path d="M83.2002 51.2013H89.6V57.6011H83.2002V51.2013Z" fill="white"/>
<path d="M89.6 51.2013H95.9998V57.6011H89.6V51.2013Z" fill="white"/>
<path d="M96 51.2013H102.4V57.6011H96V51.2013Z" fill="white"/>
<path d="M102.4 51.2013H108.8V57.6011H102.4V51.2013Z" fill="white"/>
<path d="M115.2 51.2013H121.599V57.6011H115.2V51.2013Z" fill="white"/>
<path d="M121.6 51.2013H128V57.6011H121.6V51.2013Z" fill="white"/>
<path d="M128 51.2013H134.4V57.6011H128V51.2013Z" fill="white"/>
<path d="M19.1998 57.6009H25.5996V64.0007H19.1998V57.6009Z" fill="white"/>
<path d="M25.5996 57.6009H32.0002V64.0007H25.5996V57.6009Z" fill="white"/>
<path d="M32.0002 57.6009H38.3997V64.0007H32.0002V57.6009Z" fill="white"/>
<path d="M38.3997 57.6009H44.7998V64.0007H38.3997V57.6009Z" fill="white"/>
<path d="M44.7998 57.6009H51.1996V64.0007H44.7998V57.6009Z" fill="white"/>
<path d="M51.1996 57.6009H57.5998V64.0007H51.1996V57.6009Z" fill="white"/>
<path d="M57.5999 57.6009H64V64.0007H57.5999V57.6009Z" fill="white"/>
<path d="M64 57.6009H70.3998V64.0007H64V57.6009Z" fill="white"/>
<path d="M70.3998 57.6009H76.7996V64.0007H70.3998V57.6009Z" fill="white"/>
<path d="M76.7996 57.6009H83.2001V64.0007H76.7996V57.6009Z" fill="white"/>
<path d="M83.2002 57.6009H89.6V64.0007H83.2002V57.6009Z" fill="white"/>
<path d="M89.6 57.6009H95.9998V64.0007H89.6V57.6009Z" fill="white"/>
<path d="M96 57.6009H102.4V64.0007H96V57.6009Z" fill="white"/>
<path d="M102.4 57.6009H108.8V64.0007H102.4V57.6009Z" fill="white"/>
<path d="M108.8 57.6009H115.2V64.0007H108.8V57.6009Z" fill="white"/>
<path d="M115.2 57.6009H121.599V64.0007H115.2V57.6009Z" fill="white"/>
<path d="M121.6 57.6009H128V64.0007H121.6V57.6009Z" fill="white"/>
<path d="M128 57.6009H134.4V64.0007H128V57.6009Z" fill="white"/>
<path d="M19.1998 64.0009H25.5996V70.4011H19.1998V64.0009Z" fill="white"/>
<path d="M25.5996 64.0009H32.0002V70.4011H25.5996V64.0009Z" fill="white"/>
<path d="M32.0002 64.0009H38.3997V70.4011H32.0002V64.0009Z" fill="white"/>
<path d="M51.1996 64.0009H57.5998V70.4011H51.1996V64.0009Z" fill="white"/>
<path d="M57.5999 64.0009H64V70.4011H57.5999V64.0009Z" fill="white"/>
<path d="M64 64.0009H70.3998V70.4011H64V64.0009Z" fill="white"/>
<path d="M70.3998 64.0009H76.7996V70.4011H70.3998V64.0009Z" fill="white"/>
<path d="M96 64.0009H102.4V70.4011H96V64.0009Z" fill="white"/>
<path d="M102.4 64.0009H108.8V70.4011H102.4V64.0009Z" fill="white"/>
<path d="M108.8 64.0009H115.2V70.4011H108.8V64.0009Z" fill="white"/>
<path d="M121.6 64.0009H128V70.4011H121.6V64.0009Z" fill="white"/>
<path d="M128 64.0009H134.4V70.4011H128V64.0009Z" fill="white"/>
<path d="M19.1998 70.4007H25.5996V76.8005H19.1998V70.4007Z" fill="white"/>
<path d="M25.5996 70.4007H32.0002V76.8005H25.5996V70.4007Z" fill="white"/>
<path d="M44.7998 70.4007H51.1996V76.8005H44.7998V70.4007Z" fill="white"/>
<path d="M51.1996 70.4007H57.5998V76.8005H51.1996V70.4007Z" fill="white"/>
<path d="M57.5999 70.4007H64V76.8005H57.5999V70.4007Z" fill="white"/>
<path d="M64 70.4007H70.3998V76.8005H64V70.4007Z" fill="white"/>
<path d="M70.3998 70.4007H76.7996V76.8005H70.3998V70.4007Z" fill="white"/>
<path d="M76.7996 70.4007H83.2001V76.8005H76.7996V70.4007Z" fill="white"/>
<path d="M102.4 70.4007H108.8V76.8005H102.4V70.4007Z" fill="white"/>
<path d="M108.8 70.4007H115.2V76.8005H108.8V70.4007Z" fill="white"/>
<path d="M121.6 70.4007H128V76.8005H121.6V70.4007Z" fill="white"/>
<path d="M19.1998 76.8009H25.5996V83.2014H19.1998V76.8009Z" fill="white"/>
<path d="M25.5996 76.8009H32.0002V83.2014H25.5996V76.8009Z" fill="white"/>
<path d="M44.7998 76.8009H51.1996V83.2014H44.7998V76.8009Z" fill="white"/>
<path d="M51.1996 76.8009H57.5998V83.2014H51.1996V76.8009Z" fill="white"/>
<path d="M57.5999 76.8009H64V83.2014H57.5999V76.8009Z" fill="white"/>
<path d="M64 76.8009H70.3998V83.2014H64V76.8009Z" fill="white"/>
<path d="M70.3998 76.8009H76.7996V83.2014H70.3998V76.8009Z" fill="white"/>
<path d="M76.7996 76.8009H83.2001V83.2014H76.7996V76.8009Z" fill="white"/>
<path d="M102.4 76.8009H108.8V83.2014H102.4V76.8009Z" fill="white"/>
<path d="M108.8 76.8009H115.2V83.2014H108.8V76.8009Z" fill="white"/>
<path d="M19.1998 83.2014H25.5996V89.6023H19.1998V83.2014Z" fill="white"/>
<path d="M25.5996 83.2014H32.0002V89.6023H25.5996V83.2014Z" fill="white"/>
<path d="M38.3997 83.2014H44.7998V89.6023H38.3997V83.2014Z" fill="white"/>
<path d="M44.7998 83.2014H51.1996V89.6023H44.7998V83.2014Z" fill="white"/>
<path d="M51.1996 83.2014H57.5998V89.6023H51.1996V83.2014Z" fill="white"/>
<path d="M70.3998 83.2014H76.7996V89.6023H70.3998V83.2014Z" fill="white"/>
<path d="M76.7996 83.2014H83.2001V89.6023H76.7996V83.2014Z" fill="white"/>
<path d="M83.1998 83.2014H89.6V89.6023H83.1998V83.2014Z" fill="white"/>
<path d="M102.4 83.2014H108.8V89.6023H102.4V83.2014Z" fill="white"/>
<path d="M108.8 83.2014H115.2V89.6023H108.8V83.2014Z" fill="white"/>
<path d="M25.5996 89.6012H32.0002V96.001H25.5996V89.6012Z" fill="white"/>
<path d="M32.0002 89.6012H38.3997V96.001H32.0002V89.6012Z" fill="white"/>
<path d="M38.3997 89.6012H44.7998V96.001H38.3997V89.6012Z" fill="white"/>
<path d="M44.7998 89.6012H51.1996V96.001H44.7998V89.6012Z" fill="white"/>
<path d="M51.1996 89.6012H57.5998V96.001H51.1996V89.6012Z" fill="white"/>
<path d="M57.5999 89.6012H64V96.001H57.5999V89.6012Z" fill="white"/>
<path d="M64 89.6012H70.3998V96.001H64V89.6012Z" fill="white"/>
<path d="M70.3998 89.6012H76.7996V96.001H70.3998V89.6012Z" fill="white"/>
<path d="M76.8 89.6012H83.2002V96.001H76.8V89.6012Z" fill="white"/>
<path d="M83.2002 89.6012H89.6V96.001H83.2002V89.6012Z" fill="white"/>
<path d="M89.6 89.6012H95.9998V96.001H89.6V89.6012Z" fill="white"/>
<path d="M96 89.6012H102.4V96.001H96V89.6012Z" fill="white"/>
<path d="M102.4 89.6012H108.8V96.001H102.4V89.6012Z" fill="white"/>
<path d="M44.7998 96.0008H51.1996V102.401H44.7998V96.0008Z" fill="white"/>
<path d="M51.1996 96.0008H57.5998V102.401H51.1996V96.0008Z" fill="white"/>
<path d="M57.5999 96.0008H64V102.401H57.5999V96.0008Z" fill="white"/>
<path d="M64 96.0008H70.3998V102.401H64V96.0008Z" fill="white"/>
<path d="M70.3998 96.0008H76.7996V102.401H70.3998V96.0008Z" fill="white"/>
<path d="M76.8 96.0008H83.2002V102.401H76.8V96.0008Z" fill="white"/>
<path d="M83.2002 96.0008H89.6V102.401H83.2002V96.0008Z" fill="white"/>
<path d="M108.8 0.000196934H115.2V6.40112H108.8V0.000196934Z" fill="#231F20"/>
<path d="M115.2 0.000196934H121.599V6.40112H115.2V0.000196934Z" fill="#231F20"/>
<path d="M83.1998 6.40072H89.6V12.8005H83.1998V6.40072Z" fill="#231F20"/>
<path d="M89.6 6.40072H95.9998V12.8005H89.6V6.40072Z" fill="#231F20"/>
<path d="M96 6.40072H102.4V12.8005H96V6.40072Z" fill="#231F20"/>
<path d="M102.4 6.40072H108.8V12.8005H102.4V6.40072Z" fill="#231F20"/>
<path d="M115.2 6.40072H121.599V12.8005H115.2V6.40072Z" fill="#231F20"/>
<path d="M64 12.8007H70.3998V19.2009H64V12.8007Z" fill="#231F20"/>
<path d="M70.3998 12.8007H76.8V19.2009H70.3998V12.8007Z" fill="#231F20"/>
<path d="M76.8 12.8007H83.2002V19.2009H76.8V12.8007Z" fill="#231F20"/>
<path d="M121.6 12.8007H128V19.2009H121.6V12.8007Z" fill="#231F20"/>
<path d="M25.5996 19.2008H32.0002V25.6006H25.5996V19.2008Z" fill="#231F20"/>
<path d="M32.0002 19.2008H38.3997V25.6006H32.0002V19.2008Z" fill="#231F20"/>
<path d="M51.1996 19.2008H57.5998V25.6006H51.1996V19.2008Z" fill="#231F20"/>
<path d="M57.5999 19.2008H64V25.6006H57.5999V19.2008Z" fill="#231F20"/>
<path d="M96 19.2008H102.4V25.6006H96V19.2008Z" fill="#231F20"/>
<path d="M102.4 19.2008H108.8V25.6006H102.4V19.2008Z" fill="#231F20"/>
<path d="M128 19.2008H134.4V25.6006H128V19.2008Z" fill="#231F20"/>
<path d="M19.1998 25.6009H25.5996V32.0015H19.1998V25.6009Z" fill="#231F20"/>
<path d="M25.5996 25.6009H32.0002V32.0015H25.5996V25.6009Z" fill="#231F20"/>
<path d="M32.0002 25.6009H38.3997V32.0015H32.0002V25.6009Z" fill="#231F20"/>
<path d="M38.3997 25.6009H44.7998V32.0015H38.3997V25.6009Z" fill="#231F20"/>
<path d="M44.7998 25.6009H51.1996V32.0015H44.7998V25.6009Z" fill="#231F20"/>
<path d="M83.2002 25.6009H89.6V32.0015H83.2002V25.6009Z" fill="#231F20"/>
<path d="M89.6 25.6009H95.9998V32.0015H89.6V25.6009Z" fill="#231F20"/>
<path d="M96 25.6009H102.4V32.0015H96V25.6009Z" fill="#231F20"/>
<path d="M102.4 25.6009H108.8V32.0015H102.4V25.6009Z" fill="#231F20"/>
<path d="M108.8 25.6009H115.2V32.0015H108.8V25.6009Z" fill="#231F20"/>
<path d="M128 25.6009H134.4V32.0015H128V25.6009Z" fill="#231F20"/>
<path d="M19.1998 32.0011H25.5996V38.4001H19.1998V32.0011Z" fill="#231F20"/>
<path d="M25.5996 32.0011H32.0002V38.4001H25.5996V32.0011Z" fill="#231F20"/>
<path d="M32.0002 32.0011H38.3997V38.4001H32.0002V32.0011Z" fill="#231F20"/>
<path d="M96 32.0011H102.4V38.4001H96V32.0011Z" fill="#231F20"/>
<path d="M102.4 32.0011H108.8V38.4001H102.4V32.0011Z" fill="#231F20"/>
<path d="M108.8 32.0011H115.2V38.4001H108.8V32.0011Z" fill="#231F20"/>
<path d="M134.4 32.0011H140.8V38.4001H134.4V32.0011Z" fill="#231F20"/>
<path d="M25.5996 38.4H32.0002V44.8005H25.5996V38.4Z" fill="#231F20"/>
<path d="M102.4 38.4H108.8V44.8005H102.4V38.4Z" fill="#231F20"/>
<path d="M134.4 38.4H140.8V44.8005H134.4V38.4Z" fill="#231F20"/>
<path d="M19.1998 44.8004H25.5996V51.2009H19.1998V44.8004Z" fill="#231F20"/>
<path d="M108.8 44.8004H115.2V51.2009H108.8V44.8004Z" fill="#231F20"/>
<path d="M134.4 44.8004H140.8V51.2009H134.4V44.8004Z" fill="#231F20"/>
<path d="M19.1998 51.2013H25.5996V57.6011H19.1998V51.2013Z" fill="#231F20"/>
<path d="M108.8 51.2013H115.2V57.6011H108.8V51.2013Z" fill="#231F20"/>
<path d="M134.4 51.2013H140.8V57.6011H134.4V51.2013Z" fill="#231F20"/>
<path d="M140.8 51.2013H147.2V57.6011H140.8V51.2013Z" fill="#231F20"/>
<path d="M12.8 57.6009H19.1999V64.0007H12.8V57.6009Z" fill="#231F20"/>
<path d="M134.4 57.6009H140.8V64.0007H134.4V57.6009Z" fill="#231F20"/>
<path d="M140.8 57.6009H147.2V64.0007H140.8V57.6009Z" fill="#231F20"/>
<path d="M12.8 64.0009H19.1999V70.4011H12.8V64.0009Z" fill="#231F20"/>
<path d="M38.3997 64.0009H44.7998V70.4011H38.3997V64.0009Z" fill="#231F20"/>
<path d="M44.7998 64.0009H51.1996V70.4011H44.7998V64.0009Z" fill="#231F20"/>
<path d="M76.8 64.0009H83.2002V70.4011H76.8V64.0009Z" fill="#231F20"/>
<path d="M83.2002 64.0009H89.6V70.4011H83.2002V64.0009Z" fill="#231F20"/>
<path d="M89.6 64.0009H95.9998V70.4011H89.6V64.0009Z" fill="#231F20"/>
<path d="M115.2 64.0009H121.599V70.4011H115.2V64.0009Z" fill="#231F20"/>
<path d="M134.4 64.0009H140.8V70.4011H134.4V64.0009Z" fill="#231F20"/>
<path d="M140.8 64.0009H147.2V70.4011H140.8V64.0009Z" fill="#231F20"/>
<path d="M147.2 64.0009H153.6V70.4011H147.2V64.0009Z" fill="#231F20"/>
<path d="M12.8 70.4007H19.1999V76.8005H12.8V70.4007Z" fill="#231F20"/>
<path d="M32.0002 70.4007H38.3997V76.8005H32.0002V70.4007Z" fill="#231F20"/>
<path d="M38.3997 70.4007H44.7998V76.8005H38.3997V70.4007Z" fill="#231F20"/>
<path d="M83.1998 70.4007H89.6V76.8005H83.1998V70.4007Z" fill="#231F20"/>
<path d="M89.6 70.4007H95.9998V76.8005H89.6V70.4007Z" fill="#231F20"/>
<path d="M96 70.4007H102.4V76.8005H96V70.4007Z" fill="#231F20"/>
<path d="M115.2 70.4007H121.599V76.8005H115.2V70.4007Z" fill="#231F20"/>
<path d="M128 70.4007H134.4V76.8005H128V70.4007Z" fill="#231F20"/>
<path d="M134.4 70.4007H140.8V76.8005H134.4V70.4007Z" fill="#231F20"/>
<path d="M140.8 70.4007H147.2V76.8005H140.8V70.4007Z" fill="#231F20"/>
<path d="M147.2 70.4007H153.6V76.8005H147.2V70.4007Z" fill="#231F20"/>
<path d="M153.601 70.4007H160V76.8005H153.601V70.4007Z" fill="#231F20"/>
<path d="M0 76.8009H6.39946V83.2014H0V76.8009Z" fill="#231F20"/>
<path d="M6.39978 76.8009H12.8V83.2014H6.39978V76.8009Z" fill="#231F20"/>
<path d="M12.8 76.8009H19.1999V83.2014H12.8V76.8009Z" fill="#231F20"/>
<path d="M32.0002 76.8009H38.3997V83.2014H32.0002V76.8009Z" fill="#231F20"/>
<path d="M38.3997 76.8009H44.7998V83.2014H38.3997V76.8009Z" fill="#231F20"/>
<path d="M83.1998 76.8009H89.6V83.2014H83.1998V76.8009Z" fill="#231F20"/>
<path d="M89.6 76.8009H95.9998V83.2014H89.6V76.8009Z" fill="#231F20"/>
<path d="M96 76.8009H102.4V83.2014H96V76.8009Z" fill="#231F20"/>
<path d="M115.2 76.8009H121.599V83.2014H115.2V76.8009Z" fill="#231F20"/>
<path d="M121.6 76.8009H128V83.2014H121.6V76.8009Z" fill="#231F20"/>
<path d="M128 76.8009H134.4V83.2014H128V76.8009Z" fill="#231F20"/>
<path d="M134.4 76.8009H140.8V83.2014H134.4V76.8009Z" fill="#231F20"/>
<path d="M140.8 76.8009H147.2V83.2014H140.8V76.8009Z" fill="#231F20"/>
<path d="M147.2 76.8009H153.6V83.2014H147.2V76.8009Z" fill="#231F20"/>
<path d="M153.601 76.8009H160V83.2014H153.601V76.8009Z" fill="#231F20"/>
<path d="M0 83.2014H6.39946V89.6023H0V83.2014Z" fill="#231F20"/>
<path d="M6.39978 83.2014H12.8V89.6023H6.39978V83.2014Z" fill="#231F20"/>
<path d="M12.8 83.2014H19.1999V89.6023H12.8V83.2014Z" fill="#231F20"/>
<path d="M32.0002 83.2014H38.3997V89.6023H32.0002V83.2014Z" fill="#231F20"/>
<path d="M57.5999 83.2014H64V89.6023H57.5999V83.2014Z" fill="#231F20"/>
<path d="M64 83.2014H70.3998V89.6023H64V83.2014Z" fill="#231F20"/>
<path d="M89.6 83.2014H95.9998V89.6023H89.6V83.2014Z" fill="#231F20"/>
<path d="M96 83.2014H102.4V89.6023H96V83.2014Z" fill="#231F20"/>
<path d="M115.2 83.2014H121.599V89.6023H115.2V83.2014Z" fill="#231F20"/>
<path d="M121.6 83.2014H128V89.6023H121.6V83.2014Z" fill="#231F20"/>
<path d="M128 83.2014H134.4V89.6023H128V83.2014Z" fill="#231F20"/>
<path d="M134.4 83.2014H140.8V89.6023H134.4V83.2014Z" fill="#231F20"/>
<path d="M0 89.6012H6.39946V96.001H0V89.6012Z" fill="#231F20"/>
<path d="M6.39978 89.6012H12.8V96.001H6.39978V89.6012Z" fill="#231F20"/>
<path d="M12.8 89.6012H19.1999V96.001H12.8V89.6012Z" fill="#231F20"/>
<path d="M19.1998 89.6012H25.5996V96.001H19.1998V89.6012Z" fill="#231F20"/>
<path d="M108.8 89.6012H115.2V96.001H108.8V89.6012Z" fill="#231F20"/>
<path d="M115.2 89.6012H121.599V96.001H115.2V89.6012Z" fill="#231F20"/>
<path d="M121.6 89.6012H128V96.001H121.6V89.6012Z" fill="#231F20"/>
<path d="M128 89.6012H134.4V96.001H128V89.6012Z" fill="#231F20"/>
<path d="M134.4 89.6012H140.8V96.001H134.4V89.6012Z" fill="#231F20"/>
<path d="M6.39978 96.0008H12.8V102.401H6.39978V96.0008Z" fill="#231F20"/>
<path d="M12.8 96.0008H19.1999V102.401H12.8V96.0008Z" fill="#231F20"/>
<path d="M19.1998 96.0008H25.5996V102.401H19.1998V96.0008Z" fill="#231F20"/>
<path d="M25.5996 96.0008H32.0002V102.401H25.5996V96.0008Z" fill="#231F20"/>
<path d="M32.0002 96.0008H38.3997V102.401H32.0002V96.0008Z" fill="#231F20"/>
<path d="M38.3997 96.0008H44.7998V102.401H38.3997V96.0008Z" fill="#231F20"/>
<path d="M89.6 96.0008H95.9998V102.401H89.6V96.0008Z" fill="#231F20"/>
<path d="M96 96.0008H102.4V102.401H96V96.0008Z" fill="#231F20"/>
<path d="M102.4 96.0008H108.8V102.401H102.4V96.0008Z" fill="#231F20"/>
<path d="M108.8 96.0008H115.2V102.401H108.8V96.0008Z" fill="#231F20"/>
<path d="M115.2 96.0008H121.599V102.401H115.2V96.0008Z" fill="#231F20"/>
<path d="M121.6 96.0008H128V102.401H121.6V96.0008Z" fill="#231F20"/>
<path d="M128 96.0008H134.4V102.401H128V96.0008Z" fill="#231F20"/>
<path d="M44.7998 102.401H51.1996V108.801H44.7998V102.401Z" fill="#231F20"/>
<path d="M51.1996 102.401H57.5998V108.801H51.1996V102.401Z" fill="#231F20"/>
<path d="M57.5999 102.401H64V108.801H57.5999V102.401Z" fill="#231F20"/>
<path d="M64 102.401H70.3998V108.801H64V102.401Z" fill="#231F20"/>
<path d="M70.3998 102.401H76.7996V108.801H70.3998V102.401Z" fill="#231F20"/>
<path d="M76.8 102.401H83.2002V108.801H76.8V102.401Z" fill="#231F20"/>
<path d="M83.2002 102.401H89.6V108.801H83.2002V102.401Z" fill="#231F20"/>
</svg>
