<svg width="100" height="111" viewBox="0 0 100 111" fill="none" xmlns="http://www.w3.org/2000/svg">
<path d="M26.3162 5.26466H31.5792V10.528H26.3162V5.26466Z" fill="white"/>
<path d="M31.579 5.26405H36.8419V10.5276H31.579V5.26405Z" fill="white"/>
<path d="M36.8398 5.26465H42.1047V10.5279H36.8398V5.26465Z" fill="white"/>
<path d="M42.1064 5.2632H47.3723V10.5268H42.1064V5.2632Z" fill="white"/>
<path d="M47.3678 5.26459H52.6302V10.528H47.3678V5.26459Z" fill="white"/>
<path d="M52.6332 5.26336H57.8978V10.527H52.6332V5.26336Z" fill="white"/>
<path d="M15.7905 10.528H21.0536V15.7911H15.7905V10.528Z" fill="white"/>
<path d="M21.0543 10.5274H26.3164V15.7904H21.0543V10.5274Z" fill="white"/>
<path d="M26.3162 10.528H31.5792V15.7913H26.3162V10.528Z" fill="white"/>
<path d="M31.579 10.5275H36.8419V15.7906H31.579V10.5275Z" fill="white"/>
<path d="M36.8398 10.5278H42.1047V15.7911H36.8398V10.5278Z" fill="white"/>
<path d="M42.1064 10.5267H47.3723V15.79H42.1064V10.5267Z" fill="white"/>
<path d="M47.3678 10.528H52.6302V15.7914H47.3678V10.528Z" fill="white"/>
<path d="M52.6332 10.527H57.8978V15.79H52.6332V10.527Z" fill="white"/>
<path d="M57.8948 10.5274H63.1606V15.7909H57.8948V10.5274Z" fill="white"/>
<path d="M63.1608 10.5269H68.4234V15.7902H63.1608V10.5269Z" fill="white"/>
<path d="M10.528 15.7904H15.7909V21.0543H10.528V15.7904Z" fill="white"/>
<path d="M15.7905 15.7911H21.0536V21.0548H15.7905V15.7911Z" fill="white"/>
<path d="M21.0543 15.7905H26.3164V21.0544H21.0543V15.7905Z" fill="white"/>
<path d="M26.3162 15.7912H31.5792V21.0548H26.3162V15.7912Z" fill="white"/>
<path d="M31.579 15.7907H36.8419V21.0542H31.579V15.7907Z" fill="white"/>
<path d="M36.8398 15.7912H42.1047V21.0551H36.8398V15.7912Z" fill="white"/>
<path d="M42.1064 15.7901H47.3723V21.054H42.1064V15.7901Z" fill="white"/>
<path d="M47.3678 15.7914H52.6302V21.0548H47.3678V15.7914Z" fill="white"/>
<path d="M52.6332 15.79H57.8978V21.054H52.6332V15.79Z" fill="white"/>
<path d="M57.8948 15.7908H63.1606V21.0543H57.8948V15.7908Z" fill="white"/>
<path d="M63.1608 15.7903H68.4234V21.054H63.1608V15.7903Z" fill="white"/>
<path d="M68.4209 15.7908H73.6862V21.0544H68.4209V15.7908Z" fill="white"/>
<path d="M10.528 21.0534H15.7909V26.3169H10.528V21.0534Z" fill="white"/>
<path d="M15.7905 21.0539H21.0536V26.3176H15.7905V21.0539Z" fill="white"/>
<path d="M21.0543 21.0534H26.3164V26.317H21.0543V21.0534Z" fill="white"/>
<path d="M26.3162 21.054H31.5792V26.3176H26.3162V21.054Z" fill="white"/>
<path d="M31.579 21.0535H36.8419V26.317H31.579V21.0535Z" fill="white"/>
<path d="M36.8398 21.054H42.1047V26.3176H36.8398V21.054Z" fill="white"/>
<path d="M42.1064 21.0529H47.3723V26.3165H42.1064V21.0529Z" fill="white"/>
<path d="M47.3678 21.0542H52.6302V26.3179H47.3678V21.0542Z" fill="white"/>
<path d="M52.6332 21.053H57.8978V26.3166H52.6332V21.053Z" fill="white"/>
<path d="M57.8948 21.0536H63.1606V26.317H57.8948V21.0536Z" fill="white"/>
<path d="M63.1608 21.0532H68.4234V26.3168H63.1608V21.0532Z" fill="white"/>
<path d="M68.4209 21.0538H73.6862V26.3174H68.4209V21.0538Z" fill="white"/>
<path d="M73.6853 21.054H78.9489V26.3179H73.6853V21.054Z" fill="white"/>
<path d="M5.26636 26.3163H10.528V31.5798H5.26636V26.3163Z" fill="white"/>
<path d="M10.528 26.3169H15.7909V31.5801H10.528V26.3169Z" fill="white"/>
<path d="M15.7905 26.3176H21.0536V31.5807H15.7905V26.3176Z" fill="white"/>
<path d="M21.0543 26.3171H26.3164V31.5804H21.0543V26.3171Z" fill="white"/>
<path d="M26.3162 26.3176H31.5792V31.5809H26.3162V26.3176Z" fill="white"/>
<path d="M31.579 26.3171H36.8419V31.5802H31.579V26.3171Z" fill="white"/>
<path d="M36.8398 26.3176H42.1047V31.5808H36.8398V26.3176Z" fill="white"/>
<path d="M42.1064 26.3164H47.3723V31.5797H42.1064V26.3164Z" fill="white"/>
<path d="M47.3678 26.3179H52.6302V31.581H47.3678V26.3179Z" fill="white"/>
<path d="M52.6332 26.3166H57.8978V31.5799H52.6332V26.3166Z" fill="white"/>
<path d="M57.8948 26.3171H63.1606V31.5806H57.8948V26.3171Z" fill="white"/>
<path d="M63.1608 26.3169H68.4234V31.5799H63.1608V26.3169Z" fill="white"/>
<path d="M68.4209 26.3173H73.6862V31.5806H68.4209V26.3173Z" fill="white"/>
<path d="M73.6853 26.3179H78.9489V31.5811H73.6853V26.3179Z" fill="white"/>
<path d="M5.26636 31.5798H10.528V36.8427H5.26636V31.5798Z" fill="white"/>
<path d="M10.528 31.5802H15.7909V36.8434H10.528V31.5802Z" fill="white"/>
<path d="M26.3162 31.5809H31.5792V36.8439H26.3162V31.5809Z" fill="white"/>
<path d="M31.579 31.5803H36.8419V36.8434H31.579V31.5803Z" fill="white"/>
<path d="M36.8398 31.5809H42.1047V36.8441H36.8398V31.5809Z" fill="white"/>
<path d="M57.8948 31.5805H63.1606V36.8437H57.8948V31.5805Z" fill="white"/>
<path d="M63.1608 31.5799H68.4234V36.8432H63.1608V31.5799Z" fill="white"/>
<path d="M68.4209 31.5806H73.6862V36.8434H68.4209V31.5806Z" fill="white"/>
<path d="M73.6853 31.5811H78.9489V36.844H73.6853V31.5811Z" fill="white"/>
<path d="M78.9508 31.5807H84.2117V36.8437H78.9508V31.5807Z" fill="white"/>
<path d="M5.26636 36.8426H10.528V42.1064H5.26636V36.8426Z" fill="white"/>
<path d="M21.0543 36.8433H26.3164V42.107H21.0543V36.8433Z" fill="white"/>
<path d="M26.3162 36.8439H31.5792V42.1075H26.3162V36.8439Z" fill="white"/>
<path d="M31.579 36.8435H36.8419V42.107H31.579V36.8435Z" fill="white"/>
<path d="M36.8398 36.8441H42.1047V42.1076H36.8398V36.8441Z" fill="white"/>
<path d="M42.1064 36.843H47.3723V42.1065H42.1064V36.843Z" fill="white"/>
<path d="M63.1608 36.8432H68.4234V42.1069H63.1608V36.8432Z" fill="white"/>
<path d="M68.4209 36.8434H73.6862V42.107H68.4209V36.8434Z" fill="white"/>
<path d="M73.6853 36.844H78.9489V42.1075H73.6853V36.844Z" fill="white"/>
<path d="M78.9508 36.8437H84.2117V42.1073H78.9508V36.8437Z" fill="white"/>
<path d="M5.26636 42.1064H10.528V47.3705H5.26636V42.1064Z" fill="white"/>
<path d="M21.0543 42.107H26.3164V47.3709H21.0543V42.107Z" fill="white"/>
<path d="M26.3162 42.1075H31.5792V47.3715H26.3162V42.1075Z" fill="white"/>
<path d="M31.579 42.107H36.8419V47.3712H31.579V42.107Z" fill="white"/>
<path d="M36.8398 42.1076H42.1047V47.3715H36.8398V42.1076Z" fill="white"/>
<path d="M42.1064 42.1065H47.3723V47.3707H42.1064V42.1065Z" fill="white"/>
<path d="M63.1608 42.1069H68.4234V47.3708H63.1608V42.1069Z" fill="white"/>
<path d="M68.4209 42.107H73.6862V47.3713H68.4209V42.107Z" fill="white"/>
<path d="M73.6853 42.1076H78.9489V47.3718H73.6853V42.1076Z" fill="white"/>
<path d="M78.9508 42.1073H84.2117V47.3713H78.9508V42.1073Z" fill="white"/>
<path d="M5.26636 47.3705H10.528V52.6337H5.26636V47.3705Z" fill="white"/>
<path d="M15.7905 47.3715H21.0536V52.6346H15.7905V47.3715Z" fill="white"/>
<path d="M21.0543 47.371H26.3164V52.6343H21.0543V47.371Z" fill="white"/>
<path d="M36.8398 47.3715H42.1047V52.6347H36.8398V47.3715Z" fill="white"/>
<path d="M42.1064 47.3708H47.3723V52.634H42.1064V47.3708Z" fill="white"/>
<path d="M47.3678 47.3715H52.6302V52.6349H47.3678V47.3715Z" fill="white"/>
<path d="M63.1608 47.3708H68.4234V52.6338H63.1608V47.3708Z" fill="white"/>
<path d="M68.4209 47.3713H73.6862V52.6345H68.4209V47.3713Z" fill="white"/>
<path d="M73.6853 47.3718H78.9489V52.6347H73.6853V47.3718Z" fill="white"/>
<path d="M78.9508 47.3713H84.2117V52.6346H78.9508V47.3713Z" fill="white"/>
<path d="M5.26636 52.6336H10.528V57.8971H5.26636V52.6336Z" fill="white"/>
<path d="M10.528 52.6341H15.7909V57.8973H10.528V52.6341Z" fill="white"/>
<path d="M15.7905 52.6346H21.0536V57.898H15.7905V52.6346Z" fill="white"/>
<path d="M21.0543 52.6343H26.3164V57.8976H21.0543V52.6343Z" fill="white"/>
<path d="M26.3162 52.6349H31.5792V57.8982H26.3162V52.6349Z" fill="white"/>
<path d="M31.579 52.6343H36.8419V57.8975H31.579V52.6343Z" fill="white"/>
<path d="M36.8398 52.6348H42.1047V57.898H36.8398V52.6348Z" fill="white"/>
<path d="M42.1064 52.634H47.3723V57.8972H42.1064V52.634Z" fill="white"/>
<path d="M47.3678 52.6349H52.6302V57.898H47.3678V52.6349Z" fill="white"/>
<path d="M52.6332 52.634H57.8978V57.8973H52.6332V52.634Z" fill="white"/>
<path d="M57.8948 52.6345H63.1606V57.8976H57.8948V52.6345Z" fill="white"/>
<path d="M63.1608 52.6338H68.4234V57.8971H63.1608V52.6338Z" fill="white"/>
<path d="M68.4209 52.6346H73.6862V57.8978H68.4209V52.6346Z" fill="white"/>
<path d="M15.7905 57.898H21.0536V63.1611H15.7905V57.898Z" fill="white"/>
<path d="M21.0543 57.8975H26.3164V63.1608H21.0543V57.8975Z" fill="white"/>
<path d="M26.3162 57.8982H31.5792V63.1612H26.3162V57.8982Z" fill="white"/>
<path d="M31.579 57.8975H36.8419V63.161H31.579V57.8975Z" fill="white"/>
<path d="M36.8398 57.898H42.1047V63.1612H36.8398V57.898Z" fill="white"/>
<path d="M42.1064 57.8972H47.3723V63.1604H42.1064V57.8972Z" fill="white"/>
<path d="M73.6853 63.1608H78.9489V68.4243H73.6853V63.1608Z" fill="white"/>
<path d="M78.9508 63.1605H84.2117V68.4238H78.9508V63.1605Z" fill="white"/>
<path d="M84.2102 63.1609H89.4744V68.4241H84.2102V63.1609Z" fill="white"/>
<path d="M57.8948 68.4238H63.1606V73.687H57.8948V68.4238Z" fill="white"/>
<path d="M63.1608 68.4234H68.4234V73.6864H63.1608V68.4234Z" fill="white"/>
<path d="M68.4209 68.4238H73.6862V73.6871H68.4209V68.4238Z" fill="white"/>
<path d="M73.6853 68.4243H78.9489V73.6875H73.6853V68.4243Z" fill="white"/>
<path d="M78.9508 68.4238H84.2117V73.6871H78.9508V68.4238Z" fill="white"/>
<path d="M84.2102 68.4241H89.4744V73.6873H84.2102V68.4241Z" fill="white"/>
<path d="M26.3162 73.6872H31.5792V78.9502H26.3162V73.6872Z" fill="white"/>
<path d="M31.579 73.687H36.8419V78.9499H31.579V73.687Z" fill="white"/>
<path d="M36.8398 73.6875H42.1047V78.9504H36.8398V73.6875Z" fill="white"/>
<path d="M42.1064 73.6866H47.3723V78.9495H42.1064V73.6866Z" fill="white"/>
<path d="M47.3678 73.6872H52.6302V78.9503H47.3678V73.6872Z" fill="white"/>
<path d="M52.6332 73.6866H57.8978V78.9496H52.6332V73.6866Z" fill="white"/>
<path d="M57.8948 73.687H63.1606V78.9502H57.8948V73.687Z" fill="white"/>
<path d="M63.1608 73.6865H68.4234V78.9498H63.1608V73.6865Z" fill="white"/>
<path d="M68.4209 73.687H73.6862V78.9499H68.4209V73.687Z" fill="white"/>
<path d="M73.6853 73.6875H78.9489V78.9504H73.6853V73.6875Z" fill="white"/>
<path d="M78.9508 73.6871H84.2117V78.95H78.9508V73.6871Z" fill="white"/>
<path d="M84.2102 73.6872H89.4744V78.9504H84.2102V73.6872Z" fill="white"/>
<path d="M89.4789 73.6868H94.7421V78.9497H89.4789V73.6868Z" fill="white"/>
<path d="M26.3162 78.9502H31.5792V84.2141H26.3162V78.9502Z" fill="white"/>
<path d="M31.579 78.9499H36.8419V84.2137H31.579V78.9499Z" fill="white"/>
<path d="M36.8398 78.9504H42.1047V84.2142H36.8398V78.9504Z" fill="white"/>
<path d="M42.1064 78.9496H47.3723V84.2135H42.1064V78.9496Z" fill="white"/>
<path d="M47.3678 78.9503H52.6302V84.2144H47.3678V78.9503Z" fill="white"/>
<path d="M52.6332 78.9495H57.8978V84.2135H52.6332V78.9495Z" fill="white"/>
<path d="M57.8948 78.9501H63.1606V84.2139H57.8948V78.9501Z" fill="white"/>
<path d="M63.1608 78.9498H68.4234V84.2135H63.1608V78.9498Z" fill="white"/>
<path d="M68.4209 78.95H73.6862V84.2139H68.4209V78.95Z" fill="white"/>
<path d="M73.6853 78.9503H78.9489V84.2142H73.6853V78.9503Z" fill="white"/>
<path d="M78.9508 78.95H84.2117V84.214H78.9508V78.95Z" fill="white"/>
<path d="M84.2102 78.9505H89.4744V84.2144H84.2102V78.9505Z" fill="white"/>
<path d="M89.4789 78.9496H94.7421V84.2136H89.4789V78.9496Z" fill="white"/>
<path d="M21.0543 84.213H26.3164V89.4763H21.0543V84.213Z" fill="white"/>
<path d="M26.3162 84.2136H31.5792V89.4766H26.3162V84.2136Z" fill="white"/>
<path d="M31.579 84.2131H36.8419V89.4763H31.579V84.2131Z" fill="white"/>
<path d="M36.8398 84.2135H42.1047V89.4768H36.8398V84.2135Z" fill="white"/>
<path d="M42.1064 84.2128H47.3723V89.476H42.1064V84.2128Z" fill="white"/>
<path d="M47.3678 84.2137H52.6302V89.4768H47.3678V84.2137Z" fill="white"/>
<path d="M52.6332 84.2128H57.8978V89.4761H52.6332V84.2128Z" fill="white"/>
<path d="M57.8948 84.2132H63.1606V89.4763H57.8948V84.2132Z" fill="white"/>
<path d="M63.1608 84.2131H68.4234V89.4761H63.1608V84.2131Z" fill="white"/>
<path d="M68.4209 84.2132H73.6862V89.4764H68.4209V84.2132Z" fill="white"/>
<path d="M73.6853 84.2136H78.9489V89.4768H73.6853V84.2136Z" fill="white"/>
<path d="M78.9508 84.2133H84.2117V89.4762H78.9508V84.2133Z" fill="white"/>
<path d="M84.2102 84.2136H89.4744V89.4768H84.2102V84.2136Z" fill="white"/>
<path d="M89.4789 84.2129H94.7421V89.4761H89.4789V84.2129Z" fill="white"/>
<path d="M21.0543 89.4764H26.3164V94.7403H21.0543V89.4764Z" fill="white"/>
<path d="M52.6332 89.4761H57.8978V94.7401H52.6332V89.4761Z" fill="white"/>
<path d="M57.8948 89.4764H63.1606V94.7405H57.8948V89.4764Z" fill="white"/>
<path d="M63.1608 89.4761H68.4234V94.7401H63.1608V89.4761Z" fill="white"/>
<path d="M68.4209 89.4764H73.6862V94.7406H68.4209V89.4764Z" fill="white"/>
<path d="M73.6853 89.4767H78.9489V94.741H73.6853V89.4767Z" fill="white"/>
<path d="M78.9508 89.4763H84.2117V94.7406H78.9508V89.4763Z" fill="white"/>
<path d="M84.2102 89.4768H89.4744V94.741H84.2102V89.4768Z" fill="white"/>
<path d="M89.4789 89.4761H94.7421V94.7404H89.4789V89.4761Z" fill="white"/>
<path d="M57.8948 94.7405H63.1606V100.004H57.8948V94.7405Z" fill="white"/>
<path d="M63.1608 94.7401H68.4234V100.003H63.1608V94.7401Z" fill="white"/>
<path d="M68.4209 94.7406H73.6862V100.004H68.4209V94.7406Z" fill="white"/>
<path d="M73.6853 94.741H78.9489V100.004H73.6853V94.741Z" fill="white"/>
<path d="M78.9508 94.7406H84.2117V100.004H78.9508V94.7406Z" fill="white"/>
<path d="M84.2102 94.741H89.4744V100.004H84.2102V94.741Z" fill="white"/>
<path d="M57.8948 100.004H63.1606V105.267H57.8948V100.004Z" fill="white"/>
<path d="M63.1608 100.003H68.4234V105.266H63.1608V100.003Z" fill="white"/>
<path d="M68.4209 100.003H73.6862V105.267H68.4209V100.003Z" fill="white"/>
<path d="M73.6853 100.004H78.9489V105.267H73.6853V100.004Z" fill="white"/>
<path d="M10.528 0.000652313H15.7909V5.26392H10.528V0.000652313Z" fill="#231F20"/>
<path d="M15.7905 0.00125456H21.0536V5.26434H15.7905V0.00125456Z" fill="#231F20"/>
<path d="M26.3162 0.00124979H31.5792V5.26459H26.3162V0.00124979Z" fill="#231F20"/>
<path d="M31.579 0.000828743H36.8419V5.26401H31.579V0.000828743Z" fill="#231F20"/>
<path d="M36.8398 0.00143957H42.1047V5.26468H36.8398V0.00143957Z" fill="#231F20"/>
<path d="M42.1064 4.76837e-07H47.3723V5.26324H42.1064V4.76837e-07Z" fill="#231F20"/>
<path d="M47.3678 0.00160408H52.6302V5.26468H47.3678V0.00160408Z" fill="#231F20"/>
<path d="M52.6332 7.00951e-05H57.8978V5.26337H52.6332V7.00951e-05Z" fill="#231F20"/>
<path d="M68.4209 0.000782013H73.6862V5.26401H68.4209V0.000782013Z" fill="#231F20"/>
<path d="M73.6853 0.00147963H78.9489V5.26468H73.6853V0.00147963Z" fill="#231F20"/>
<path d="M5.26636 5.26309H10.528V10.5266H5.26636V5.26309Z" fill="#231F20"/>
<path d="M10.528 5.26384H15.7909V10.5271H10.528V5.26384Z" fill="#231F20"/>
<path d="M15.7905 5.26428H21.0536V10.528H15.7905V5.26428Z" fill="#231F20"/>
<path d="M21.0543 5.26383H26.3164V10.5274H21.0543V5.26383Z" fill="#231F20"/>
<path d="M57.8948 5.26387H63.1606V10.5273H57.8948V5.26387Z" fill="#231F20"/>
<path d="M63.1608 5.26357H68.4234V10.5269H63.1608V5.26357Z" fill="#231F20"/>
<path d="M68.4209 5.26407H73.6862V10.5276H68.4209V5.26407Z" fill="#231F20"/>
<path d="M73.6853 5.26477H78.9489V10.528H73.6853V5.26477Z" fill="#231F20"/>
<path d="M78.9508 5.26427H84.2117V10.5276H78.9508V5.26427Z" fill="#231F20"/>
<path d="M5.26636 10.5265H10.528V15.79H5.26636V10.5265Z" fill="#231F20"/>
<path d="M10.528 10.5272H15.7909V15.7904H10.528V10.5272Z" fill="#231F20"/>
<path d="M68.4209 10.5276H73.6862V15.7909H68.4209V10.5276Z" fill="#231F20"/>
<path d="M73.6853 10.528H78.9489V15.7912H73.6853V10.528Z" fill="#231F20"/>
<path d="M78.9508 10.5276H84.2117V15.7909H78.9508V10.5276Z" fill="#231F20"/>
<path d="M5.26636 15.79H10.528V21.0535H5.26636V15.79Z" fill="#231F20"/>
<path d="M73.6853 15.7911H78.9489V21.0551H73.6853V15.7911Z" fill="#231F20"/>
<path d="M5.26636 21.0529H10.528V26.3164H5.26636V21.0529Z" fill="#231F20"/>
<path d="M78.9508 21.0538H84.2117V26.3175H78.9508V21.0538Z" fill="#231F20"/>
<path d="M0 26.3174H5.26436V31.5806H0V26.3174Z" fill="#231F20"/>
<path d="M78.9508 26.3175H84.2117V31.5808H78.9508V26.3175Z" fill="#231F20"/>
<path d="M0 31.5805H5.26436V36.8437H0V31.5805Z" fill="#231F20"/>
<path d="M15.7905 31.5807H21.0536V36.8438H15.7905V31.5807Z" fill="#231F20"/>
<path d="M21.0543 31.5803H26.3164V36.8433H21.0543V31.5803Z" fill="#231F20"/>
<path d="M42.1064 31.5798H47.3723V36.843H42.1064V31.5798Z" fill="#231F20"/>
<path d="M47.3678 31.581H52.6302V36.8441H47.3678V31.581Z" fill="#231F20"/>
<path d="M52.6332 31.5799H57.8978V36.8432H52.6332V31.5799Z" fill="#231F20"/>
<path d="M84.2102 31.581H89.4744V36.8441H84.2102V31.581Z" fill="#231F20"/>
<path d="M0 36.8437H5.26436V42.1072H0V36.8437Z" fill="#231F20"/>
<path d="M10.528 36.8434H15.7909V42.107H10.528V36.8434Z" fill="#231F20"/>
<path d="M15.7905 36.8437H21.0536V42.1074H15.7905V36.8437Z" fill="#231F20"/>
<path d="M47.3678 36.844H52.6302V42.1078H47.3678V36.844Z" fill="#231F20"/>
<path d="M52.6332 36.8432H57.8978V42.1065H52.6332V36.8432Z" fill="#231F20"/>
<path d="M57.8948 36.8437H63.1606V42.1072H57.8948V36.8437Z" fill="#231F20"/>
<path d="M84.2102 36.8441H89.4744V42.1076H84.2102V36.8441Z" fill="#231F20"/>
<path d="M0 42.1071H5.26436V47.3712H0V42.1071Z" fill="#231F20"/>
<path d="M10.528 42.1071H15.7909V47.3709H10.528V42.1071Z" fill="#231F20"/>
<path d="M15.7905 42.1075H21.0536V47.3715H15.7905V42.1075Z" fill="#231F20"/>
<path d="M47.3678 42.1078H52.6302V47.3715H47.3678V42.1078Z" fill="#231F20"/>
<path d="M52.6332 42.1064H57.8978V47.3707H52.6332V42.1064Z" fill="#231F20"/>
<path d="M57.8948 42.1071H63.1606V47.3713H57.8948V42.1071Z" fill="#231F20"/>
<path d="M84.2102 42.1076H89.4744V47.3718H84.2102V42.1076Z" fill="#231F20"/>
<path d="M0 47.3712H5.26436V52.6344H0V47.3712Z" fill="#231F20"/>
<path d="M10.528 47.3709H15.7909V52.6342H10.528V47.3709Z" fill="#231F20"/>
<path d="M26.3162 47.3716H31.5792V52.6349H26.3162V47.3716Z" fill="#231F20"/>
<path d="M31.579 47.3711H36.8419V52.6343H31.579V47.3711Z" fill="#231F20"/>
<path d="M52.6332 47.3707H57.8978V52.634H52.6332V47.3707Z" fill="#231F20"/>
<path d="M57.8948 47.3714H63.1606V52.6345H57.8948V47.3714Z" fill="#231F20"/>
<path d="M84.2102 47.3718H89.4744V52.6349H84.2102V47.3718Z" fill="#231F20"/>
<path d="M0 52.6343H5.26436V57.8978H0V52.6343Z" fill="#231F20"/>
<path d="M73.6853 52.6347H78.9489V57.8982H73.6853V52.6347Z" fill="#231F20"/>
<path d="M78.9508 52.6346H84.2117V57.8979H78.9508V52.6346Z" fill="#231F20"/>
<path d="M84.2102 52.635H89.4744V57.8981H84.2102V52.635Z" fill="#231F20"/>
<path d="M5.26636 57.8972H10.528V63.1603H5.26636V57.8972Z" fill="#231F20"/>
<path d="M10.528 57.8974H15.7909V63.1607H10.528V57.8974Z" fill="#231F20"/>
<path d="M47.3678 57.8979H52.6302V63.1613H47.3678V57.8979Z" fill="#231F20"/>
<path d="M52.6332 57.8974H57.8978V63.1603H52.6332V57.8974Z" fill="#231F20"/>
<path d="M57.8948 57.8976H63.1606V63.1611H57.8948V57.8976Z" fill="#231F20"/>
<path d="M63.1608 57.8971H68.4234V63.1604H63.1608V57.8971Z" fill="#231F20"/>
<path d="M68.4209 57.8977H73.6862V63.1609H68.4209V57.8977Z" fill="#231F20"/>
<path d="M73.6853 57.8982H78.9489V63.1614H73.6853V57.8982Z" fill="#231F20"/>
<path d="M78.9508 57.8979H84.2117V63.1609H78.9508V57.8979Z" fill="#231F20"/>
<path d="M84.2102 57.8982H89.4744V63.1613H84.2102V57.8982Z" fill="#231F20"/>
<path d="M89.4789 57.8974H94.7421V63.1607H89.4789V57.8974Z" fill="#231F20"/>
<path d="M10.528 63.1601H15.7909V68.4236H10.528V63.1601Z" fill="#231F20"/>
<path d="M15.7905 63.1608H21.0536V68.4242H15.7905V63.1608Z" fill="#231F20"/>
<path d="M21.0543 63.1602H26.3164V68.4238H21.0543V63.1602Z" fill="#231F20"/>
<path d="M26.3162 63.1606H31.5792V68.4242H26.3162V63.1606Z" fill="#231F20"/>
<path d="M31.579 63.1604H36.8419V68.4239H31.579V63.1604Z" fill="#231F20"/>
<path d="M36.8398 63.1606H42.1047V68.4242H36.8398V63.1606Z" fill="#231F20"/>
<path d="M42.1064 63.1599H47.3723V68.4234H42.1064V63.1599Z" fill="#231F20"/>
<path d="M47.3678 63.1608H52.6302V68.4242H47.3678V63.1608Z" fill="#231F20"/>
<path d="M52.6332 63.16H57.8978V68.4233H52.6332V63.16Z" fill="#231F20"/>
<path d="M57.8948 63.1604H63.1606V68.4239H57.8948V63.1604Z" fill="#231F20"/>
<path d="M63.1608 63.1599H68.4234V68.4235H63.1608V63.1599Z" fill="#231F20"/>
<path d="M68.4209 63.1603H73.6862V68.4239H68.4209V63.1603Z" fill="#231F20"/>
<path d="M89.4789 63.1599H94.7421V68.4235H89.4789V63.1599Z" fill="#231F20"/>
<path d="M10.528 68.4236H15.7909V73.6868H10.528V68.4236Z" fill="#231F20"/>
<path d="M15.7905 68.4242H21.0536V73.6873H15.7905V68.4242Z" fill="#231F20"/>
<path d="M21.0543 68.4238H26.3164V73.6868H21.0543V68.4238Z" fill="#231F20"/>
<path d="M26.3162 68.4243H31.5792V73.6873H26.3162V68.4243Z" fill="#231F20"/>
<path d="M31.579 68.4239H36.8419V73.6871H31.579V68.4239Z" fill="#231F20"/>
<path d="M36.8398 68.4242H42.1047V73.6874H36.8398V68.4242Z" fill="#231F20"/>
<path d="M42.1064 68.4234H47.3723V73.6866H42.1064V68.4234Z" fill="#231F20"/>
<path d="M47.3678 68.4241H52.6302V73.6872H47.3678V68.4241Z" fill="#231F20"/>
<path d="M52.6332 68.4233H57.8978V73.6866H52.6332V68.4233Z" fill="#231F20"/>
<path d="M89.4789 68.4236H94.7421V73.6868H89.4789V68.4236Z" fill="#231F20"/>
<path d="M10.528 73.6869H15.7909V78.9498H10.528V73.6869Z" fill="#231F20"/>
<path d="M15.7905 73.6872H21.0536V78.9503H15.7905V73.6872Z" fill="#231F20"/>
<path d="M21.0543 73.6867H26.3164V78.95H21.0543V73.6867Z" fill="#231F20"/>
<path d="M94.7388 73.6875H100V78.9506H94.7388V73.6875Z" fill="#231F20"/>
<path d="M5.26636 78.9495H10.528V84.2133H5.26636V78.9495Z" fill="#231F20"/>
<path d="M10.528 78.9498H15.7909V84.2137H10.528V78.9498Z" fill="#231F20"/>
<path d="M15.7905 78.9503H21.0536V84.214H15.7905V78.9503Z" fill="#231F20"/>
<path d="M21.0543 78.9501H26.3164V84.2137H21.0543V78.9501Z" fill="#231F20"/>
<path d="M94.7388 78.9506H100V84.2144H94.7388V78.9506Z" fill="#231F20"/>
<path d="M5.26636 84.2127H10.528V89.4759H5.26636V84.2127Z" fill="#231F20"/>
<path d="M10.528 84.2131H15.7909V89.4763H10.528V84.2131Z" fill="#231F20"/>
<path d="M15.7905 84.2134H21.0536V89.4764H15.7905V84.2134Z" fill="#231F20"/>
<path d="M94.7388 84.2136H100V89.4767H94.7388V84.2136Z" fill="#231F20"/>
<path d="M5.26636 89.4759H10.528V94.74H5.26636V89.4759Z" fill="#231F20"/>
<path d="M10.528 89.4764H15.7909V94.7405H10.528V89.4764Z" fill="#231F20"/>
<path d="M15.7905 89.4764H21.0536V94.7408H15.7905V89.4764Z" fill="#231F20"/>
<path d="M26.3162 89.4766H31.5792V94.7409H26.3162V89.4766Z" fill="#231F20"/>
<path d="M31.579 89.4763H36.8419V94.7404H31.579V89.4763Z" fill="#231F20"/>
<path d="M36.8398 89.4767H42.1047V94.7406H36.8398V89.4767Z" fill="#231F20"/>
<path d="M42.1064 89.4761H47.3723V94.7403H42.1064V89.4761Z" fill="#231F20"/>
<path d="M47.3678 89.4767H52.6302V94.7408H47.3678V89.4767Z" fill="#231F20"/>
<path d="M94.7388 89.4766H100V94.7408H94.7388V89.4766Z" fill="#231F20"/>
<path d="M0 94.7405H5.26436V100.004H0V94.7405Z" fill="#231F20"/>
<path d="M5.26636 94.74H10.528V100.003H5.26636V94.74Z" fill="#231F20"/>
<path d="M10.528 94.7406H15.7909V100.004H10.528V94.7406Z" fill="#231F20"/>
<path d="M15.7905 94.7408H21.0536V100.004H15.7905V94.7408Z" fill="#231F20"/>
<path d="M21.0543 94.7403H26.3164V100.004H21.0543V94.7403Z" fill="#231F20"/>
<path d="M26.3162 94.7408H31.5792V100.004H26.3162V94.7408Z" fill="#231F20"/>
<path d="M31.579 94.7404H36.8419V100.004H31.579V94.7404Z" fill="#231F20"/>
<path d="M36.8398 94.7407H42.1047V100.004H36.8398V94.7407Z" fill="#231F20"/>
<path d="M42.1064 94.7403H47.3723V100.003H42.1064V94.7403Z" fill="#231F20"/>
<path d="M47.3678 94.7408H52.6302V100.004H47.3678V94.7408Z" fill="#231F20"/>
<path d="M52.6332 94.7401H57.8978V100.003H52.6332V94.7401Z" fill="#231F20"/>
<path d="M89.4789 94.7404H94.7421V100.003H89.4789V94.7404Z" fill="#231F20"/>
<path d="M0 100.004H5.26436V105.267H0V100.004Z" fill="#231F20"/>
<path d="M5.26636 100.003H10.528V105.266H5.26636V100.003Z" fill="#231F20"/>
<path d="M10.528 100.003H15.7909V105.267H10.528V100.003Z" fill="#231F20"/>
<path d="M15.7905 100.004H21.0536V105.267H15.7905V100.004Z" fill="#231F20"/>
<path d="M21.0543 100.004H26.3164V105.267H21.0543V100.004Z" fill="#231F20"/>
<path d="M26.3162 100.004H31.5792V105.267H26.3162V100.004Z" fill="#231F20"/>
<path d="M31.579 100.004H36.8419V105.267H31.579V100.004Z" fill="#231F20"/>
<path d="M36.8398 100.004H42.1047V105.267H36.8398V100.004Z" fill="#231F20"/>
<path d="M42.1064 100.003H47.3723V105.266H42.1064V100.003Z" fill="#231F20"/>
<path d="M47.3678 100.004H52.6302V105.267H47.3678V100.004Z" fill="#231F20"/>
<path d="M52.6332 100.003H57.8978V105.266H52.6332V100.003Z" fill="#231F20"/>
<path d="M78.9508 100.004H84.2117V105.267H78.9508V100.004Z" fill="#231F20"/>
<path d="M84.2102 100.004H89.4744V105.267H84.2102V100.004Z" fill="#231F20"/>
<path d="M5.26636 105.266H10.528V110.529H5.26636V105.266Z" fill="#231F20"/>
<path d="M10.528 105.267H15.7909V110.53H10.528V105.267Z" fill="#231F20"/>
<path d="M15.7905 105.267H21.0536V110.53H15.7905V105.267Z" fill="#231F20"/>
<path d="M21.0543 105.267H26.3164V110.53H21.0543V105.267Z" fill="#231F20"/>
<path d="M26.3162 105.267H31.5792V110.53H26.3162V105.267Z" fill="#231F20"/>
<path d="M31.579 105.267H36.8419V110.53H31.579V105.267Z" fill="#231F20"/>
<path d="M36.8398 105.267H42.1047V110.53H36.8398V105.267Z" fill="#231F20"/>
<path d="M42.1064 105.266H47.3723V110.53H42.1064V105.266Z" fill="#231F20"/>
<path d="M47.3678 105.267H52.6302V110.53H47.3678V105.267Z" fill="#231F20"/>
<path d="M52.6332 105.266H57.8978V110.53H52.6332V105.266Z" fill="#231F20"/>
<path d="M57.8948 105.267H63.1606V110.53H57.8948V105.267Z" fill="#231F20"/>
<path d="M63.1608 105.266H68.4234V110.53H63.1608V105.266Z" fill="#231F20"/>
<path d="M68.4209 105.267H73.6862V110.53H68.4209V105.267Z" fill="#231F20"/>
<path d="M73.6853 105.267H78.9489V110.53H73.6853V105.267Z" fill="#231F20"/>
</svg>
