<svg width="160" height="160" viewBox="0 0 160 160" fill="none" xmlns="http://www.w3.org/2000/svg">
<path d="M65.4539 7.27291H72.727V14.5452H65.4539V7.27291Z" fill="white"/>
<path d="M72.7271 7.27291H80.0002V14.5452H72.7271V7.27291Z" fill="white"/>
<path d="M80 7.27291H87.2731V14.5452H80V7.27291Z" fill="white"/>
<path d="M87.2729 7.27291H94.5461V14.5452H87.2729V7.27291Z" fill="white"/>
<path d="M94.5461 7.27291H101.819V14.5452H94.5461V7.27291Z" fill="white"/>
<path d="M101.819 7.27291H109.088V14.5452H101.819V7.27291Z" fill="white"/>
<path d="M50.9075 14.545H58.1806V21.8181H50.9075V14.545Z" fill="white"/>
<path d="M58.1804 14.545H65.4535V21.8181H58.1804V14.545Z" fill="white"/>
<path d="M65.4539 14.545H72.727V21.8181H65.4539V14.545Z" fill="white"/>
<path d="M72.7271 14.545H80.0002V21.8181H72.7271V14.545Z" fill="white"/>
<path d="M80 14.545H87.2731V21.8181H80V14.545Z" fill="white"/>
<path d="M87.2729 14.545H94.5461V21.8181H87.2729V14.545Z" fill="white"/>
<path d="M94.5461 14.545H101.819V21.8181H94.5461V14.545Z" fill="white"/>
<path d="M101.819 14.545H109.088V21.8181H101.819V14.545Z" fill="white"/>
<path d="M109.088 14.545H116.361V21.8181H109.088V14.545Z" fill="white"/>
<path d="M116.361 14.545H123.634V21.8181H116.361V14.545Z" fill="white"/>
<path d="M43.6343 21.8185H50.9074V29.0916H43.6343V21.8185Z" fill="white"/>
<path d="M50.9075 21.8185H58.1806V29.0916H50.9075V21.8185Z" fill="white"/>
<path d="M58.1804 21.8185H65.4535V29.0916H58.1804V21.8185Z" fill="white"/>
<path d="M65.4539 21.8185H72.727V29.0916H65.4539V21.8185Z" fill="white"/>
<path d="M72.7271 21.8185H80.0002V29.0916H72.7271V21.8185Z" fill="white"/>
<path d="M80 21.8185H87.2731V29.0916H80V21.8185Z" fill="white"/>
<path d="M87.2729 21.8185H94.5461V29.0916H87.2729V21.8185Z" fill="white"/>
<path d="M94.5461 21.8185H101.819V29.0916H94.5461V21.8185Z" fill="white"/>
<path d="M101.819 21.8185H109.088V29.0916H101.819V21.8185Z" fill="white"/>
<path d="M109.088 21.8185H116.361V29.0916H109.088V21.8185Z" fill="white"/>
<path d="M116.361 21.8185H123.634V29.0916H116.361V21.8185Z" fill="white"/>
<path d="M36.3613 29.0917H43.6344V36.364H36.3613V29.0917Z" fill="white"/>
<path d="M43.6343 29.0917H50.9074V36.364H43.6343V29.0917Z" fill="white"/>
<path d="M50.9075 29.0917H58.1806V36.364H50.9075V29.0917Z" fill="white"/>
<path d="M58.1804 29.0917H65.4535V36.364H58.1804V29.0917Z" fill="white"/>
<path d="M65.4539 29.0917H72.727V36.364H65.4539V29.0917Z" fill="white"/>
<path d="M72.7271 29.0917H80.0002V36.364H72.7271V29.0917Z" fill="white"/>
<path d="M80 29.0917H87.2731V36.364H80V29.0917Z" fill="white"/>
<path d="M87.2729 29.0917H94.5461V36.364H87.2729V29.0917Z" fill="white"/>
<path d="M94.5461 29.0917H101.819V36.364H94.5461V29.0917Z" fill="white"/>
<path d="M101.819 29.0917H109.088V36.364H101.819V29.0917Z" fill="white"/>
<path d="M109.088 29.0917H116.361V36.364H109.088V29.0917Z" fill="white"/>
<path d="M116.361 29.0917H123.634V36.364H116.361V29.0917Z" fill="white"/>
<path d="M123.634 29.0917H130.907V36.364H123.634V29.0917Z" fill="white"/>
<path d="M36.3613 36.3639H43.6344V43.637H36.3613V36.3639Z" fill="white"/>
<path d="M43.6343 36.3639H50.9074V43.637H43.6343V36.3639Z" fill="white"/>
<path d="M50.9075 36.3639H58.1806V43.637H50.9075V36.3639Z" fill="white"/>
<path d="M58.1804 36.3639H65.4535V43.637H58.1804V36.3639Z" fill="white"/>
<path d="M65.4539 36.3639H72.727V43.637H65.4539V36.3639Z" fill="white"/>
<path d="M72.7271 36.3639H80.0002V43.637H72.7271V36.3639Z" fill="white"/>
<path d="M80 36.3639H87.2731V43.637H80V36.3639Z" fill="white"/>
<path d="M87.2729 36.3639H94.5461V43.637H87.2729V36.3639Z" fill="white"/>
<path d="M94.5461 36.3639H101.819V43.637H94.5461V36.3639Z" fill="white"/>
<path d="M101.819 36.3639H109.088V43.637H101.819V36.3639Z" fill="white"/>
<path d="M109.088 36.3639H116.361V43.637H109.088V36.3639Z" fill="white"/>
<path d="M116.361 36.3639H123.634V43.637H116.361V36.3639Z" fill="white"/>
<path d="M123.634 36.3639H130.907V43.637H123.634V36.3639Z" fill="white"/>
<path d="M29.0925 43.637H36.3614V50.9097H29.0925V43.637Z" fill="white"/>
<path d="M36.3613 43.637H43.6344V50.9097H36.3613V43.637Z" fill="white"/>
<path d="M43.6343 43.637H50.9074V50.9097H43.6343V43.637Z" fill="white"/>
<path d="M50.9075 43.637H58.1806V50.9097H50.9075V43.637Z" fill="white"/>
<path d="M80 43.637H87.2731V50.9097H80V43.637Z" fill="white"/>
<path d="M87.2729 43.637H94.5461V50.9097H87.2729V43.637Z" fill="white"/>
<path d="M94.5461 43.637H101.819V50.9097H94.5461V43.637Z" fill="white"/>
<path d="M101.819 43.637H109.088V50.9097H101.819V43.637Z" fill="white"/>
<path d="M123.634 43.637H130.907V50.9097H123.634V43.637Z" fill="white"/>
<path d="M130.907 43.637H138.181V50.9097H130.907V43.637Z" fill="white"/>
<path d="M29.0925 50.9095H36.3614V58.1826H29.0925V50.9095Z" fill="white"/>
<path d="M36.3613 50.9095H43.6344V58.1826H36.3613V50.9095Z" fill="white"/>
<path d="M43.6343 50.9095H50.9074V58.1826H43.6343V50.9095Z" fill="white"/>
<path d="M72.7271 50.9095H80.0002V58.1826H72.7271V50.9095Z" fill="white"/>
<path d="M80 50.9095H87.2731V58.1826H80V50.9095Z" fill="white"/>
<path d="M87.2729 50.9095H94.5461V58.1826H87.2729V50.9095Z" fill="white"/>
<path d="M94.5461 50.9095H101.819V58.1826H94.5461V50.9095Z" fill="white"/>
<path d="M101.819 50.9095H109.088V58.1826H101.819V50.9095Z" fill="white"/>
<path d="M109.088 50.9095H116.361V58.1826H109.088V50.9095Z" fill="white"/>
<path d="M130.907 50.9095H138.181V58.1826H130.907V50.9095Z" fill="white"/>
<path d="M29.0925 58.1827H36.3614V65.4553H29.0925V58.1827Z" fill="white"/>
<path d="M36.3613 58.1827H43.6344V65.4553H36.3613V58.1827Z" fill="white"/>
<path d="M43.6343 58.1827H50.9074V65.4553H43.6343V58.1827Z" fill="white"/>
<path d="M72.7271 58.1827H80.0002V65.4553H72.7271V58.1827Z" fill="white"/>
<path d="M80 58.1827H87.2731V65.4553H80V58.1827Z" fill="white"/>
<path d="M87.2729 58.1827H94.5461V65.4553H87.2729V58.1827Z" fill="white"/>
<path d="M94.5461 58.1827H101.819V65.4553H94.5461V58.1827Z" fill="white"/>
<path d="M101.819 58.1827H109.088V65.4553H101.819V58.1827Z" fill="white"/>
<path d="M109.088 58.1827H116.361V65.4553H109.088V58.1827Z" fill="white"/>
<path d="M130.907 58.1827H138.181V65.4553H130.907V58.1827Z" fill="white"/>
<path d="M29.0925 65.4553H36.3614V72.7275H29.0925V65.4553Z" fill="white"/>
<path d="M36.3613 65.4553H43.6344V72.7275H36.3613V65.4553Z" fill="white"/>
<path d="M43.6343 65.4553H50.9074V72.7275H43.6343V65.4553Z" fill="white"/>
<path d="M65.4539 65.4553H72.727V72.7275H65.4539V65.4553Z" fill="white"/>
<path d="M72.7271 65.4553H80.0002V72.7275H72.7271V65.4553Z" fill="white"/>
<path d="M80 65.4553H87.2731V72.7275H80V65.4553Z" fill="white"/>
<path d="M101.819 65.4553H109.088V72.7275H101.819V65.4553Z" fill="white"/>
<path d="M109.088 65.4553H116.361V72.7275H109.088V65.4553Z" fill="white"/>
<path d="M116.361 65.4553H123.634V72.7275H116.361V65.4553Z" fill="white"/>
<path d="M130.907 65.4553H138.181V72.7275H130.907V65.4553Z" fill="white"/>
<path d="M36.3613 72.7271H43.6344V80.0002H36.3613V72.7271Z" fill="white"/>
<path d="M43.6343 72.7271H50.9074V80.0002H43.6343V72.7271Z" fill="white"/>
<path d="M50.9075 72.7271H58.1806V80.0002H50.9075V72.7271Z" fill="white"/>
<path d="M58.1804 72.7271H65.4535V80.0002H58.1804V72.7271Z" fill="white"/>
<path d="M65.4539 72.7271H72.727V80.0002H65.4539V72.7271Z" fill="white"/>
<path d="M72.7271 72.7271H80.0002V80.0002H72.7271V72.7271Z" fill="white"/>
<path d="M80 72.7271H87.2731V80.0002H80V72.7271Z" fill="white"/>
<path d="M87.2729 72.7271H94.5461V80.0002H87.2729V72.7271Z" fill="white"/>
<path d="M94.5461 72.7271H101.819V80.0002H94.5461V72.7271Z" fill="white"/>
<path d="M101.819 72.7271H109.088V80.0002H101.819V72.7271Z" fill="white"/>
<path d="M109.088 72.7271H116.361V80.0002H109.088V72.7271Z" fill="white"/>
<path d="M116.361 72.7271H123.634V80.0002H116.361V72.7271Z" fill="white"/>
<path d="M123.634 72.7271H130.907V80.0002H123.634V72.7271Z" fill="white"/>
<path d="M65.4539 80.0001H72.727V87.2732H65.4539V80.0001Z" fill="white"/>
<path d="M72.7271 80.0001H80.0002V87.2732H72.7271V80.0001Z" fill="white"/>
<path d="M80 80.0001H87.2731V87.2732H80V80.0001Z" fill="white"/>
<path d="M87.2729 80.0001H94.5461V87.2732H87.2729V80.0001Z" fill="white"/>
<path d="M94.5461 80.0001H101.819V87.2732H94.5461V80.0001Z" fill="white"/>
<path d="M101.819 80.0001H109.088V87.2732H101.819V80.0001Z" fill="white"/>
<path d="M109.088 80.0001H116.361V87.2732H109.088V80.0001Z" fill="white"/>
<path d="M29.0925 94.545H36.3614V101.818H29.0925V94.545Z" fill="white"/>
<path d="M36.3613 94.545H43.6344V101.818H36.3613V94.545Z" fill="white"/>
<path d="M43.6343 94.545H50.9074V101.818H43.6343V94.545Z" fill="white"/>
<path d="M50.9075 94.545H58.1806V101.818H50.9075V94.545Z" fill="white"/>
<path d="M58.1804 94.545H65.4535V101.818H58.1804V94.545Z" fill="white"/>
<path d="M65.4539 94.545H72.727V101.818H65.4539V94.545Z" fill="white"/>
<path d="M72.7271 94.545H80.0002V101.818H72.7271V94.545Z" fill="white"/>
<path d="M80 94.545H87.2731V101.818H80V94.545Z" fill="white"/>
<path d="M87.2729 94.545H94.5461V101.818H87.2729V94.545Z" fill="white"/>
<path d="M94.5461 94.545H101.819V101.818H94.5461V94.545Z" fill="white"/>
<path d="M101.819 94.545H109.088V101.818H101.819V94.545Z" fill="white"/>
<path d="M109.088 94.545H116.361V101.818H109.088V94.545Z" fill="white"/>
<path d="M116.361 94.545H123.634V101.818H116.361V94.545Z" fill="white"/>
<path d="M21.8152 101.818H29.0925V109.092H21.8152V101.818Z" fill="white"/>
<path d="M29.0925 101.818H36.3614V109.092H29.0925V101.818Z" fill="white"/>
<path d="M36.3613 101.818H43.6344V109.092H36.3613V101.818Z" fill="white"/>
<path d="M43.6343 101.818H50.9074V109.092H43.6343V101.818Z" fill="white"/>
<path d="M50.9075 101.818H58.1806V109.092H50.9075V101.818Z" fill="white"/>
<path d="M58.1804 101.818H65.4535V109.092H58.1804V101.818Z" fill="white"/>
<path d="M65.4539 101.818H72.727V109.092H65.4539V101.818Z" fill="white"/>
<path d="M72.7271 101.818H80.0002V109.092H72.7271V101.818Z" fill="white"/>
<path d="M80 101.818H87.2731V109.092H80V101.818Z" fill="white"/>
<path d="M87.2729 101.818H94.5461V109.092H87.2729V101.818Z" fill="white"/>
<path d="M94.5461 101.818H101.819V109.092H94.5461V101.818Z" fill="white"/>
<path d="M101.819 101.818H109.088V109.092H101.819V101.818Z" fill="white"/>
<path d="M109.088 101.818H116.361V109.092H109.088V101.818Z" fill="white"/>
<path d="M116.361 101.818H123.634V109.092H116.361V101.818Z" fill="white"/>
<path d="M123.634 101.818H130.907V109.092H123.634V101.818Z" fill="white"/>
<path d="M21.8152 109.091H29.0925V116.364H21.8152V109.091Z" fill="white"/>
<path d="M29.0925 109.091H36.3614V116.364H29.0925V109.091Z" fill="white"/>
<path d="M36.3613 109.091H43.6344V116.364H36.3613V109.091Z" fill="white"/>
<path d="M43.6343 109.091H50.9074V116.364H43.6343V109.091Z" fill="white"/>
<path d="M50.9075 109.091H58.1806V116.364H50.9075V109.091Z" fill="white"/>
<path d="M58.1804 109.091H65.4535V116.364H58.1804V109.091Z" fill="white"/>
<path d="M65.4539 109.091H72.727V116.364H65.4539V109.091Z" fill="white"/>
<path d="M72.7271 109.091H80.0002V116.364H72.7271V109.091Z" fill="white"/>
<path d="M80 109.091H87.2731V116.364H80V109.091Z" fill="white"/>
<path d="M87.2729 109.091H94.5461V116.364H87.2729V109.091Z" fill="white"/>
<path d="M94.5461 109.091H101.819V116.364H94.5461V109.091Z" fill="white"/>
<path d="M101.819 109.091H109.088V116.364H101.819V109.091Z" fill="white"/>
<path d="M109.088 109.091H116.361V116.364H109.088V109.091Z" fill="white"/>
<path d="M116.361 109.091H123.634V116.364H116.361V109.091Z" fill="white"/>
<path d="M123.634 109.091H130.907V116.364H123.634V109.091Z" fill="white"/>
<path d="M21.8152 116.364H29.0925V123.637H21.8152V116.364Z" fill="white"/>
<path d="M29.0925 116.364H36.3614V123.637H29.0925V116.364Z" fill="white"/>
<path d="M36.3613 116.364H43.6344V123.637H36.3613V116.364Z" fill="white"/>
<path d="M43.6343 116.364H50.9074V123.637H43.6343V116.364Z" fill="white"/>
<path d="M50.9075 116.364H58.1806V123.637H50.9075V116.364Z" fill="white"/>
<path d="M58.1804 116.364H65.4535V123.637H58.1804V116.364Z" fill="white"/>
<path d="M65.4539 116.364H72.727V123.637H65.4539V116.364Z" fill="white"/>
<path d="M72.7271 116.364H80.0002V123.637H72.7271V116.364Z" fill="white"/>
<path d="M80 116.364H87.2731V123.637H80V116.364Z" fill="white"/>
<path d="M87.2729 116.364H94.5461V123.637H87.2729V116.364Z" fill="white"/>
<path d="M94.5461 116.364H101.819V123.637H94.5461V116.364Z" fill="white"/>
<path d="M101.819 116.364H109.088V123.637H101.819V116.364Z" fill="white"/>
<path d="M109.088 116.364H116.361V123.637H109.088V116.364Z" fill="white"/>
<path d="M116.361 116.364H123.634V123.637H116.361V116.364Z" fill="white"/>
<path d="M123.634 116.364H130.907V123.637H123.634V116.364Z" fill="white"/>
<path d="M29.0925 123.637H36.3614V130.91H29.0925V123.637Z" fill="white"/>
<path d="M36.3613 123.637H43.6344V130.91H36.3613V123.637Z" fill="white"/>
<path d="M43.6343 123.637H50.9074V130.91H43.6343V123.637Z" fill="white"/>
<path d="M50.9075 123.637H58.1806V130.91H50.9075V123.637Z" fill="white"/>
<path d="M58.1804 123.637H65.4535V130.91H58.1804V123.637Z" fill="white"/>
<path d="M65.4539 123.637H72.727V130.91H65.4539V123.637Z" fill="white"/>
<path d="M72.7271 123.637H80.0002V130.91H72.7271V123.637Z" fill="white"/>
<path d="M80 123.637H87.2731V130.91H80V123.637Z" fill="white"/>
<path d="M87.2729 123.637H94.5461V130.91H87.2729V123.637Z" fill="white"/>
<path d="M94.5461 123.637H101.819V130.91H94.5461V123.637Z" fill="white"/>
<path d="M101.819 123.637H109.088V130.91H101.819V123.637Z" fill="white"/>
<path d="M109.088 123.637H116.361V130.91H109.088V123.637Z" fill="white"/>
<path d="M116.361 123.637H123.634V130.91H116.361V123.637Z" fill="white"/>
<path d="M123.634 123.637H130.907V130.91H123.634V123.637Z" fill="white"/>
<path d="M29.0925 130.909H36.3614V138.182H29.0925V130.909Z" fill="white"/>
<path d="M36.3613 130.909H43.6344V138.182H36.3613V130.909Z" fill="white"/>
<path d="M43.6343 130.909H50.9074V138.182H43.6343V130.909Z" fill="white"/>
<path d="M50.9075 130.909H58.1806V138.182H50.9075V130.909Z" fill="white"/>
<path d="M94.5461 130.909H101.819V138.182H94.5461V130.909Z" fill="white"/>
<path d="M101.819 130.909H109.088V138.182H101.819V130.909Z" fill="white"/>
<path d="M109.088 130.909H116.361V138.182H109.088V130.909Z" fill="white"/>
<path d="M116.361 130.909H123.634V138.182H116.361V130.909Z" fill="white"/>
<path d="M43.6343 138.182H50.9074V145.455H43.6343V138.182Z" fill="white"/>
<path d="M36.3613 -0.000150204H43.6344V7.27295H36.3613V-0.000150204Z" fill="#231F20"/>
<path d="M43.6343 -0.000150204H50.9074V7.27295H43.6343V-0.000150204Z" fill="#231F20"/>
<path d="M65.4539 -0.000150204H72.727V7.27295H65.4539V-0.000150204Z" fill="#231F20"/>
<path d="M72.7271 -0.000150204H80.0002V7.27295H72.7271V-0.000150204Z" fill="#231F20"/>
<path d="M80 -0.000150204H87.2731V7.27295H80V-0.000150204Z" fill="#231F20"/>
<path d="M87.2729 -0.000150204H94.5461V7.27295H87.2729V-0.000150204Z" fill="#231F20"/>
<path d="M94.5461 -0.000150204H101.819V7.27295H94.5461V-0.000150204Z" fill="#231F20"/>
<path d="M101.819 -0.000150204H109.088V7.27295H101.819V-0.000150204Z" fill="#231F20"/>
<path d="M116.361 -0.000150204H123.634V7.27295H116.361V-0.000150204Z" fill="#231F20"/>
<path d="M123.634 -0.000150204H130.907V7.27295H123.634V-0.000150204Z" fill="#231F20"/>
<path d="M29.0925 7.27291H36.3614V14.5452H29.0925V7.27291Z" fill="#231F20"/>
<path d="M36.3613 7.27291H43.6344V14.5452H36.3613V7.27291Z" fill="#231F20"/>
<path d="M43.6343 7.27291H50.9074V14.5452H43.6343V7.27291Z" fill="#231F20"/>
<path d="M50.9075 7.27291H58.1806V14.5452H50.9075V7.27291Z" fill="#231F20"/>
<path d="M58.1804 7.27291H65.4535V14.5452H58.1804V7.27291Z" fill="#231F20"/>
<path d="M109.088 7.27291H116.361V14.5452H109.088V7.27291Z" fill="#231F20"/>
<path d="M116.361 7.27291H123.634V14.5452H116.361V7.27291Z" fill="#231F20"/>
<path d="M123.634 7.27291H130.907V14.5452H123.634V7.27291Z" fill="#231F20"/>
<path d="M130.907 7.27291H138.181V14.5452H130.907V7.27291Z" fill="#231F20"/>
<path d="M29.0925 14.545H36.3614V21.8181H29.0925V14.545Z" fill="#231F20"/>
<path d="M36.3613 14.545H43.6344V21.8181H36.3613V14.545Z" fill="#231F20"/>
<path d="M43.6343 14.545H50.9074V21.8181H43.6343V14.545Z" fill="#231F20"/>
<path d="M123.634 14.545H130.907V21.8181H123.634V14.545Z" fill="#231F20"/>
<path d="M130.907 14.545H138.181V21.8181H130.907V14.545Z" fill="#231F20"/>
<path d="M29.0925 21.8185H36.3614V29.0916H29.0925V21.8185Z" fill="#231F20"/>
<path d="M36.3613 21.8185H43.6344V29.0916H36.3613V21.8185Z" fill="#231F20"/>
<path d="M123.634 21.8185H130.907V29.0916H123.634V21.8185Z" fill="#231F20"/>
<path d="M130.907 21.8185H138.181V29.0916H130.907V21.8185Z" fill="#231F20"/>
<path d="M29.0925 29.0917H36.3614V36.364H29.0925V29.0917Z" fill="#231F20"/>
<path d="M130.907 29.0917H138.181V36.364H130.907V29.0917Z" fill="#231F20"/>
<path d="M29.0925 36.3639H36.3614V43.637H29.0925V36.3639Z" fill="#231F20"/>
<path d="M130.907 36.3639H138.181V43.637H130.907V36.3639Z" fill="#231F20"/>
<path d="M21.8152 43.637H29.0925V50.9097H21.8152V43.637Z" fill="#231F20"/>
<path d="M58.1804 43.637H65.4535V50.9097H58.1804V43.637Z" fill="#231F20"/>
<path d="M65.4539 43.637H72.727V50.9097H65.4539V43.637Z" fill="#231F20"/>
<path d="M72.7271 43.637H80.0002V50.9097H72.7271V43.637Z" fill="#231F20"/>
<path d="M109.088 43.637H116.361V50.9097H109.088V43.637Z" fill="#231F20"/>
<path d="M116.361 43.637H123.634V50.9097H116.361V43.637Z" fill="#231F20"/>
<path d="M138.18 43.637H145.454V50.9097H138.18V43.637Z" fill="#231F20"/>
<path d="M21.8152 50.9095H29.0925V58.1826H21.8152V50.9095Z" fill="#231F20"/>
<path d="M50.9075 50.9095H58.1806V58.1826H50.9075V50.9095Z" fill="#231F20"/>
<path d="M58.1804 50.9095H65.4535V58.1826H58.1804V50.9095Z" fill="#231F20"/>
<path d="M65.4539 50.9095H72.727V58.1826H65.4539V50.9095Z" fill="#231F20"/>
<path d="M116.361 50.9095H123.634V58.1826H116.361V50.9095Z" fill="#231F20"/>
<path d="M123.634 50.9095H130.907V58.1826H123.634V50.9095Z" fill="#231F20"/>
<path d="M138.18 50.9095H145.454V58.1826H138.18V50.9095Z" fill="#231F20"/>
<path d="M21.8152 58.1827H29.0925V65.4553H21.8152V58.1827Z" fill="#231F20"/>
<path d="M50.9075 58.1827H58.1806V65.4553H50.9075V58.1827Z" fill="#231F20"/>
<path d="M58.1804 58.1827H65.4535V65.4553H58.1804V58.1827Z" fill="#231F20"/>
<path d="M65.4539 58.1827H72.727V65.4553H65.4539V58.1827Z" fill="#231F20"/>
<path d="M116.361 58.1827H123.634V65.4553H116.361V58.1827Z" fill="#231F20"/>
<path d="M123.634 58.1827H130.907V65.4553H123.634V58.1827Z" fill="#231F20"/>
<path d="M138.18 58.1827H145.454V65.4553H138.18V58.1827Z" fill="#231F20"/>
<path d="M7.27295 65.4553H14.5461V72.7275H7.27295V65.4553Z" fill="#231F20"/>
<path d="M14.5461 65.4553H21.815V72.7275H14.5461V65.4553Z" fill="#231F20"/>
<path d="M21.8152 65.4553H29.0925V72.7275H21.8152V65.4553Z" fill="#231F20"/>
<path d="M50.9075 65.4553H58.1806V72.7275H50.9075V65.4553Z" fill="#231F20"/>
<path d="M58.1804 65.4553H65.4535V72.7275H58.1804V65.4553Z" fill="#231F20"/>
<path d="M87.2729 65.4553H94.5461V72.7275H87.2729V65.4553Z" fill="#231F20"/>
<path d="M94.5461 65.4553H101.819V72.7275H94.5461V65.4553Z" fill="#231F20"/>
<path d="M123.634 65.4553H130.907V72.7275H123.634V65.4553Z" fill="#231F20"/>
<path d="M138.18 65.4553H145.454V72.7275H138.18V65.4553Z" fill="#231F20"/>
<path d="M0 72.7271H7.27312V80.0002H0V72.7271Z" fill="#231F20"/>
<path d="M7.27295 72.7271H14.5461V80.0002H7.27295V72.7271Z" fill="#231F20"/>
<path d="M14.5461 72.7271H21.815V80.0002H14.5461V72.7271Z" fill="#231F20"/>
<path d="M21.8152 72.7271H29.0925V80.0002H21.8152V72.7271Z" fill="#231F20"/>
<path d="M29.0925 72.7271H36.3614V80.0002H29.0925V72.7271Z" fill="#231F20"/>
<path d="M130.907 72.7271H138.181V80.0002H130.907V72.7271Z" fill="#231F20"/>
<path d="M138.18 72.7271H145.454V80.0002H138.18V72.7271Z" fill="#231F20"/>
<path d="M145.454 72.7271H152.727V80.0002H145.454V72.7271Z" fill="#231F20"/>
<path d="M0 80.0001H7.27312V87.2732H0V80.0001Z" fill="#231F20"/>
<path d="M7.27295 80.0001H14.5461V87.2732H7.27295V80.0001Z" fill="#231F20"/>
<path d="M14.5461 80.0001H21.815V87.2732H14.5461V80.0001Z" fill="#231F20"/>
<path d="M21.8152 80.0001H29.0925V87.2732H21.8152V80.0001Z" fill="#231F20"/>
<path d="M29.0925 80.0001H36.3614V87.2732H29.0925V80.0001Z" fill="#231F20"/>
<path d="M36.3613 80.0001H43.6344V87.2732H36.3613V80.0001Z" fill="#231F20"/>
<path d="M43.6343 80.0001H50.9074V87.2732H43.6343V80.0001Z" fill="#231F20"/>
<path d="M50.9075 80.0001H58.1806V87.2732H50.9075V80.0001Z" fill="#231F20"/>
<path d="M58.1804 80.0001H65.4535V87.2732H58.1804V80.0001Z" fill="#231F20"/>
<path d="M116.361 80.0001H123.634V87.2732H116.361V80.0001Z" fill="#231F20"/>
<path d="M123.634 80.0001H130.907V87.2732H123.634V80.0001Z" fill="#231F20"/>
<path d="M130.907 80.0001H138.181V87.2732H130.907V80.0001Z" fill="#231F20"/>
<path d="M138.18 80.0001H145.454V87.2732H138.18V80.0001Z" fill="#231F20"/>
<path d="M145.454 80.0001H152.727V87.2732H145.454V80.0001Z" fill="#231F20"/>
<path d="M7.27295 87.2733H14.5461V94.5452H7.27295V87.2733Z" fill="#231F20"/>
<path d="M14.5461 87.2733H21.815V94.5452H14.5461V87.2733Z" fill="#231F20"/>
<path d="M21.8152 87.2733H29.0925V94.5452H21.8152V87.2733Z" fill="#231F20"/>
<path d="M29.0925 87.2733H36.3614V94.5452H29.0925V87.2733Z" fill="#231F20"/>
<path d="M36.3613 87.2733H43.6344V94.5452H36.3613V87.2733Z" fill="#231F20"/>
<path d="M43.6343 87.2733H50.9074V94.5452H43.6343V87.2733Z" fill="#231F20"/>
<path d="M50.9075 87.2733H58.1806V94.5452H50.9075V87.2733Z" fill="#231F20"/>
<path d="M58.1804 87.2733H65.4535V94.5452H58.1804V87.2733Z" fill="#231F20"/>
<path d="M65.4539 87.2733H72.727V94.5452H65.4539V87.2733Z" fill="#231F20"/>
<path d="M72.7271 87.2733H80.0002V94.5452H72.7271V87.2733Z" fill="#231F20"/>
<path d="M80 87.2733H87.2731V94.5452H80V87.2733Z" fill="#231F20"/>
<path d="M87.2729 87.2733H94.5461V94.5452H87.2729V87.2733Z" fill="#231F20"/>
<path d="M94.5461 87.2733H101.819V94.5452H94.5461V87.2733Z" fill="#231F20"/>
<path d="M101.819 87.2733H109.088V94.5452H101.819V87.2733Z" fill="#231F20"/>
<path d="M109.088 87.2733H116.361V94.5452H109.088V87.2733Z" fill="#231F20"/>
<path d="M116.361 87.2733H123.634V94.5452H116.361V87.2733Z" fill="#231F20"/>
<path d="M123.634 87.2733H130.907V94.5452H123.634V87.2733Z" fill="#231F20"/>
<path d="M130.907 87.2733H138.181V94.5452H130.907V87.2733Z" fill="#231F20"/>
<path d="M21.8152 94.545H29.0925V101.818H21.8152V94.545Z" fill="#231F20"/>
<path d="M123.634 94.545H130.907V101.818H123.634V94.545Z" fill="#231F20"/>
<path d="M14.5461 101.818H21.815V109.092H14.5461V101.818Z" fill="#231F20"/>
<path d="M130.907 101.818H138.181V109.092H130.907V101.818Z" fill="#231F20"/>
<path d="M14.5461 109.091H21.815V116.364H14.5461V109.091Z" fill="#231F20"/>
<path d="M130.907 109.091H138.181V116.364H130.907V109.091Z" fill="#231F20"/>
<path d="M14.5461 116.364H21.815V123.637H14.5461V116.364Z" fill="#231F20"/>
<path d="M130.907 116.364H138.181V123.637H130.907V116.364Z" fill="#231F20"/>
<path d="M138.18 116.364H145.454V123.637H138.18V116.364Z" fill="#231F20"/>
<path d="M145.454 116.364H152.727V123.637H145.454V116.364Z" fill="#231F20"/>
<path d="M152.727 116.364H160V123.637H152.727V116.364Z" fill="#231F20"/>
<path d="M21.8152 123.637H29.0925V130.91H21.8152V123.637Z" fill="#231F20"/>
<path d="M130.907 123.637H138.181V130.91H130.907V123.637Z" fill="#231F20"/>
<path d="M138.18 123.637H145.454V130.91H138.18V123.637Z" fill="#231F20"/>
<path d="M145.454 123.637H152.727V130.91H145.454V123.637Z" fill="#231F20"/>
<path d="M152.727 123.637H160V130.91H152.727V123.637Z" fill="#231F20"/>
<path d="M21.8152 130.909H29.0925V138.182H21.8152V130.909Z" fill="#231F20"/>
<path d="M58.1804 130.909H65.4535V138.182H58.1804V130.909Z" fill="#231F20"/>
<path d="M65.4539 130.909H72.727V138.182H65.4539V130.909Z" fill="#231F20"/>
<path d="M72.7271 130.909H80.0002V138.182H72.7271V130.909Z" fill="#231F20"/>
<path d="M80 130.909H87.2731V138.182H80V130.909Z" fill="#231F20"/>
<path d="M87.2729 130.909H94.5461V138.182H87.2729V130.909Z" fill="#231F20"/>
<path d="M123.634 130.909H130.907V138.182H123.634V130.909Z" fill="#231F20"/>
<path d="M130.907 130.909H138.181V138.182H130.907V130.909Z" fill="#231F20"/>
<path d="M138.18 130.909H145.454V138.182H138.18V130.909Z" fill="#231F20"/>
<path d="M145.454 130.909H152.727V138.182H145.454V130.909Z" fill="#231F20"/>
<path d="M29.0925 138.182H36.3614V145.455H29.0925V138.182Z" fill="#231F20"/>
<path d="M36.3613 138.182H43.6344V145.455H36.3613V138.182Z" fill="#231F20"/>
<path d="M50.9075 138.182H58.1806V145.455H50.9075V138.182Z" fill="#231F20"/>
<path d="M58.1804 138.182H65.4535V145.455H58.1804V138.182Z" fill="#231F20"/>
<path d="M65.4539 138.182H72.727V145.455H65.4539V138.182Z" fill="#231F20"/>
<path d="M72.7271 138.182H80.0002V145.455H72.7271V138.182Z" fill="#231F20"/>
<path d="M80 138.182H87.2731V145.455H80V138.182Z" fill="#231F20"/>
<path d="M87.2729 138.182H94.5461V145.455H87.2729V138.182Z" fill="#231F20"/>
<path d="M94.5461 138.182H101.819V145.455H94.5461V138.182Z" fill="#231F20"/>
<path d="M101.819 138.182H109.088V145.455H101.819V138.182Z" fill="#231F20"/>
<path d="M109.088 138.182H116.361V145.455H109.088V138.182Z" fill="#231F20"/>
<path d="M116.361 138.182H123.634V145.455H116.361V138.182Z" fill="#231F20"/>
<path d="M43.6343 145.455H50.9074V152.727H43.6343V145.455Z" fill="#231F20"/>
<path d="M50.9075 145.455H58.1806V152.727H50.9075V145.455Z" fill="#231F20"/>
<path d="M58.1804 145.455H65.4535V152.727H58.1804V145.455Z" fill="#231F20"/>
<path d="M65.4539 145.455H72.727V152.727H65.4539V145.455Z" fill="#231F20"/>
<path d="M72.7271 145.455H80.0002V152.727H72.7271V145.455Z" fill="#231F20"/>
<path d="M80 145.455H87.2731V152.727H80V145.455Z" fill="#231F20"/>
<path d="M87.2729 145.455H94.5461V152.727H87.2729V145.455Z" fill="#231F20"/>
<path d="M94.5461 145.455H101.819V152.727H94.5461V145.455Z" fill="#231F20"/>
<path d="M101.819 145.455H109.088V152.727H101.819V145.455Z" fill="#231F20"/>
<path d="M109.088 145.455H116.361V152.727H109.088V145.455Z" fill="#231F20"/>
<path d="M116.361 145.455H123.634V152.727H116.361V145.455Z" fill="#231F20"/>
<path d="M58.1804 152.727H65.4535V160H58.1804V152.727Z" fill="#231F20"/>
<path d="M65.4539 152.727H72.727V160H65.4539V152.727Z" fill="#231F20"/>
<path d="M72.7271 152.727H80.0002V160H72.7271V152.727Z" fill="#231F20"/>
<path d="M80 152.727H87.2731V160H80V152.727Z" fill="#231F20"/>
<path d="M87.2729 152.727H94.5461V160H87.2729V152.727Z" fill="#231F20"/>
<path d="M94.5461 152.727H101.819V160H94.5461V152.727Z" fill="#231F20"/>
<path d="M101.819 152.727H109.088V160H101.819V152.727Z" fill="#231F20"/>
<path d="M109.088 152.727H116.361V160H109.088V152.727Z" fill="#231F20"/>
</svg>
