<svg width="36" height="36" viewBox="0 0 36 36" fill="none" xmlns="http://www.w3.org/2000/svg">
<g clip-path="url(#clip0_134_175)">
<path d="M34.5 24.0005C34.1022 24.0005 33.7206 24.1585 33.4393 24.4398C33.158 24.7211 33 25.1027 33 25.5005V28.5005C33 29.694 32.5259 30.8385 31.682 31.6825C30.8381 32.5264 29.6935 33.0005 28.5 33.0005H25.5C25.1022 33.0005 24.7206 33.1585 24.4393 33.4398C24.158 33.7211 24 34.1026 24 34.5005C24 34.8983 24.158 35.2798 24.4393 35.5611C24.7206 35.8424 25.1022 36.0005 25.5 36.0005H28.5C30.4884 35.9981 32.3946 35.2071 33.8007 33.8011C35.2067 32.3951 35.9976 30.4889 36 28.5005V25.5005C36 25.1027 35.8419 24.7211 35.5606 24.4398C35.2793 24.1585 34.8978 24.0005 34.5 24.0005Z" fill="#212529"/>
<path d="M1.5 12C1.89782 12 2.27936 11.842 2.56066 11.5607C2.84196 11.2794 3 10.8978 3 10.5V7.5C3 6.30653 3.47411 5.16193 4.31802 4.31802C5.16193 3.47411 6.30653 3 7.5 3H10.5C10.8978 3 11.2794 2.84196 11.5607 2.56066C11.842 2.27936 12 1.89782 12 1.5C12 1.10218 11.842 0.720644 11.5607 0.43934C11.2794 0.158035 10.8978 0 10.5 0L7.5 0C5.51161 0.00238179 3.60534 0.793323 2.19933 2.19933C0.793323 3.60534 0.00238179 5.51161 0 7.5L0 10.5C0 10.8978 0.158035 11.2794 0.43934 11.5607C0.720644 11.842 1.10218 12 1.5 12Z" fill="#212529"/>
<path d="M10.5 33.0005H7.5C6.30653 33.0005 5.16193 32.5264 4.31802 31.6825C3.47411 30.8385 3 29.694 3 28.5005V25.5005C3 25.1027 2.84196 24.7211 2.56066 24.4398C2.27936 24.1585 1.89782 24.0005 1.5 24.0005C1.10218 24.0005 0.720644 24.1585 0.43934 24.4398C0.158035 24.7211 0 25.1027 0 25.5005L0 28.5005C0.00238179 30.4889 0.793323 32.3951 2.19933 33.8011C3.60534 35.2071 5.51161 35.9981 7.5 36.0005H10.5C10.8978 36.0005 11.2794 35.8424 11.5607 35.5611C11.842 35.2798 12 34.8983 12 34.5005C12 34.1026 11.842 33.7211 11.5607 33.4398C11.2794 33.1585 10.8978 33.0005 10.5 33.0005Z" fill="#212529"/>
<path d="M28.5 0H25.5C25.1022 0 24.7206 0.158035 24.4393 0.43934C24.158 0.720644 24 1.10218 24 1.5C24 1.89782 24.158 2.27936 24.4393 2.56066C24.7206 2.84196 25.1022 3 25.5 3H28.5C29.6935 3 30.8381 3.47411 31.682 4.31802C32.5259 5.16193 33 6.30653 33 7.5V10.5C33 10.8978 33.158 11.2794 33.4393 11.5607C33.7206 11.842 34.1022 12 34.5 12C34.8978 12 35.2793 11.842 35.5606 11.5607C35.8419 11.2794 36 10.8978 36 10.5V7.5C35.9976 5.51161 35.2067 3.60534 33.8007 2.19933C32.3946 0.793323 30.4884 0.00238179 28.5 0V0Z" fill="#212529"/>
<path d="M18 16.4999C19.1867 16.4999 20.3467 16.148 21.3334 15.4888C22.3201 14.8295 23.0892 13.8924 23.5433 12.796C23.9974 11.6997 24.1162 10.4933 23.8847 9.3294C23.6532 8.16551 23.0818 7.09642 22.2426 6.2573C21.4035 5.41819 20.3344 4.84674 19.1705 4.61523C18.0067 4.38372 16.8003 4.50254 15.7039 4.95666C14.6075 5.41079 13.6705 6.17982 13.0112 7.16652C12.3519 8.15321 12 9.31325 12 10.4999C12 12.0912 12.6321 13.6174 13.7574 14.7426C14.8826 15.8678 16.4087 16.4999 18 16.4999ZM18 7.49994C18.5933 7.49994 19.1734 7.67589 19.6667 8.00553C20.1601 8.33518 20.5446 8.80371 20.7716 9.35189C20.9987 9.90007 21.0581 10.5033 20.9424 11.0852C20.8266 11.6672 20.5409 12.2017 20.1213 12.6213C19.7018 13.0408 19.1672 13.3265 18.5853 13.4423C18.0033 13.5581 17.4001 13.4986 16.852 13.2716C16.3038 13.0445 15.8352 12.66 15.5056 12.1667C15.1759 11.6733 15 11.0933 15 10.4999C15 9.70429 15.3161 8.94123 15.8787 8.37862C16.4413 7.81601 17.2044 7.49994 18 7.49994Z" fill="#212529"/>
<path d="M27 30.0005C27.3978 30.0005 27.7794 29.8425 28.0607 29.5611C28.342 29.2798 28.5 28.8983 28.5 28.5005C28.4976 26.1143 27.5486 23.8265 25.8613 22.1392C24.174 20.4518 21.8862 19.5029 19.5 19.5005H16.5C14.1138 19.5029 11.826 20.4518 10.1387 22.1392C8.45136 23.8265 7.50238 26.1143 7.5 28.5005C7.5 28.8983 7.65804 29.2798 7.93934 29.5611C8.22064 29.8425 8.60218 30.0005 9 30.0005C9.39782 30.0005 9.77936 29.8425 10.0607 29.5611C10.342 29.2798 10.5 28.8983 10.5 28.5005C10.5 26.9092 11.1321 25.3831 12.2574 24.2578C13.3826 23.1326 14.9087 22.5005 16.5 22.5005H19.5C21.0913 22.5005 22.6174 23.1326 23.7426 24.2578C24.8679 25.3831 25.5 26.9092 25.5 28.5005C25.5 28.8983 25.658 29.2798 25.9393 29.5611C26.2206 29.8425 26.6022 30.0005 27 30.0005Z" fill="#212529"/>
</g>
<defs>
<clipPath id="clip0_134_175">
<rect width="36" height="36" fill="white"/>
</clipPath>
</defs>
</svg>
